G04 #@! TF.GenerationSoftware,KiCad,Pcbnew,(5.1.10)-1*
G04 #@! TF.CreationDate,2021-11-11T19:15:20-08:00*
G04 #@! TF.ProjectId,Pokeball,506f6b65-6261-46c6-9c2e-6b696361645f,rev?*
G04 #@! TF.SameCoordinates,Original*
G04 #@! TF.FileFunction,Soldermask,Bot*
G04 #@! TF.FilePolarity,Negative*
%FSLAX46Y46*%
G04 Gerber Fmt 4.6, Leading zero omitted, Abs format (unit mm)*
G04 Created by KiCad (PCBNEW (5.1.10)-1) date 2021-11-11 19:15:20*
%MOMM*%
%LPD*%
G01*
G04 APERTURE LIST*
%ADD10O,1.350000X1.350000*%
%ADD11R,1.350000X1.350000*%
%ADD12C,2.200000*%
%ADD13C,0.100000*%
%ADD14C,1.320800*%
%ADD15R,1.320800X1.320800*%
%ADD16R,1.600000X1.600000*%
%ADD17C,1.600000*%
G04 APERTURE END LIST*
D10*
G04 #@! TO.C,J4*
X175500000Y-108450000D03*
X175500000Y-110450000D03*
X175500000Y-112450000D03*
X175500000Y-114450000D03*
X175500000Y-116450000D03*
D11*
X175500000Y-118450000D03*
G04 #@! TD*
D10*
G04 #@! TO.C,J3*
X145200000Y-115300000D03*
X145200000Y-113300000D03*
X145200000Y-111300000D03*
X145200000Y-109300000D03*
D11*
X145200000Y-107300000D03*
G04 #@! TD*
D12*
G04 #@! TO.C,H2*
X167500000Y-80000000D03*
G04 #@! TD*
G04 #@! TO.C,H1*
X152500000Y-80000000D03*
G04 #@! TD*
G04 #@! TO.C,J1*
G36*
G01*
X134887113Y-114089195D02*
X134887113Y-114089195D01*
G75*
G02*
X134887113Y-112887113I601041J601041D01*
G01*
X134887113Y-112887113D01*
G75*
G02*
X136089195Y-112887113I601041J-601041D01*
G01*
X136089195Y-112887113D01*
G75*
G02*
X136089195Y-114089195I-601041J-601041D01*
G01*
X136089195Y-114089195D01*
G75*
G02*
X134887113Y-114089195I-601041J601041D01*
G01*
G37*
G36*
G01*
X133091061Y-112293143D02*
X133091061Y-112293143D01*
G75*
G02*
X133091061Y-111091061I601041J601041D01*
G01*
X133091061Y-111091061D01*
G75*
G02*
X134293143Y-111091061I601041J-601041D01*
G01*
X134293143Y-111091061D01*
G75*
G02*
X134293143Y-112293143I-601041J-601041D01*
G01*
X134293143Y-112293143D01*
G75*
G02*
X133091061Y-112293143I-601041J601041D01*
G01*
G37*
G36*
G01*
X131295010Y-110497092D02*
X131295010Y-110497092D01*
G75*
G02*
X131295010Y-109295010I601041J601041D01*
G01*
X131295010Y-109295010D01*
G75*
G02*
X132497092Y-109295010I601041J-601041D01*
G01*
X132497092Y-109295010D01*
G75*
G02*
X132497092Y-110497092I-601041J-601041D01*
G01*
X132497092Y-110497092D01*
G75*
G02*
X131295010Y-110497092I-601041J601041D01*
G01*
G37*
D13*
G36*
X130100000Y-109302082D02*
G01*
X128897918Y-108100000D01*
X130100000Y-106897918D01*
X131302082Y-108100000D01*
X130100000Y-109302082D01*
G37*
G04 #@! TD*
D14*
G04 #@! TO.C,U1*
X137580000Y-97000000D03*
X137580000Y-94460000D03*
X137580000Y-91920000D03*
X137580000Y-89380000D03*
X137580000Y-86840000D03*
X137580000Y-84300000D03*
X137580000Y-81760000D03*
X137580000Y-79220000D03*
X137580000Y-76680000D03*
X137580000Y-74140000D03*
X137580000Y-71600000D03*
X137580000Y-69060000D03*
X137580000Y-66520000D03*
X137580000Y-63980000D03*
X145200000Y-63980000D03*
X145200000Y-66520000D03*
X145200000Y-69060000D03*
X145200000Y-71600000D03*
X145200000Y-74140000D03*
X145200000Y-76680000D03*
X145200000Y-79220000D03*
X145200000Y-81760000D03*
X145200000Y-84300000D03*
X145200000Y-86840000D03*
X145200000Y-89380000D03*
X145200000Y-91920000D03*
X145200000Y-94460000D03*
D15*
X145200000Y-97000000D03*
G04 #@! TD*
D16*
G04 #@! TO.C,C17*
X184200000Y-97400000D03*
D17*
X181700000Y-97400000D03*
G04 #@! TD*
G04 #@! TO.C,C16*
X167200000Y-62900000D03*
D16*
X167200000Y-60400000D03*
G04 #@! TD*
D17*
G04 #@! TO.C,C15*
X182925228Y-76832882D03*
D13*
G36*
X184692995Y-73933744D02*
G01*
X185824366Y-75065115D01*
X184692995Y-76196486D01*
X183561624Y-75065115D01*
X184692995Y-73933744D01*
G37*
G04 #@! TD*
D17*
G04 #@! TO.C,C4*
X128200000Y-101400000D03*
D16*
X130700000Y-101400000D03*
G04 #@! TD*
M02*
