M48
METRIC,TZ
T1C0.400
T2C0.500
T3C0.800
T4C0.813
T5C1.000
%
G90
G05
T1
X184000Y-110800
X189000Y-84000
X189600Y-95200
T2
X128600Y-74600
X128600Y-76700
X139500Y-76700
X140200Y-102800
X142300Y-107100
X143000Y-97600
X145200Y-104600
X151100Y-58000
X153000Y-61600
X158600Y-65600
X171600Y-57500
X174000Y-65600
X175200Y-72000
X178000Y-62800
X179600Y-89000
X183400Y-83200
X184200Y-105200
X187000Y-69800
T3
X128200Y-101400
X130700Y-101400
X145200Y-107300
X145200Y-109300
X145200Y-111300
X145200Y-113300
X145200Y-115300
X167200Y-60400
X167200Y-62900
X175500Y-108450
X175500Y-110450
X175500Y-112450
X175500Y-114450
X175500Y-116450
X175500Y-118450
X181700Y-97400
X182925Y-76833
X184200Y-97400
X184693Y-75065
T4
X137580Y-63980
X137580Y-66520
X137580Y-69060
X137580Y-71600
X137580Y-74140
X137580Y-76680
X137580Y-79220
X137580Y-81760
X137580Y-84300
X137580Y-86840
X137580Y-89380
X137580Y-91920
X137580Y-94460
X137580Y-97000
X145200Y-63980
X145200Y-66520
X145200Y-69060
X145200Y-71600
X145200Y-74140
X145200Y-76680
X145200Y-79220
X145200Y-81760
X145200Y-84300
X145200Y-86840
X145200Y-89380
X145200Y-91920
X145200Y-94460
X145200Y-97000
T5
X130100Y-108100
X131896Y-109896
X133692Y-111692
X135488Y-113488
T0
M30
