G04 #@! TF.GenerationSoftware,KiCad,Pcbnew,(5.1.10)-1*
G04 #@! TF.CreationDate,2021-11-11T19:15:20-08:00*
G04 #@! TF.ProjectId,Pokeball,506f6b65-6261-46c6-9c2e-6b696361645f,rev?*
G04 #@! TF.SameCoordinates,Original*
G04 #@! TF.FileFunction,Copper,L1,Top*
G04 #@! TF.FilePolarity,Positive*
%FSLAX46Y46*%
G04 Gerber Fmt 4.6, Leading zero omitted, Abs format (unit mm)*
G04 Created by KiCad (PCBNEW (5.1.10)-1) date 2021-11-11 19:15:20*
%MOMM*%
%LPD*%
G01*
G04 APERTURE LIST*
G04 #@! TA.AperFunction,ComponentPad*
%ADD10O,1.350000X1.350000*%
G04 #@! TD*
G04 #@! TA.AperFunction,ComponentPad*
%ADD11R,1.350000X1.350000*%
G04 #@! TD*
G04 #@! TA.AperFunction,ComponentPad*
%ADD12C,0.100000*%
G04 #@! TD*
G04 #@! TA.AperFunction,SMDPad,CuDef*
%ADD13R,0.558800X1.981200*%
G04 #@! TD*
G04 #@! TA.AperFunction,SMDPad,CuDef*
%ADD14R,1.981200X0.558800*%
G04 #@! TD*
G04 #@! TA.AperFunction,SMDPad,CuDef*
%ADD15C,0.100000*%
G04 #@! TD*
G04 #@! TA.AperFunction,SMDPad,CuDef*
%ADD16R,1.473200X3.200400*%
G04 #@! TD*
G04 #@! TA.AperFunction,SMDPad,CuDef*
%ADD17R,1.473200X0.914400*%
G04 #@! TD*
G04 #@! TA.AperFunction,ComponentPad*
%ADD18C,1.320800*%
G04 #@! TD*
G04 #@! TA.AperFunction,ComponentPad*
%ADD19R,1.320800X1.320800*%
G04 #@! TD*
G04 #@! TA.AperFunction,ComponentPad*
%ADD20R,1.600000X1.600000*%
G04 #@! TD*
G04 #@! TA.AperFunction,ComponentPad*
%ADD21C,1.600000*%
G04 #@! TD*
G04 #@! TA.AperFunction,ViaPad*
%ADD22C,0.600000*%
G04 #@! TD*
G04 #@! TA.AperFunction,Conductor*
%ADD23C,0.600000*%
G04 #@! TD*
G04 #@! TA.AperFunction,Conductor*
%ADD24C,0.254000*%
G04 #@! TD*
G04 #@! TA.AperFunction,Conductor*
%ADD25C,0.100000*%
G04 #@! TD*
G04 APERTURE END LIST*
D10*
G04 #@! TO.P,J4,6*
G04 #@! TO.N,GND*
X175500000Y-108450000D03*
G04 #@! TO.P,J4,5*
G04 #@! TO.N,Net-(C18-Pad1)*
X175500000Y-110450000D03*
G04 #@! TO.P,J4,4*
G04 #@! TO.N,GND*
X175500000Y-112450000D03*
G04 #@! TO.P,J4,3*
G04 #@! TO.N,Net-(J4-Pad3)*
X175500000Y-114450000D03*
G04 #@! TO.P,J4,2*
G04 #@! TO.N,Net-(J4-Pad2)*
X175500000Y-116450000D03*
D11*
G04 #@! TO.P,J4,1*
G04 #@! TO.N,Net-(J4-Pad1)*
X175500000Y-118450000D03*
G04 #@! TD*
D10*
G04 #@! TO.P,J3,5*
G04 #@! TO.N,GND*
X145200000Y-115300000D03*
G04 #@! TO.P,J3,4*
G04 #@! TO.N,PGC*
X145200000Y-113300000D03*
G04 #@! TO.P,J3,3*
G04 #@! TO.N,PGD*
X145200000Y-111300000D03*
G04 #@! TO.P,J3,2*
G04 #@! TO.N,MCLR*
X145200000Y-109300000D03*
D11*
G04 #@! TO.P,J3,1*
G04 #@! TO.N,3.3V*
X145200000Y-107300000D03*
G04 #@! TD*
G04 #@! TO.P,J1,4*
G04 #@! TO.N,Net-(D1-Pad2)*
G04 #@! TA.AperFunction,ComponentPad*
G36*
G01*
X134887113Y-114089195D02*
X134887113Y-114089195D01*
G75*
G02*
X134887113Y-112887113I601041J601041D01*
G01*
X134887113Y-112887113D01*
G75*
G02*
X136089195Y-112887113I601041J-601041D01*
G01*
X136089195Y-112887113D01*
G75*
G02*
X136089195Y-114089195I-601041J-601041D01*
G01*
X136089195Y-114089195D01*
G75*
G02*
X134887113Y-114089195I-601041J601041D01*
G01*
G37*
G04 #@! TD.AperFunction*
G04 #@! TO.P,J1,3*
G04 #@! TO.N,Net-(J1-Pad2)*
G04 #@! TA.AperFunction,ComponentPad*
G36*
G01*
X133091061Y-112293143D02*
X133091061Y-112293143D01*
G75*
G02*
X133091061Y-111091061I601041J601041D01*
G01*
X133091061Y-111091061D01*
G75*
G02*
X134293143Y-111091061I601041J-601041D01*
G01*
X134293143Y-111091061D01*
G75*
G02*
X134293143Y-112293143I-601041J-601041D01*
G01*
X134293143Y-112293143D01*
G75*
G02*
X133091061Y-112293143I-601041J601041D01*
G01*
G37*
G04 #@! TD.AperFunction*
G04 #@! TO.P,J1,2*
G04 #@! TA.AperFunction,ComponentPad*
G36*
G01*
X131295010Y-110497092D02*
X131295010Y-110497092D01*
G75*
G02*
X131295010Y-109295010I601041J601041D01*
G01*
X131295010Y-109295010D01*
G75*
G02*
X132497092Y-109295010I601041J-601041D01*
G01*
X132497092Y-109295010D01*
G75*
G02*
X132497092Y-110497092I-601041J-601041D01*
G01*
X132497092Y-110497092D01*
G75*
G02*
X131295010Y-110497092I-601041J601041D01*
G01*
G37*
G04 #@! TD.AperFunction*
G04 #@! TA.AperFunction,ComponentPad*
D12*
G04 #@! TO.P,J1,1*
G04 #@! TO.N,GND*
G36*
X130100000Y-109302082D02*
G01*
X128897918Y-108100000D01*
X130100000Y-106897918D01*
X131302082Y-108100000D01*
X130100000Y-109302082D01*
G37*
G04 #@! TD.AperFunction*
G04 #@! TD*
D13*
G04 #@! TO.P,U5,1*
G04 #@! TO.N,GND*
X186705000Y-87736200D03*
G04 #@! TO.P,U5,2*
G04 #@! TO.N,3.3V*
X185435000Y-87736200D03*
G04 #@! TO.P,U5,3*
X184165000Y-87736200D03*
G04 #@! TO.P,U5,4*
G04 #@! TO.N,BTN_BLU*
X182895000Y-87736200D03*
G04 #@! TO.P,U5,5*
G04 #@! TO.N,BTN_BLU_FLG*
X182895000Y-92663800D03*
G04 #@! TO.P,U5,6*
G04 #@! TO.N,Net-(C14-Pad2)*
X184165000Y-92663800D03*
G04 #@! TO.P,U5,7*
X185435000Y-92663800D03*
G04 #@! TO.P,U5,8*
G04 #@! TO.N,Net-(U5-Pad8)*
X186705000Y-92663800D03*
G04 #@! TD*
D14*
G04 #@! TO.P,U4,8*
G04 #@! TO.N,Net-(U4-Pad8)*
X162012560Y-57796140D03*
G04 #@! TO.P,U4,7*
G04 #@! TO.N,Net-(C13-Pad2)*
X162012560Y-59066140D03*
G04 #@! TO.P,U4,6*
X162012560Y-60336140D03*
G04 #@! TO.P,U4,5*
G04 #@! TO.N,BTN_GRN_FLG*
X162012560Y-61606140D03*
G04 #@! TO.P,U4,4*
G04 #@! TO.N,BTN_GRN*
X157084960Y-61606140D03*
G04 #@! TO.P,U4,3*
G04 #@! TO.N,3.3V*
X157084960Y-60336140D03*
G04 #@! TO.P,U4,2*
X157084960Y-59066140D03*
G04 #@! TO.P,U4,1*
G04 #@! TO.N,GND*
X157084960Y-57796140D03*
G04 #@! TD*
G04 #@! TA.AperFunction,SMDPad,CuDef*
D15*
G04 #@! TO.P,U3,8*
G04 #@! TO.N,Net-(U3-Pad8)*
G36*
X182075851Y-69229788D02*
G01*
X182470983Y-68834656D01*
X183871903Y-70235576D01*
X183476771Y-70630708D01*
X182075851Y-69229788D01*
G37*
G04 #@! TD.AperFunction*
G04 #@! TA.AperFunction,SMDPad,CuDef*
G04 #@! TO.P,U3,7*
G04 #@! TO.N,Net-(C12-Pad2)*
G36*
X181177825Y-70127814D02*
G01*
X181572957Y-69732682D01*
X182973877Y-71133602D01*
X182578745Y-71528734D01*
X181177825Y-70127814D01*
G37*
G04 #@! TD.AperFunction*
G04 #@! TA.AperFunction,SMDPad,CuDef*
G04 #@! TO.P,U3,6*
G36*
X180279800Y-71025839D02*
G01*
X180674932Y-70630707D01*
X182075852Y-72031627D01*
X181680720Y-72426759D01*
X180279800Y-71025839D01*
G37*
G04 #@! TD.AperFunction*
G04 #@! TA.AperFunction,SMDPad,CuDef*
G04 #@! TO.P,U3,5*
G04 #@! TO.N,BTN_RED_FLG*
G36*
X179381774Y-71923865D02*
G01*
X179776906Y-71528733D01*
X181177826Y-72929653D01*
X180782694Y-73324785D01*
X179381774Y-71923865D01*
G37*
G04 #@! TD.AperFunction*
G04 #@! TA.AperFunction,SMDPad,CuDef*
G04 #@! TO.P,U3,4*
G04 #@! TO.N,BTN_RED*
G36*
X175897435Y-68439526D02*
G01*
X176292567Y-68044394D01*
X177693487Y-69445314D01*
X177298355Y-69840446D01*
X175897435Y-68439526D01*
G37*
G04 #@! TD.AperFunction*
G04 #@! TA.AperFunction,SMDPad,CuDef*
G04 #@! TO.P,U3,3*
G04 #@! TO.N,3.3V*
G36*
X176795461Y-67541500D02*
G01*
X177190593Y-67146368D01*
X178591513Y-68547288D01*
X178196381Y-68942420D01*
X176795461Y-67541500D01*
G37*
G04 #@! TD.AperFunction*
G04 #@! TA.AperFunction,SMDPad,CuDef*
G04 #@! TO.P,U3,2*
G36*
X177693486Y-66643475D02*
G01*
X178088618Y-66248343D01*
X179489538Y-67649263D01*
X179094406Y-68044395D01*
X177693486Y-66643475D01*
G37*
G04 #@! TD.AperFunction*
G04 #@! TA.AperFunction,SMDPad,CuDef*
G04 #@! TO.P,U3,1*
G04 #@! TO.N,GND*
G36*
X178591512Y-65745449D02*
G01*
X178986644Y-65350317D01*
X180387564Y-66751237D01*
X179992432Y-67146369D01*
X178591512Y-65745449D01*
G37*
G04 #@! TD.AperFunction*
G04 #@! TD*
D16*
G04 #@! TO.P,U2,4*
G04 #@! TO.N,GND*
X124136100Y-88400000D03*
D17*
G04 #@! TO.P,U2,3*
G04 #@! TO.N,3.3V*
X130663900Y-86100000D03*
G04 #@! TO.P,U2,2*
G04 #@! TO.N,GND*
X130663900Y-88400000D03*
G04 #@! TO.P,U2,1*
G04 #@! TO.N,Net-(C4-Pad1)*
X130663900Y-90700000D03*
G04 #@! TD*
D18*
G04 #@! TO.P,U1,28*
G04 #@! TO.N,PGD*
X137580000Y-97000000D03*
G04 #@! TO.P,U1,27*
G04 #@! TO.N,PGC*
X137580000Y-94460000D03*
G04 #@! TO.P,U1,26*
G04 #@! TO.N,Net-(U1-Pad26)*
X137580000Y-91920000D03*
G04 #@! TO.P,U1,25*
G04 #@! TO.N,Net-(U1-Pad25)*
X137580000Y-89380000D03*
G04 #@! TO.P,U1,24*
G04 #@! TO.N,Net-(U1-Pad24)*
X137580000Y-86840000D03*
G04 #@! TO.P,U1,23*
G04 #@! TO.N,Net-(U1-Pad23)*
X137580000Y-84300000D03*
G04 #@! TO.P,U1,22*
G04 #@! TO.N,Net-(U1-Pad22)*
X137580000Y-81760000D03*
G04 #@! TO.P,U1,21*
G04 #@! TO.N,Net-(U1-Pad21)*
X137580000Y-79220000D03*
G04 #@! TO.P,U1,20*
G04 #@! TO.N,3.3V*
X137580000Y-76680000D03*
G04 #@! TO.P,U1,19*
G04 #@! TO.N,GND*
X137580000Y-74140000D03*
G04 #@! TO.P,U1,18*
G04 #@! TO.N,Net-(U1-Pad18)*
X137580000Y-71600000D03*
G04 #@! TO.P,U1,17*
G04 #@! TO.N,Net-(U1-Pad17)*
X137580000Y-69060000D03*
G04 #@! TO.P,U1,16*
G04 #@! TO.N,BTN_GRN*
X137580000Y-66520000D03*
G04 #@! TO.P,U1,15*
G04 #@! TO.N,BTN_GRN_FLG*
X137580000Y-63980000D03*
G04 #@! TO.P,U1,14*
G04 #@! TO.N,BTN_RED*
X145200000Y-63980000D03*
G04 #@! TO.P,U1,13*
G04 #@! TO.N,BTN_RED_FLG*
X145200000Y-66520000D03*
G04 #@! TO.P,U1,12*
G04 #@! TO.N,BTN_BLU*
X145200000Y-69060000D03*
G04 #@! TO.P,U1,11*
G04 #@! TO.N,BTN_BLU_FLG*
X145200000Y-71600000D03*
G04 #@! TO.P,U1,10*
G04 #@! TO.N,BTN_SW*
X145200000Y-74140000D03*
G04 #@! TO.P,U1,9*
G04 #@! TO.N,Net-(U1-Pad9)*
X145200000Y-76680000D03*
G04 #@! TO.P,U1,8*
G04 #@! TO.N,GND*
X145200000Y-79220000D03*
G04 #@! TO.P,U1,7*
G04 #@! TO.N,Net-(U1-Pad7)*
X145200000Y-81760000D03*
G04 #@! TO.P,U1,6*
G04 #@! TO.N,Net-(U1-Pad6)*
X145200000Y-84300000D03*
G04 #@! TO.P,U1,5*
G04 #@! TO.N,Net-(U1-Pad5)*
X145200000Y-86840000D03*
G04 #@! TO.P,U1,4*
G04 #@! TO.N,Net-(U1-Pad4)*
X145200000Y-89380000D03*
G04 #@! TO.P,U1,3*
G04 #@! TO.N,Net-(U1-Pad3)*
X145200000Y-91920000D03*
G04 #@! TO.P,U1,2*
G04 #@! TO.N,Net-(U1-Pad2)*
X145200000Y-94460000D03*
D19*
G04 #@! TO.P,U1,1*
G04 #@! TO.N,MCLR*
X145200000Y-97000000D03*
G04 #@! TD*
G04 #@! TO.P,R9,2*
G04 #@! TO.N,Net-(C14-Pad2)*
G04 #@! TA.AperFunction,SMDPad,CuDef*
G36*
G01*
X180400000Y-113900001D02*
X180400000Y-112999999D01*
G75*
G02*
X180649999Y-112750000I249999J0D01*
G01*
X181350001Y-112750000D01*
G75*
G02*
X181600000Y-112999999I0J-249999D01*
G01*
X181600000Y-113900001D01*
G75*
G02*
X181350001Y-114150000I-249999J0D01*
G01*
X180649999Y-114150000D01*
G75*
G02*
X180400000Y-113900001I0J249999D01*
G01*
G37*
G04 #@! TD.AperFunction*
G04 #@! TO.P,R9,1*
G04 #@! TO.N,Net-(J4-Pad3)*
G04 #@! TA.AperFunction,SMDPad,CuDef*
G36*
G01*
X178400000Y-113900001D02*
X178400000Y-112999999D01*
G75*
G02*
X178649999Y-112750000I249999J0D01*
G01*
X179350001Y-112750000D01*
G75*
G02*
X179600000Y-112999999I0J-249999D01*
G01*
X179600000Y-113900001D01*
G75*
G02*
X179350001Y-114150000I-249999J0D01*
G01*
X178649999Y-114150000D01*
G75*
G02*
X178400000Y-113900001I0J249999D01*
G01*
G37*
G04 #@! TD.AperFunction*
G04 #@! TD*
G04 #@! TO.P,R8,2*
G04 #@! TO.N,Net-(C13-Pad2)*
G04 #@! TA.AperFunction,SMDPad,CuDef*
G36*
G01*
X180400000Y-119450001D02*
X180400000Y-118549999D01*
G75*
G02*
X180649999Y-118300000I249999J0D01*
G01*
X181350001Y-118300000D01*
G75*
G02*
X181600000Y-118549999I0J-249999D01*
G01*
X181600000Y-119450001D01*
G75*
G02*
X181350001Y-119700000I-249999J0D01*
G01*
X180649999Y-119700000D01*
G75*
G02*
X180400000Y-119450001I0J249999D01*
G01*
G37*
G04 #@! TD.AperFunction*
G04 #@! TO.P,R8,1*
G04 #@! TO.N,Net-(J4-Pad1)*
G04 #@! TA.AperFunction,SMDPad,CuDef*
G36*
G01*
X178400000Y-119450001D02*
X178400000Y-118549999D01*
G75*
G02*
X178649999Y-118300000I249999J0D01*
G01*
X179350001Y-118300000D01*
G75*
G02*
X179600000Y-118549999I0J-249999D01*
G01*
X179600000Y-119450001D01*
G75*
G02*
X179350001Y-119700000I-249999J0D01*
G01*
X178649999Y-119700000D01*
G75*
G02*
X178400000Y-119450001I0J249999D01*
G01*
G37*
G04 #@! TD.AperFunction*
G04 #@! TD*
G04 #@! TO.P,R7,2*
G04 #@! TO.N,Net-(C12-Pad2)*
G04 #@! TA.AperFunction,SMDPad,CuDef*
G36*
G01*
X180400000Y-116650001D02*
X180400000Y-115749999D01*
G75*
G02*
X180649999Y-115500000I249999J0D01*
G01*
X181350001Y-115500000D01*
G75*
G02*
X181600000Y-115749999I0J-249999D01*
G01*
X181600000Y-116650001D01*
G75*
G02*
X181350001Y-116900000I-249999J0D01*
G01*
X180649999Y-116900000D01*
G75*
G02*
X180400000Y-116650001I0J249999D01*
G01*
G37*
G04 #@! TD.AperFunction*
G04 #@! TO.P,R7,1*
G04 #@! TO.N,Net-(J4-Pad2)*
G04 #@! TA.AperFunction,SMDPad,CuDef*
G36*
G01*
X178400000Y-116650001D02*
X178400000Y-115749999D01*
G75*
G02*
X178649999Y-115500000I249999J0D01*
G01*
X179350001Y-115500000D01*
G75*
G02*
X179600000Y-115749999I0J-249999D01*
G01*
X179600000Y-116650001D01*
G75*
G02*
X179350001Y-116900000I-249999J0D01*
G01*
X178649999Y-116900000D01*
G75*
G02*
X178400000Y-116650001I0J249999D01*
G01*
G37*
G04 #@! TD.AperFunction*
G04 #@! TD*
G04 #@! TO.P,R6,2*
G04 #@! TO.N,3.3V*
G04 #@! TA.AperFunction,SMDPad,CuDef*
G36*
G01*
X180400000Y-105650001D02*
X180400000Y-104749999D01*
G75*
G02*
X180649999Y-104500000I249999J0D01*
G01*
X181350001Y-104500000D01*
G75*
G02*
X181600000Y-104749999I0J-249999D01*
G01*
X181600000Y-105650001D01*
G75*
G02*
X181350001Y-105900000I-249999J0D01*
G01*
X180649999Y-105900000D01*
G75*
G02*
X180400000Y-105650001I0J249999D01*
G01*
G37*
G04 #@! TD.AperFunction*
G04 #@! TO.P,R6,1*
G04 #@! TO.N,Net-(C18-Pad1)*
G04 #@! TA.AperFunction,SMDPad,CuDef*
G36*
G01*
X178400000Y-105650001D02*
X178400000Y-104749999D01*
G75*
G02*
X178649999Y-104500000I249999J0D01*
G01*
X179350001Y-104500000D01*
G75*
G02*
X179600000Y-104749999I0J-249999D01*
G01*
X179600000Y-105650001D01*
G75*
G02*
X179350001Y-105900000I-249999J0D01*
G01*
X178649999Y-105900000D01*
G75*
G02*
X178400000Y-105650001I0J249999D01*
G01*
G37*
G04 #@! TD.AperFunction*
G04 #@! TD*
G04 #@! TO.P,R5,2*
G04 #@! TO.N,BTN_SW*
G04 #@! TA.AperFunction,SMDPad,CuDef*
G36*
G01*
X180400000Y-108400001D02*
X180400000Y-107499999D01*
G75*
G02*
X180649999Y-107250000I249999J0D01*
G01*
X181350001Y-107250000D01*
G75*
G02*
X181600000Y-107499999I0J-249999D01*
G01*
X181600000Y-108400001D01*
G75*
G02*
X181350001Y-108650000I-249999J0D01*
G01*
X180649999Y-108650000D01*
G75*
G02*
X180400000Y-108400001I0J249999D01*
G01*
G37*
G04 #@! TD.AperFunction*
G04 #@! TO.P,R5,1*
G04 #@! TO.N,Net-(C18-Pad1)*
G04 #@! TA.AperFunction,SMDPad,CuDef*
G36*
G01*
X178400000Y-108400001D02*
X178400000Y-107499999D01*
G75*
G02*
X178649999Y-107250000I249999J0D01*
G01*
X179350001Y-107250000D01*
G75*
G02*
X179600000Y-107499999I0J-249999D01*
G01*
X179600000Y-108400001D01*
G75*
G02*
X179350001Y-108650000I-249999J0D01*
G01*
X178649999Y-108650000D01*
G75*
G02*
X178400000Y-108400001I0J249999D01*
G01*
G37*
G04 #@! TD.AperFunction*
G04 #@! TD*
G04 #@! TO.P,R4,1*
G04 #@! TO.N,BTN_BLU_FLG*
G04 #@! TA.AperFunction,SMDPad,CuDef*
G36*
G01*
X180650001Y-93400000D02*
X179749999Y-93400000D01*
G75*
G02*
X179500000Y-93150001I0J249999D01*
G01*
X179500000Y-92449999D01*
G75*
G02*
X179749999Y-92200000I249999J0D01*
G01*
X180650001Y-92200000D01*
G75*
G02*
X180900000Y-92449999I0J-249999D01*
G01*
X180900000Y-93150001D01*
G75*
G02*
X180650001Y-93400000I-249999J0D01*
G01*
G37*
G04 #@! TD.AperFunction*
G04 #@! TO.P,R4,2*
G04 #@! TO.N,3.3V*
G04 #@! TA.AperFunction,SMDPad,CuDef*
G36*
G01*
X180650001Y-91400000D02*
X179749999Y-91400000D01*
G75*
G02*
X179500000Y-91150001I0J249999D01*
G01*
X179500000Y-90449999D01*
G75*
G02*
X179749999Y-90200000I249999J0D01*
G01*
X180650001Y-90200000D01*
G75*
G02*
X180900000Y-90449999I0J-249999D01*
G01*
X180900000Y-91150001D01*
G75*
G02*
X180650001Y-91400000I-249999J0D01*
G01*
G37*
G04 #@! TD.AperFunction*
G04 #@! TD*
G04 #@! TO.P,R3,2*
G04 #@! TO.N,3.3V*
G04 #@! TA.AperFunction,SMDPad,CuDef*
G36*
G01*
X160600000Y-64701139D02*
X160600000Y-65601141D01*
G75*
G02*
X160350001Y-65851140I-249999J0D01*
G01*
X159649999Y-65851140D01*
G75*
G02*
X159400000Y-65601141I0J249999D01*
G01*
X159400000Y-64701139D01*
G75*
G02*
X159649999Y-64451140I249999J0D01*
G01*
X160350001Y-64451140D01*
G75*
G02*
X160600000Y-64701139I0J-249999D01*
G01*
G37*
G04 #@! TD.AperFunction*
G04 #@! TO.P,R3,1*
G04 #@! TO.N,BTN_GRN_FLG*
G04 #@! TA.AperFunction,SMDPad,CuDef*
G36*
G01*
X162600000Y-64701139D02*
X162600000Y-65601141D01*
G75*
G02*
X162350001Y-65851140I-249999J0D01*
G01*
X161649999Y-65851140D01*
G75*
G02*
X161400000Y-65601141I0J249999D01*
G01*
X161400000Y-64701139D01*
G75*
G02*
X161649999Y-64451140I249999J0D01*
G01*
X162350001Y-64451140D01*
G75*
G02*
X162600000Y-64701139I0J-249999D01*
G01*
G37*
G04 #@! TD.AperFunction*
G04 #@! TD*
G04 #@! TO.P,R2,2*
G04 #@! TO.N,3.3V*
G04 #@! TA.AperFunction,SMDPad,CuDef*
G36*
G01*
X177635356Y-72998958D02*
X176998958Y-73635356D01*
G75*
G02*
X176645406Y-73635356I-176776J176776D01*
G01*
X176150430Y-73140380D01*
G75*
G02*
X176150430Y-72786828I176776J176776D01*
G01*
X176786828Y-72150430D01*
G75*
G02*
X177140380Y-72150430I176776J-176776D01*
G01*
X177635356Y-72645406D01*
G75*
G02*
X177635356Y-72998958I-176776J-176776D01*
G01*
G37*
G04 #@! TD.AperFunction*
G04 #@! TO.P,R2,1*
G04 #@! TO.N,BTN_RED_FLG*
G04 #@! TA.AperFunction,SMDPad,CuDef*
G36*
G01*
X179049570Y-74413172D02*
X178413172Y-75049570D01*
G75*
G02*
X178059620Y-75049570I-176776J176776D01*
G01*
X177564644Y-74554594D01*
G75*
G02*
X177564644Y-74201042I176776J176776D01*
G01*
X178201042Y-73564644D01*
G75*
G02*
X178554594Y-73564644I176776J-176776D01*
G01*
X179049570Y-74059620D01*
G75*
G02*
X179049570Y-74413172I-176776J-176776D01*
G01*
G37*
G04 #@! TD.AperFunction*
G04 #@! TD*
G04 #@! TO.P,R1,2*
G04 #@! TO.N,3.3V*
G04 #@! TA.AperFunction,SMDPad,CuDef*
G36*
G01*
X140800000Y-100349999D02*
X140800000Y-101250001D01*
G75*
G02*
X140550001Y-101500000I-249999J0D01*
G01*
X139849999Y-101500000D01*
G75*
G02*
X139600000Y-101250001I0J249999D01*
G01*
X139600000Y-100349999D01*
G75*
G02*
X139849999Y-100100000I249999J0D01*
G01*
X140550001Y-100100000D01*
G75*
G02*
X140800000Y-100349999I0J-249999D01*
G01*
G37*
G04 #@! TD.AperFunction*
G04 #@! TO.P,R1,1*
G04 #@! TO.N,MCLR*
G04 #@! TA.AperFunction,SMDPad,CuDef*
G36*
G01*
X142800000Y-100349999D02*
X142800000Y-101250001D01*
G75*
G02*
X142550001Y-101500000I-249999J0D01*
G01*
X141849999Y-101500000D01*
G75*
G02*
X141600000Y-101250001I0J249999D01*
G01*
X141600000Y-100349999D01*
G75*
G02*
X141849999Y-100100000I249999J0D01*
G01*
X142550001Y-100100000D01*
G75*
G02*
X142800000Y-100349999I0J-249999D01*
G01*
G37*
G04 #@! TD.AperFunction*
G04 #@! TD*
G04 #@! TA.AperFunction,SMDPad,CuDef*
D15*
G04 #@! TO.P,D1,2*
G04 #@! TO.N,Net-(D1-Pad2)*
G36*
X134524264Y-106472792D02*
G01*
X135372792Y-105624264D01*
X136009188Y-106260660D01*
X135160660Y-107109188D01*
X134524264Y-106472792D01*
G37*
G04 #@! TD.AperFunction*
G04 #@! TA.AperFunction,SMDPad,CuDef*
G04 #@! TO.P,D1,1*
G04 #@! TO.N,Net-(C4-Pad1)*
G36*
X132190812Y-104139340D02*
G01*
X133039340Y-103290812D01*
X133675736Y-103927208D01*
X132827208Y-104775736D01*
X132190812Y-104139340D01*
G37*
G04 #@! TD.AperFunction*
G04 #@! TD*
G04 #@! TO.P,C18,1*
G04 #@! TO.N,Net-(C18-Pad1)*
G04 #@! TA.AperFunction,SMDPad,CuDef*
G36*
G01*
X178412500Y-111175000D02*
X178412500Y-110225000D01*
G75*
G02*
X178662500Y-109975000I250000J0D01*
G01*
X179337500Y-109975000D01*
G75*
G02*
X179587500Y-110225000I0J-250000D01*
G01*
X179587500Y-111175000D01*
G75*
G02*
X179337500Y-111425000I-250000J0D01*
G01*
X178662500Y-111425000D01*
G75*
G02*
X178412500Y-111175000I0J250000D01*
G01*
G37*
G04 #@! TD.AperFunction*
G04 #@! TO.P,C18,2*
G04 #@! TO.N,GND*
G04 #@! TA.AperFunction,SMDPad,CuDef*
G36*
G01*
X180487500Y-111175000D02*
X180487500Y-110225000D01*
G75*
G02*
X180737500Y-109975000I250000J0D01*
G01*
X181412500Y-109975000D01*
G75*
G02*
X181662500Y-110225000I0J-250000D01*
G01*
X181662500Y-111175000D01*
G75*
G02*
X181412500Y-111425000I-250000J0D01*
G01*
X180737500Y-111425000D01*
G75*
G02*
X180487500Y-111175000I0J250000D01*
G01*
G37*
G04 #@! TD.AperFunction*
G04 #@! TD*
D20*
G04 #@! TO.P,C17,1*
G04 #@! TO.N,Net-(C14-Pad2)*
X184200000Y-97400000D03*
D21*
G04 #@! TO.P,C17,2*
G04 #@! TO.N,GND*
X181700000Y-97400000D03*
G04 #@! TD*
G04 #@! TO.P,C16,2*
G04 #@! TO.N,GND*
X167200000Y-62900000D03*
D20*
G04 #@! TO.P,C16,1*
G04 #@! TO.N,Net-(C13-Pad2)*
X167200000Y-60400000D03*
G04 #@! TD*
D21*
G04 #@! TO.P,C15,2*
G04 #@! TO.N,GND*
X182925228Y-76832882D03*
G04 #@! TA.AperFunction,ComponentPad*
D12*
G04 #@! TO.P,C15,1*
G04 #@! TO.N,Net-(C12-Pad2)*
G36*
X184692995Y-73933744D02*
G01*
X185824366Y-75065115D01*
X184692995Y-76196486D01*
X183561624Y-75065115D01*
X184692995Y-73933744D01*
G37*
G04 #@! TD.AperFunction*
G04 #@! TD*
G04 #@! TO.P,C14,1*
G04 #@! TO.N,GND*
G04 #@! TA.AperFunction,SMDPad,CuDef*
G36*
G01*
X190062500Y-96925000D02*
X190062500Y-97875000D01*
G75*
G02*
X189812500Y-98125000I-250000J0D01*
G01*
X189137500Y-98125000D01*
G75*
G02*
X188887500Y-97875000I0J250000D01*
G01*
X188887500Y-96925000D01*
G75*
G02*
X189137500Y-96675000I250000J0D01*
G01*
X189812500Y-96675000D01*
G75*
G02*
X190062500Y-96925000I0J-250000D01*
G01*
G37*
G04 #@! TD.AperFunction*
G04 #@! TO.P,C14,2*
G04 #@! TO.N,Net-(C14-Pad2)*
G04 #@! TA.AperFunction,SMDPad,CuDef*
G36*
G01*
X187987500Y-96925000D02*
X187987500Y-97875000D01*
G75*
G02*
X187737500Y-98125000I-250000J0D01*
G01*
X187062500Y-98125000D01*
G75*
G02*
X186812500Y-97875000I0J250000D01*
G01*
X186812500Y-96925000D01*
G75*
G02*
X187062500Y-96675000I250000J0D01*
G01*
X187737500Y-96675000D01*
G75*
G02*
X187987500Y-96925000I0J-250000D01*
G01*
G37*
G04 #@! TD.AperFunction*
G04 #@! TD*
G04 #@! TO.P,C13,2*
G04 #@! TO.N,Net-(C13-Pad2)*
G04 #@! TA.AperFunction,SMDPad,CuDef*
G36*
G01*
X167750000Y-57025000D02*
X167750000Y-57975000D01*
G75*
G02*
X167500000Y-58225000I-250000J0D01*
G01*
X166825000Y-58225000D01*
G75*
G02*
X166575000Y-57975000I0J250000D01*
G01*
X166575000Y-57025000D01*
G75*
G02*
X166825000Y-56775000I250000J0D01*
G01*
X167500000Y-56775000D01*
G75*
G02*
X167750000Y-57025000I0J-250000D01*
G01*
G37*
G04 #@! TD.AperFunction*
G04 #@! TO.P,C13,1*
G04 #@! TO.N,GND*
G04 #@! TA.AperFunction,SMDPad,CuDef*
G36*
G01*
X169825000Y-57025000D02*
X169825000Y-57975000D01*
G75*
G02*
X169575000Y-58225000I-250000J0D01*
G01*
X168900000Y-58225000D01*
G75*
G02*
X168650000Y-57975000I0J250000D01*
G01*
X168650000Y-57025000D01*
G75*
G02*
X168900000Y-56775000I250000J0D01*
G01*
X169575000Y-56775000D01*
G75*
G02*
X169825000Y-57025000I0J-250000D01*
G01*
G37*
G04 #@! TD.AperFunction*
G04 #@! TD*
G04 #@! TO.P,C12,2*
G04 #@! TO.N,Net-(C12-Pad2)*
G04 #@! TA.AperFunction,SMDPad,CuDef*
G36*
G01*
X187150192Y-71936168D02*
X187821943Y-72607919D01*
G75*
G02*
X187821943Y-72961473I-176777J-176777D01*
G01*
X187344646Y-73438770D01*
G75*
G02*
X186991092Y-73438770I-176777J176777D01*
G01*
X186319341Y-72767019D01*
G75*
G02*
X186319341Y-72413465I176777J176777D01*
G01*
X186796638Y-71936168D01*
G75*
G02*
X187150192Y-71936168I176777J-176777D01*
G01*
G37*
G04 #@! TD.AperFunction*
G04 #@! TO.P,C12,1*
G04 #@! TO.N,GND*
G04 #@! TA.AperFunction,SMDPad,CuDef*
G36*
G01*
X188617438Y-70468922D02*
X189289189Y-71140673D01*
G75*
G02*
X189289189Y-71494227I-176777J-176777D01*
G01*
X188811892Y-71971524D01*
G75*
G02*
X188458338Y-71971524I-176777J176777D01*
G01*
X187786587Y-71299773D01*
G75*
G02*
X187786587Y-70946219I176777J176777D01*
G01*
X188263884Y-70468922D01*
G75*
G02*
X188617438Y-70468922I176777J-176777D01*
G01*
G37*
G04 #@! TD.AperFunction*
G04 #@! TD*
G04 #@! TO.P,C11,2*
G04 #@! TO.N,3.3V*
G04 #@! TA.AperFunction,SMDPad,CuDef*
G36*
G01*
X130050000Y-79775000D02*
X130050000Y-78825000D01*
G75*
G02*
X130300000Y-78575000I250000J0D01*
G01*
X130975000Y-78575000D01*
G75*
G02*
X131225000Y-78825000I0J-250000D01*
G01*
X131225000Y-79775000D01*
G75*
G02*
X130975000Y-80025000I-250000J0D01*
G01*
X130300000Y-80025000D01*
G75*
G02*
X130050000Y-79775000I0J250000D01*
G01*
G37*
G04 #@! TD.AperFunction*
G04 #@! TO.P,C11,1*
G04 #@! TO.N,GND*
G04 #@! TA.AperFunction,SMDPad,CuDef*
G36*
G01*
X127975000Y-79775000D02*
X127975000Y-78825000D01*
G75*
G02*
X128225000Y-78575000I250000J0D01*
G01*
X128900000Y-78575000D01*
G75*
G02*
X129150000Y-78825000I0J-250000D01*
G01*
X129150000Y-79775000D01*
G75*
G02*
X128900000Y-80025000I-250000J0D01*
G01*
X128225000Y-80025000D01*
G75*
G02*
X127975000Y-79775000I0J250000D01*
G01*
G37*
G04 #@! TD.AperFunction*
G04 #@! TD*
G04 #@! TO.P,C10,2*
G04 #@! TO.N,3.3V*
G04 #@! TA.AperFunction,SMDPad,CuDef*
G36*
G01*
X130012500Y-82975000D02*
X130012500Y-82025000D01*
G75*
G02*
X130262500Y-81775000I250000J0D01*
G01*
X130937500Y-81775000D01*
G75*
G02*
X131187500Y-82025000I0J-250000D01*
G01*
X131187500Y-82975000D01*
G75*
G02*
X130937500Y-83225000I-250000J0D01*
G01*
X130262500Y-83225000D01*
G75*
G02*
X130012500Y-82975000I0J250000D01*
G01*
G37*
G04 #@! TD.AperFunction*
G04 #@! TO.P,C10,1*
G04 #@! TO.N,GND*
G04 #@! TA.AperFunction,SMDPad,CuDef*
G36*
G01*
X127937500Y-82975000D02*
X127937500Y-82025000D01*
G75*
G02*
X128187500Y-81775000I250000J0D01*
G01*
X128862500Y-81775000D01*
G75*
G02*
X129112500Y-82025000I0J-250000D01*
G01*
X129112500Y-82975000D01*
G75*
G02*
X128862500Y-83225000I-250000J0D01*
G01*
X128187500Y-83225000D01*
G75*
G02*
X127937500Y-82975000I0J250000D01*
G01*
G37*
G04 #@! TD.AperFunction*
G04 #@! TD*
G04 #@! TO.P,C9,1*
G04 #@! TO.N,GND*
G04 #@! TA.AperFunction,SMDPad,CuDef*
G36*
G01*
X187387500Y-83525000D02*
X187387500Y-84475000D01*
G75*
G02*
X187137500Y-84725000I-250000J0D01*
G01*
X186462500Y-84725000D01*
G75*
G02*
X186212500Y-84475000I0J250000D01*
G01*
X186212500Y-83525000D01*
G75*
G02*
X186462500Y-83275000I250000J0D01*
G01*
X187137500Y-83275000D01*
G75*
G02*
X187387500Y-83525000I0J-250000D01*
G01*
G37*
G04 #@! TD.AperFunction*
G04 #@! TO.P,C9,2*
G04 #@! TO.N,3.3V*
G04 #@! TA.AperFunction,SMDPad,CuDef*
G36*
G01*
X185312500Y-83525000D02*
X185312500Y-84475000D01*
G75*
G02*
X185062500Y-84725000I-250000J0D01*
G01*
X184387500Y-84725000D01*
G75*
G02*
X184137500Y-84475000I0J250000D01*
G01*
X184137500Y-83525000D01*
G75*
G02*
X184387500Y-83275000I250000J0D01*
G01*
X185062500Y-83275000D01*
G75*
G02*
X185312500Y-83525000I0J-250000D01*
G01*
G37*
G04 #@! TD.AperFunction*
G04 #@! TD*
G04 #@! TO.P,C8,2*
G04 #@! TO.N,3.3V*
G04 #@! TA.AperFunction,SMDPad,CuDef*
G36*
G01*
X153125000Y-59450000D02*
X154075000Y-59450000D01*
G75*
G02*
X154325000Y-59700000I0J-250000D01*
G01*
X154325000Y-60375000D01*
G75*
G02*
X154075000Y-60625000I-250000J0D01*
G01*
X153125000Y-60625000D01*
G75*
G02*
X152875000Y-60375000I0J250000D01*
G01*
X152875000Y-59700000D01*
G75*
G02*
X153125000Y-59450000I250000J0D01*
G01*
G37*
G04 #@! TD.AperFunction*
G04 #@! TO.P,C8,1*
G04 #@! TO.N,GND*
G04 #@! TA.AperFunction,SMDPad,CuDef*
G36*
G01*
X153125000Y-57375000D02*
X154075000Y-57375000D01*
G75*
G02*
X154325000Y-57625000I0J-250000D01*
G01*
X154325000Y-58300000D01*
G75*
G02*
X154075000Y-58550000I-250000J0D01*
G01*
X153125000Y-58550000D01*
G75*
G02*
X152875000Y-58300000I0J250000D01*
G01*
X152875000Y-57625000D01*
G75*
G02*
X153125000Y-57375000I250000J0D01*
G01*
G37*
G04 #@! TD.AperFunction*
G04 #@! TD*
G04 #@! TO.P,C7,2*
G04 #@! TO.N,3.3V*
G04 #@! TA.AperFunction,SMDPad,CuDef*
G36*
G01*
X175412220Y-64723678D02*
X176083971Y-65395429D01*
G75*
G02*
X176083971Y-65748983I-176777J-176777D01*
G01*
X175606674Y-66226280D01*
G75*
G02*
X175253120Y-66226280I-176777J176777D01*
G01*
X174581369Y-65554529D01*
G75*
G02*
X174581369Y-65200975I176777J176777D01*
G01*
X175058666Y-64723678D01*
G75*
G02*
X175412220Y-64723678I176777J-176777D01*
G01*
G37*
G04 #@! TD.AperFunction*
G04 #@! TO.P,C7,1*
G04 #@! TO.N,GND*
G04 #@! TA.AperFunction,SMDPad,CuDef*
G36*
G01*
X176879466Y-63256432D02*
X177551217Y-63928183D01*
G75*
G02*
X177551217Y-64281737I-176777J-176777D01*
G01*
X177073920Y-64759034D01*
G75*
G02*
X176720366Y-64759034I-176777J176777D01*
G01*
X176048615Y-64087283D01*
G75*
G02*
X176048615Y-63733729I176777J176777D01*
G01*
X176525912Y-63256432D01*
G75*
G02*
X176879466Y-63256432I176777J-176777D01*
G01*
G37*
G04 #@! TD.AperFunction*
G04 #@! TD*
G04 #@! TO.P,C6,2*
G04 #@! TO.N,Net-(C4-Pad1)*
G04 #@! TA.AperFunction,SMDPad,CuDef*
G36*
G01*
X130050000Y-97375000D02*
X130050000Y-96425000D01*
G75*
G02*
X130300000Y-96175000I250000J0D01*
G01*
X130975000Y-96175000D01*
G75*
G02*
X131225000Y-96425000I0J-250000D01*
G01*
X131225000Y-97375000D01*
G75*
G02*
X130975000Y-97625000I-250000J0D01*
G01*
X130300000Y-97625000D01*
G75*
G02*
X130050000Y-97375000I0J250000D01*
G01*
G37*
G04 #@! TD.AperFunction*
G04 #@! TO.P,C6,1*
G04 #@! TO.N,GND*
G04 #@! TA.AperFunction,SMDPad,CuDef*
G36*
G01*
X127975000Y-97375000D02*
X127975000Y-96425000D01*
G75*
G02*
X128225000Y-96175000I250000J0D01*
G01*
X128900000Y-96175000D01*
G75*
G02*
X129150000Y-96425000I0J-250000D01*
G01*
X129150000Y-97375000D01*
G75*
G02*
X128900000Y-97625000I-250000J0D01*
G01*
X128225000Y-97625000D01*
G75*
G02*
X127975000Y-97375000I0J250000D01*
G01*
G37*
G04 #@! TD.AperFunction*
G04 #@! TD*
G04 #@! TO.P,C5,2*
G04 #@! TO.N,Net-(C4-Pad1)*
G04 #@! TA.AperFunction,SMDPad,CuDef*
G36*
G01*
X130050000Y-94475000D02*
X130050000Y-93525000D01*
G75*
G02*
X130300000Y-93275000I250000J0D01*
G01*
X130975000Y-93275000D01*
G75*
G02*
X131225000Y-93525000I0J-250000D01*
G01*
X131225000Y-94475000D01*
G75*
G02*
X130975000Y-94725000I-250000J0D01*
G01*
X130300000Y-94725000D01*
G75*
G02*
X130050000Y-94475000I0J250000D01*
G01*
G37*
G04 #@! TD.AperFunction*
G04 #@! TO.P,C5,1*
G04 #@! TO.N,GND*
G04 #@! TA.AperFunction,SMDPad,CuDef*
G36*
G01*
X127975000Y-94475000D02*
X127975000Y-93525000D01*
G75*
G02*
X128225000Y-93275000I250000J0D01*
G01*
X128900000Y-93275000D01*
G75*
G02*
X129150000Y-93525000I0J-250000D01*
G01*
X129150000Y-94475000D01*
G75*
G02*
X128900000Y-94725000I-250000J0D01*
G01*
X128225000Y-94725000D01*
G75*
G02*
X127975000Y-94475000I0J250000D01*
G01*
G37*
G04 #@! TD.AperFunction*
G04 #@! TD*
D21*
G04 #@! TO.P,C4,2*
G04 #@! TO.N,GND*
X128200000Y-101400000D03*
D20*
G04 #@! TO.P,C4,1*
G04 #@! TO.N,Net-(C4-Pad1)*
X130700000Y-101400000D03*
G04 #@! TD*
G04 #@! TO.P,C3,2*
G04 #@! TO.N,3.3V*
G04 #@! TA.AperFunction,SMDPad,CuDef*
G36*
G01*
X133125000Y-76050000D02*
X134075000Y-76050000D01*
G75*
G02*
X134325000Y-76300000I0J-250000D01*
G01*
X134325000Y-76975000D01*
G75*
G02*
X134075000Y-77225000I-250000J0D01*
G01*
X133125000Y-77225000D01*
G75*
G02*
X132875000Y-76975000I0J250000D01*
G01*
X132875000Y-76300000D01*
G75*
G02*
X133125000Y-76050000I250000J0D01*
G01*
G37*
G04 #@! TD.AperFunction*
G04 #@! TO.P,C3,1*
G04 #@! TO.N,GND*
G04 #@! TA.AperFunction,SMDPad,CuDef*
G36*
G01*
X133125000Y-73975000D02*
X134075000Y-73975000D01*
G75*
G02*
X134325000Y-74225000I0J-250000D01*
G01*
X134325000Y-74900000D01*
G75*
G02*
X134075000Y-75150000I-250000J0D01*
G01*
X133125000Y-75150000D01*
G75*
G02*
X132875000Y-74900000I0J250000D01*
G01*
X132875000Y-74225000D01*
G75*
G02*
X133125000Y-73975000I250000J0D01*
G01*
G37*
G04 #@! TD.AperFunction*
G04 #@! TD*
G04 #@! TO.P,C2,2*
G04 #@! TO.N,3.3V*
G04 #@! TA.AperFunction,SMDPad,CuDef*
G36*
G01*
X130225000Y-76087500D02*
X131175000Y-76087500D01*
G75*
G02*
X131425000Y-76337500I0J-250000D01*
G01*
X131425000Y-77012500D01*
G75*
G02*
X131175000Y-77262500I-250000J0D01*
G01*
X130225000Y-77262500D01*
G75*
G02*
X129975000Y-77012500I0J250000D01*
G01*
X129975000Y-76337500D01*
G75*
G02*
X130225000Y-76087500I250000J0D01*
G01*
G37*
G04 #@! TD.AperFunction*
G04 #@! TO.P,C2,1*
G04 #@! TO.N,GND*
G04 #@! TA.AperFunction,SMDPad,CuDef*
G36*
G01*
X130225000Y-74012500D02*
X131175000Y-74012500D01*
G75*
G02*
X131425000Y-74262500I0J-250000D01*
G01*
X131425000Y-74937500D01*
G75*
G02*
X131175000Y-75187500I-250000J0D01*
G01*
X130225000Y-75187500D01*
G75*
G02*
X129975000Y-74937500I0J250000D01*
G01*
X129975000Y-74262500D01*
G75*
G02*
X130225000Y-74012500I250000J0D01*
G01*
G37*
G04 #@! TD.AperFunction*
G04 #@! TD*
G04 #@! TO.P,C1,2*
G04 #@! TO.N,MCLR*
G04 #@! TA.AperFunction,SMDPad,CuDef*
G36*
G01*
X145675000Y-101350000D02*
X144725000Y-101350000D01*
G75*
G02*
X144475000Y-101100000I0J250000D01*
G01*
X144475000Y-100425000D01*
G75*
G02*
X144725000Y-100175000I250000J0D01*
G01*
X145675000Y-100175000D01*
G75*
G02*
X145925000Y-100425000I0J-250000D01*
G01*
X145925000Y-101100000D01*
G75*
G02*
X145675000Y-101350000I-250000J0D01*
G01*
G37*
G04 #@! TD.AperFunction*
G04 #@! TO.P,C1,1*
G04 #@! TO.N,GND*
G04 #@! TA.AperFunction,SMDPad,CuDef*
G36*
G01*
X145675000Y-103425000D02*
X144725000Y-103425000D01*
G75*
G02*
X144475000Y-103175000I0J250000D01*
G01*
X144475000Y-102500000D01*
G75*
G02*
X144725000Y-102250000I250000J0D01*
G01*
X145675000Y-102250000D01*
G75*
G02*
X145925000Y-102500000I0J-250000D01*
G01*
X145925000Y-103175000D01*
G75*
G02*
X145675000Y-103425000I-250000J0D01*
G01*
G37*
G04 #@! TD.AperFunction*
G04 #@! TD*
D22*
G04 #@! TO.N,3.3V*
X142300000Y-107100000D03*
X140200000Y-102800000D03*
X175200000Y-72000000D03*
X174000000Y-65600000D03*
X153000000Y-61600000D03*
X158600000Y-65600000D03*
X184200000Y-105200000D03*
X183400000Y-83200000D03*
X179600000Y-89000000D03*
X139500000Y-76700000D03*
G04 #@! TO.N,GND*
X151100000Y-58000000D03*
X145200000Y-104600000D03*
X178000000Y-62800000D03*
X187000000Y-69800000D03*
X184000000Y-110800000D03*
X189000000Y-84000000D03*
X189600000Y-95200000D03*
X171600000Y-57500000D03*
X128600000Y-74600000D03*
X128600000Y-76700000D03*
X143000000Y-97600000D03*
G04 #@! TD*
D23*
G04 #@! TO.N,3.3V*
X184165000Y-84560000D02*
X184725000Y-84000000D01*
X184165000Y-87736200D02*
X184165000Y-84560000D01*
X184165000Y-87736200D02*
X185435000Y-87736200D01*
X180200000Y-90800000D02*
X180226801Y-90773199D01*
X180200000Y-89600000D02*
X179600000Y-89000000D01*
X180200000Y-90800000D02*
X180200000Y-89600000D01*
X184200000Y-84000000D02*
X183400000Y-83200000D01*
X184725000Y-84000000D02*
X184200000Y-84000000D01*
X181000000Y-105200000D02*
X184200000Y-105200000D01*
X175332670Y-65683577D02*
X177693487Y-68044394D01*
X175332670Y-65474979D02*
X175332670Y-65683577D01*
X177693487Y-68044394D02*
X178591512Y-67146369D01*
X156786320Y-60037500D02*
X157084960Y-60336140D01*
X153600000Y-60037500D02*
X156786320Y-60037500D01*
X157084960Y-60336140D02*
X157084960Y-59066140D01*
X153600000Y-60037500D02*
X153162500Y-60037500D01*
X153000000Y-60200000D02*
X153000000Y-61600000D01*
X153162500Y-60037500D02*
X153000000Y-60200000D01*
X159551140Y-65600000D02*
X160000000Y-65151140D01*
X158600000Y-65600000D02*
X159551140Y-65600000D01*
X175207649Y-65600000D02*
X175332670Y-65474979D01*
X174000000Y-65600000D02*
X175207649Y-65600000D01*
X176000000Y-72000000D02*
X176892893Y-72892893D01*
X175200000Y-72000000D02*
X176000000Y-72000000D01*
X130600000Y-79337500D02*
X130637500Y-79300000D01*
X130663900Y-82563900D02*
X130600000Y-82500000D01*
X130663900Y-86100000D02*
X130663900Y-82563900D01*
X140200000Y-102800000D02*
X140200000Y-100800000D01*
X145000000Y-107100000D02*
X145200000Y-107300000D01*
X142300000Y-107100000D02*
X145000000Y-107100000D01*
X130600000Y-82500000D02*
X130600000Y-79337500D01*
X130637500Y-76737500D02*
X130700000Y-76675000D01*
X130637500Y-79300000D02*
X130637500Y-76737500D01*
X133562500Y-76675000D02*
X133600000Y-76637500D01*
X130700000Y-76675000D02*
X133562500Y-76675000D01*
X137537500Y-76637500D02*
X137580000Y-76680000D01*
X133600000Y-76637500D02*
X137537500Y-76637500D01*
X139480000Y-76680000D02*
X139500000Y-76700000D01*
X137580000Y-76680000D02*
X139480000Y-76680000D01*
G04 #@! TO.N,Net-(C4-Pad1)*
X130637500Y-90726400D02*
X130663900Y-90700000D01*
X130637500Y-94000000D02*
X130637500Y-90726400D01*
X130637500Y-96900000D02*
X130637500Y-94000000D01*
X130700000Y-96962500D02*
X130637500Y-96900000D01*
X130700000Y-101400000D02*
X130700000Y-96962500D01*
X130700000Y-101400000D02*
X130700000Y-101800000D01*
X132933274Y-103633274D02*
X130700000Y-101400000D01*
X132933274Y-104033274D02*
X132933274Y-103633274D01*
G04 #@! TO.N,Net-(C12-Pad2)*
X190962510Y-81334630D02*
X184692995Y-75065115D01*
X190962510Y-108734560D02*
X190962510Y-81334630D01*
X183497070Y-116200000D02*
X190962510Y-108734560D01*
X181000000Y-116200000D02*
X183497070Y-116200000D01*
X184692996Y-75065115D02*
X187070642Y-72687469D01*
X184692995Y-75065115D02*
X184692996Y-75065115D01*
X181177826Y-71549946D02*
X184692995Y-75065115D01*
X181177826Y-71528733D02*
X181177826Y-71549946D01*
X181177826Y-71528733D02*
X182075851Y-70630708D01*
G04 #@! TO.N,Net-(C13-Pad2)*
X179821325Y-60400000D02*
X167200000Y-60400000D01*
X192400000Y-72978675D02*
X179821325Y-60400000D01*
X192400000Y-109200000D02*
X192400000Y-72978675D01*
X182600000Y-119000000D02*
X192400000Y-109200000D01*
X181000000Y-119000000D02*
X182600000Y-119000000D01*
X162012560Y-60336140D02*
X162012560Y-59066140D01*
X167136140Y-60336140D02*
X167200000Y-60400000D01*
X162012560Y-60336140D02*
X167136140Y-60336140D01*
X167200000Y-57537500D02*
X167162500Y-57500000D01*
X167200000Y-60400000D02*
X167200000Y-57537500D01*
G04 #@! TO.N,Net-(C14-Pad2)*
X185435000Y-92663800D02*
X184165000Y-92663800D01*
X184165000Y-97365000D02*
X184200000Y-97400000D01*
X184165000Y-92663800D02*
X184165000Y-97365000D01*
X184200000Y-97400000D02*
X187400000Y-97400000D01*
X187400000Y-110600000D02*
X187400000Y-97400000D01*
X184550000Y-113450000D02*
X187400000Y-110600000D01*
X181000000Y-113450000D02*
X184550000Y-113450000D01*
G04 #@! TO.N,Net-(C18-Pad1)*
X178660000Y-108290000D02*
X179000000Y-107950000D01*
X175500000Y-108290000D02*
X178660000Y-108290000D01*
X179000000Y-107950000D02*
X179000000Y-105200000D01*
X179000000Y-107950000D02*
X179000000Y-110700000D01*
G04 #@! TO.N,Net-(D1-Pad2)*
X135488154Y-113488154D02*
X136600000Y-112376308D01*
X136600000Y-107700000D02*
X135266726Y-106366726D01*
X136600000Y-112376308D02*
X136600000Y-107700000D01*
G04 #@! TO.N,PGC*
X136019599Y-96020401D02*
X137580000Y-94460000D01*
X136019599Y-102013739D02*
X136019599Y-96020401D01*
X138600000Y-109522081D02*
X138600000Y-104594140D01*
X138600000Y-104594140D02*
X136019599Y-102013739D01*
X143997919Y-114920000D02*
X138600000Y-109522081D01*
X145200000Y-114920000D02*
X143997919Y-114920000D01*
G04 #@! TO.N,PGD*
X137580000Y-101877070D02*
X139899980Y-104197050D01*
X137580000Y-97000000D02*
X137580000Y-101877070D01*
X144185860Y-112380000D02*
X145200000Y-112380000D01*
X139899981Y-108094121D02*
X144185860Y-112380000D01*
X139899980Y-104197050D02*
X139899981Y-108094121D01*
G04 #@! TO.N,MCLR*
X145162500Y-100800000D02*
X145200000Y-100762500D01*
X142200000Y-100800000D02*
X145162500Y-100800000D01*
X145200000Y-97000000D02*
X145200000Y-100762500D01*
X142200000Y-102576002D02*
X142200000Y-100800000D01*
X141099990Y-103676012D02*
X142200000Y-102576002D01*
X141099990Y-107597060D02*
X141099990Y-103676012D01*
X143342930Y-109840000D02*
X141099990Y-107597060D01*
X145200000Y-109840000D02*
X143342930Y-109840000D01*
G04 #@! TO.N,Net-(J4-Pad3)*
X178920000Y-113370000D02*
X179000000Y-113450000D01*
X175500000Y-113370000D02*
X178920000Y-113370000D01*
G04 #@! TO.N,Net-(J4-Pad2)*
X178710000Y-115910000D02*
X179000000Y-116200000D01*
X175500000Y-115910000D02*
X178710000Y-115910000D01*
G04 #@! TO.N,Net-(J4-Pad1)*
X178450000Y-118450000D02*
X179000000Y-119000000D01*
X175500000Y-118450000D02*
X178450000Y-118450000D01*
G04 #@! TO.N,BTN_RED_FLG*
X178399452Y-74307107D02*
X180279800Y-72426759D01*
X178307107Y-74307107D02*
X178399452Y-74307107D01*
X145200000Y-66520000D02*
X149325860Y-66520000D01*
X149325860Y-66520000D02*
X152005881Y-69200021D01*
X152005881Y-69200021D02*
X170200000Y-69200021D01*
X177812132Y-74802082D02*
X178307107Y-74307107D01*
X175802061Y-74802082D02*
X177812132Y-74802082D01*
X170200000Y-69200021D02*
X175802061Y-74802082D01*
G04 #@! TO.N,BTN_GRN_FLG*
X162000000Y-61618700D02*
X162012560Y-61606140D01*
X162000000Y-65151140D02*
X162000000Y-61618700D01*
X137580000Y-63980000D02*
X137580000Y-62020000D01*
X137580000Y-62020000D02*
X138000000Y-61600000D01*
X138000000Y-61600000D02*
X147800000Y-61600000D01*
X162000000Y-65851140D02*
X162000000Y-65151140D01*
X161051139Y-66800001D02*
X162000000Y-65851140D01*
X153000001Y-66800001D02*
X161051139Y-66800001D01*
X147800000Y-61600000D02*
X153000001Y-66800001D01*
G04 #@! TO.N,BTN_BLU_FLG*
X182758800Y-92800000D02*
X182895000Y-92663800D01*
X180200000Y-92800000D02*
X182758800Y-92800000D01*
X179500000Y-92800000D02*
X180200000Y-92800000D01*
X178399999Y-91699999D02*
X179500000Y-92800000D01*
X169205880Y-71600041D02*
X178399999Y-80794160D01*
X178399999Y-80794160D02*
X178399999Y-91699999D01*
X145200041Y-71600041D02*
X169205880Y-71600041D01*
X145200000Y-71600000D02*
X145200041Y-71600041D01*
G04 #@! TO.N,BTN_SW*
X146340000Y-73000000D02*
X145200000Y-74140000D01*
X168754379Y-73000000D02*
X146340000Y-73000000D01*
X177154379Y-81400000D02*
X168754379Y-73000000D01*
X177154379Y-97554379D02*
X177154379Y-81400000D01*
X180400000Y-100800000D02*
X177154379Y-97554379D01*
X185000000Y-100800000D02*
X180400000Y-100800000D01*
X185800000Y-101600000D02*
X185000000Y-100800000D01*
X185800000Y-106350000D02*
X185800000Y-101600000D01*
X184200000Y-107950000D02*
X185800000Y-106350000D01*
X181000000Y-107950000D02*
X184200000Y-107950000D01*
G04 #@! TO.N,BTN_BLU*
X182895000Y-87736200D02*
X182895000Y-85295000D01*
X145200000Y-69060000D02*
X150140000Y-69060000D01*
X150140000Y-69060000D02*
X151480031Y-70400031D01*
X151480031Y-70400031D02*
X169702940Y-70400031D01*
X169702940Y-70400031D02*
X181700000Y-82397091D01*
X181700000Y-82397091D02*
X181700000Y-84100000D01*
X182895000Y-85295000D02*
X181700000Y-84100000D01*
G04 #@! TO.N,BTN_GRN*
X155891090Y-62800010D02*
X157084960Y-61606140D01*
X152502940Y-62800010D02*
X155891090Y-62800010D01*
X150102920Y-60399990D02*
X152502940Y-62800010D01*
X136019599Y-61883331D02*
X137502940Y-60399990D01*
X136019599Y-64959599D02*
X136019599Y-61883331D01*
X137502940Y-60399990D02*
X150102920Y-60399990D01*
X137580000Y-66520000D02*
X136019599Y-64959599D01*
G04 #@! TO.N,BTN_RED*
X145200000Y-63980000D02*
X148482930Y-63980000D01*
X152502941Y-68000011D02*
X173199989Y-68000011D01*
X148482930Y-63980000D02*
X152502941Y-68000011D01*
X175853041Y-68000000D02*
X176795461Y-68942420D01*
X173200000Y-68000000D02*
X175853041Y-68000000D01*
X173199989Y-68000011D02*
X173200000Y-68000000D01*
G04 #@! TO.N,GND*
X181175000Y-110800000D02*
X181075000Y-110700000D01*
X184000000Y-110800000D02*
X181175000Y-110800000D01*
X186705000Y-84095000D02*
X186800000Y-84000000D01*
X186705000Y-87736200D02*
X186705000Y-84095000D01*
X189600000Y-97275000D02*
X189475000Y-97400000D01*
X189600000Y-95200000D02*
X189600000Y-97275000D01*
X186800000Y-84000000D02*
X189000000Y-84000000D01*
X177248928Y-64007733D02*
X179489538Y-66248343D01*
X176799916Y-64007733D02*
X177248928Y-64007733D01*
X153766360Y-57796140D02*
X157084960Y-57796140D01*
X153600000Y-57962500D02*
X153766360Y-57796140D01*
X176799916Y-64000084D02*
X178000000Y-62800000D01*
X176799916Y-64007733D02*
X176799916Y-64000084D01*
X188420223Y-71220223D02*
X187000000Y-69800000D01*
X188537888Y-71220223D02*
X188420223Y-71220223D01*
X133562500Y-74600000D02*
X133600000Y-74562500D01*
X137157500Y-74562500D02*
X137580000Y-74140000D01*
X133600000Y-74562500D02*
X137157500Y-74562500D01*
X128200000Y-97262500D02*
X128562500Y-96900000D01*
X145200000Y-102837500D02*
X145200000Y-104600000D01*
X130100000Y-108100000D02*
X128200000Y-106200000D01*
X169237500Y-57500000D02*
X171600000Y-57500000D01*
X153562500Y-58000000D02*
X153600000Y-57962500D01*
X151100000Y-58000000D02*
X153562500Y-58000000D01*
X128562500Y-76737500D02*
X128600000Y-76700000D01*
X128525000Y-79337500D02*
X128562500Y-79300000D01*
X128562500Y-89164800D02*
X129327300Y-88400000D01*
X124136100Y-88400000D02*
X130663900Y-88400000D01*
X129327300Y-88400000D02*
X128525000Y-87597700D01*
X130663900Y-88400000D02*
X129327300Y-88400000D01*
G04 #@! TO.N,Net-(J1-Pad2)*
X131896051Y-109896051D02*
X133692102Y-111692102D01*
G04 #@! TD*
D24*
G04 #@! TO.N,GND*
X143973000Y-63319081D02*
X143970502Y-63322820D01*
X143865917Y-63575310D01*
X143812600Y-63843353D01*
X143812600Y-64116647D01*
X143865917Y-64384690D01*
X143970502Y-64637180D01*
X143973000Y-64640919D01*
X143973000Y-65859081D01*
X143970502Y-65862820D01*
X143865917Y-66115310D01*
X143812600Y-66383353D01*
X143812600Y-66656647D01*
X143865917Y-66924690D01*
X143970502Y-67177180D01*
X143973000Y-67180919D01*
X143973000Y-68399081D01*
X143970502Y-68402820D01*
X143865917Y-68655310D01*
X143812600Y-68923353D01*
X143812600Y-69196647D01*
X143865917Y-69464690D01*
X143970502Y-69717180D01*
X143973000Y-69720919D01*
X143973000Y-70939081D01*
X143970502Y-70942820D01*
X143865917Y-71195310D01*
X143812600Y-71463353D01*
X143812600Y-71736647D01*
X143865917Y-72004690D01*
X143970502Y-72257180D01*
X143973000Y-72260919D01*
X143973000Y-73479081D01*
X143970502Y-73482820D01*
X143865917Y-73735310D01*
X143812600Y-74003353D01*
X143812600Y-74276647D01*
X143865917Y-74544690D01*
X143970502Y-74797180D01*
X143973000Y-74800919D01*
X143973000Y-76019081D01*
X143970502Y-76022820D01*
X143865917Y-76275310D01*
X143812600Y-76543353D01*
X143812600Y-76816647D01*
X143865917Y-77084690D01*
X143970502Y-77337180D01*
X143973000Y-77340919D01*
X143973000Y-78000000D01*
X143975440Y-78024776D01*
X143982667Y-78048601D01*
X143994403Y-78070557D01*
X144010197Y-78089803D01*
X144029443Y-78105597D01*
X144051399Y-78117333D01*
X144075224Y-78124560D01*
X144100000Y-78127000D01*
X144722293Y-78127000D01*
X144699836Y-78192334D01*
X145200000Y-78692498D01*
X145700164Y-78192334D01*
X145677707Y-78127000D01*
X146373000Y-78127000D01*
X146373000Y-78769791D01*
X146227666Y-78719836D01*
X145727502Y-79220000D01*
X146227666Y-79720164D01*
X146373000Y-79670209D01*
X146373000Y-80373000D01*
X145657084Y-80373000D01*
X145700164Y-80247666D01*
X145200000Y-79747502D01*
X144699836Y-80247666D01*
X144742916Y-80373000D01*
X144100000Y-80373000D01*
X144075224Y-80375440D01*
X144051399Y-80382667D01*
X144029443Y-80394403D01*
X144010197Y-80410197D01*
X143994403Y-80429443D01*
X143982667Y-80451399D01*
X143975440Y-80475224D01*
X143973000Y-80500000D01*
X143973000Y-81099081D01*
X143970502Y-81102820D01*
X143865917Y-81355310D01*
X143812600Y-81623353D01*
X143812600Y-81896647D01*
X143865917Y-82164690D01*
X143970502Y-82417180D01*
X143973000Y-82420919D01*
X143973000Y-83639081D01*
X143970502Y-83642820D01*
X143865917Y-83895310D01*
X143812600Y-84163353D01*
X143812600Y-84436647D01*
X143865917Y-84704690D01*
X143970502Y-84957180D01*
X143973000Y-84960919D01*
X143973000Y-86179081D01*
X143970502Y-86182820D01*
X143865917Y-86435310D01*
X143812600Y-86703353D01*
X143812600Y-86976647D01*
X143865917Y-87244690D01*
X143970502Y-87497180D01*
X143973000Y-87500919D01*
X143973000Y-88719081D01*
X143970502Y-88722820D01*
X143865917Y-88975310D01*
X143812600Y-89243353D01*
X143812600Y-89516647D01*
X143865917Y-89784690D01*
X143970502Y-90037180D01*
X143973000Y-90040919D01*
X143973000Y-91259081D01*
X143970502Y-91262820D01*
X143865917Y-91515310D01*
X143812600Y-91783353D01*
X143812600Y-92056647D01*
X143865917Y-92324690D01*
X143970502Y-92577180D01*
X143973000Y-92580919D01*
X143973000Y-93799081D01*
X143970502Y-93802820D01*
X143865917Y-94055310D01*
X143812600Y-94323353D01*
X143812600Y-94596647D01*
X143865917Y-94864690D01*
X143970502Y-95117180D01*
X143973000Y-95120919D01*
X143973000Y-95884028D01*
X143932197Y-95933747D01*
X143864690Y-96060043D01*
X143823120Y-96197083D01*
X143809083Y-96339600D01*
X143809083Y-97660400D01*
X143823120Y-97802917D01*
X143864690Y-97939957D01*
X143932197Y-98066253D01*
X143973000Y-98115972D01*
X143973000Y-98273000D01*
X138926363Y-98273000D01*
X138921805Y-97365871D01*
X138967400Y-97136647D01*
X138967400Y-96863353D01*
X138918032Y-96615164D01*
X138909294Y-94876252D01*
X138914083Y-94864690D01*
X138967400Y-94596647D01*
X138967400Y-94323353D01*
X138914083Y-94055310D01*
X138905059Y-94033524D01*
X138896683Y-92366697D01*
X138914083Y-92324690D01*
X138967400Y-92056647D01*
X138967400Y-91783353D01*
X138914083Y-91515310D01*
X138892138Y-91462331D01*
X138884072Y-89857143D01*
X138914083Y-89784690D01*
X138967400Y-89516647D01*
X138967400Y-89243353D01*
X138914083Y-88975310D01*
X138879218Y-88891138D01*
X138871461Y-87347588D01*
X138914083Y-87244690D01*
X138967400Y-86976647D01*
X138967400Y-86703353D01*
X138914083Y-86435310D01*
X138866297Y-86319945D01*
X138858850Y-84838033D01*
X138914083Y-84704690D01*
X138967400Y-84436647D01*
X138967400Y-84163353D01*
X138914083Y-83895310D01*
X138853377Y-83748752D01*
X138846239Y-82328478D01*
X138914083Y-82164690D01*
X138967400Y-81896647D01*
X138967400Y-81623353D01*
X138914083Y-81355310D01*
X138840456Y-81177559D01*
X138833629Y-79818924D01*
X138914083Y-79624690D01*
X138967400Y-79356647D01*
X138967400Y-79291568D01*
X143900301Y-79291568D01*
X143939236Y-79543751D01*
X143971847Y-79651252D01*
X144172334Y-79720164D01*
X144672498Y-79220000D01*
X144172334Y-78719836D01*
X143971847Y-78788748D01*
X143911312Y-79036634D01*
X143900301Y-79291568D01*
X138967400Y-79291568D01*
X138967400Y-79083353D01*
X138914083Y-78815310D01*
X138836082Y-78627000D01*
X141000000Y-78627000D01*
X141024776Y-78624560D01*
X141048601Y-78617333D01*
X141070557Y-78605597D01*
X141089803Y-78589803D01*
X141105597Y-78570557D01*
X141117333Y-78548601D01*
X141124560Y-78524776D01*
X141127000Y-78500000D01*
X141127000Y-74800000D01*
X141124560Y-74775224D01*
X141117333Y-74751399D01*
X141105597Y-74729443D01*
X141089803Y-74710197D01*
X141070557Y-74694403D01*
X141048601Y-74682667D01*
X141024776Y-74675440D01*
X141000000Y-74673000D01*
X138640505Y-74673000D01*
X138607668Y-74640163D01*
X138808153Y-74571252D01*
X138868688Y-74323366D01*
X138879699Y-74068432D01*
X138840764Y-73816249D01*
X138808153Y-73708748D01*
X138607666Y-73639836D01*
X138107502Y-74140000D01*
X138121644Y-74154142D01*
X137602786Y-74673000D01*
X137585498Y-74673000D01*
X137580000Y-74667502D01*
X137574502Y-74673000D01*
X137557214Y-74673000D01*
X137127000Y-74242786D01*
X137127000Y-74037214D01*
X137565858Y-73598356D01*
X137580000Y-73612498D01*
X138080164Y-73112334D01*
X138050833Y-73027000D01*
X138700000Y-73027000D01*
X138724776Y-73024560D01*
X138748601Y-73017333D01*
X138770557Y-73005597D01*
X138789803Y-72989803D01*
X138805597Y-72970557D01*
X138817333Y-72948601D01*
X138824560Y-72924776D01*
X138827000Y-72900000D01*
X138827000Y-72214927D01*
X138914083Y-72004690D01*
X138967400Y-71736647D01*
X138967400Y-71463353D01*
X138914083Y-71195310D01*
X138827000Y-70985073D01*
X138827000Y-69674927D01*
X138914083Y-69464690D01*
X138967400Y-69196647D01*
X138967400Y-68923353D01*
X138914083Y-68655310D01*
X138827000Y-68445073D01*
X138827000Y-67134927D01*
X138914083Y-66924690D01*
X138967400Y-66656647D01*
X138967400Y-66383353D01*
X138914083Y-66115310D01*
X138827000Y-65905073D01*
X138827000Y-64594927D01*
X138914083Y-64384690D01*
X138967400Y-64116647D01*
X138967400Y-63843353D01*
X138914083Y-63575310D01*
X138827000Y-63365073D01*
X138827000Y-62727000D01*
X143973000Y-62727000D01*
X143973000Y-63319081D01*
G04 #@! TA.AperFunction,Conductor*
D25*
G36*
X143973000Y-63319081D02*
G01*
X143970502Y-63322820D01*
X143865917Y-63575310D01*
X143812600Y-63843353D01*
X143812600Y-64116647D01*
X143865917Y-64384690D01*
X143970502Y-64637180D01*
X143973000Y-64640919D01*
X143973000Y-65859081D01*
X143970502Y-65862820D01*
X143865917Y-66115310D01*
X143812600Y-66383353D01*
X143812600Y-66656647D01*
X143865917Y-66924690D01*
X143970502Y-67177180D01*
X143973000Y-67180919D01*
X143973000Y-68399081D01*
X143970502Y-68402820D01*
X143865917Y-68655310D01*
X143812600Y-68923353D01*
X143812600Y-69196647D01*
X143865917Y-69464690D01*
X143970502Y-69717180D01*
X143973000Y-69720919D01*
X143973000Y-70939081D01*
X143970502Y-70942820D01*
X143865917Y-71195310D01*
X143812600Y-71463353D01*
X143812600Y-71736647D01*
X143865917Y-72004690D01*
X143970502Y-72257180D01*
X143973000Y-72260919D01*
X143973000Y-73479081D01*
X143970502Y-73482820D01*
X143865917Y-73735310D01*
X143812600Y-74003353D01*
X143812600Y-74276647D01*
X143865917Y-74544690D01*
X143970502Y-74797180D01*
X143973000Y-74800919D01*
X143973000Y-76019081D01*
X143970502Y-76022820D01*
X143865917Y-76275310D01*
X143812600Y-76543353D01*
X143812600Y-76816647D01*
X143865917Y-77084690D01*
X143970502Y-77337180D01*
X143973000Y-77340919D01*
X143973000Y-78000000D01*
X143975440Y-78024776D01*
X143982667Y-78048601D01*
X143994403Y-78070557D01*
X144010197Y-78089803D01*
X144029443Y-78105597D01*
X144051399Y-78117333D01*
X144075224Y-78124560D01*
X144100000Y-78127000D01*
X144722293Y-78127000D01*
X144699836Y-78192334D01*
X145200000Y-78692498D01*
X145700164Y-78192334D01*
X145677707Y-78127000D01*
X146373000Y-78127000D01*
X146373000Y-78769791D01*
X146227666Y-78719836D01*
X145727502Y-79220000D01*
X146227666Y-79720164D01*
X146373000Y-79670209D01*
X146373000Y-80373000D01*
X145657084Y-80373000D01*
X145700164Y-80247666D01*
X145200000Y-79747502D01*
X144699836Y-80247666D01*
X144742916Y-80373000D01*
X144100000Y-80373000D01*
X144075224Y-80375440D01*
X144051399Y-80382667D01*
X144029443Y-80394403D01*
X144010197Y-80410197D01*
X143994403Y-80429443D01*
X143982667Y-80451399D01*
X143975440Y-80475224D01*
X143973000Y-80500000D01*
X143973000Y-81099081D01*
X143970502Y-81102820D01*
X143865917Y-81355310D01*
X143812600Y-81623353D01*
X143812600Y-81896647D01*
X143865917Y-82164690D01*
X143970502Y-82417180D01*
X143973000Y-82420919D01*
X143973000Y-83639081D01*
X143970502Y-83642820D01*
X143865917Y-83895310D01*
X143812600Y-84163353D01*
X143812600Y-84436647D01*
X143865917Y-84704690D01*
X143970502Y-84957180D01*
X143973000Y-84960919D01*
X143973000Y-86179081D01*
X143970502Y-86182820D01*
X143865917Y-86435310D01*
X143812600Y-86703353D01*
X143812600Y-86976647D01*
X143865917Y-87244690D01*
X143970502Y-87497180D01*
X143973000Y-87500919D01*
X143973000Y-88719081D01*
X143970502Y-88722820D01*
X143865917Y-88975310D01*
X143812600Y-89243353D01*
X143812600Y-89516647D01*
X143865917Y-89784690D01*
X143970502Y-90037180D01*
X143973000Y-90040919D01*
X143973000Y-91259081D01*
X143970502Y-91262820D01*
X143865917Y-91515310D01*
X143812600Y-91783353D01*
X143812600Y-92056647D01*
X143865917Y-92324690D01*
X143970502Y-92577180D01*
X143973000Y-92580919D01*
X143973000Y-93799081D01*
X143970502Y-93802820D01*
X143865917Y-94055310D01*
X143812600Y-94323353D01*
X143812600Y-94596647D01*
X143865917Y-94864690D01*
X143970502Y-95117180D01*
X143973000Y-95120919D01*
X143973000Y-95884028D01*
X143932197Y-95933747D01*
X143864690Y-96060043D01*
X143823120Y-96197083D01*
X143809083Y-96339600D01*
X143809083Y-97660400D01*
X143823120Y-97802917D01*
X143864690Y-97939957D01*
X143932197Y-98066253D01*
X143973000Y-98115972D01*
X143973000Y-98273000D01*
X138926363Y-98273000D01*
X138921805Y-97365871D01*
X138967400Y-97136647D01*
X138967400Y-96863353D01*
X138918032Y-96615164D01*
X138909294Y-94876252D01*
X138914083Y-94864690D01*
X138967400Y-94596647D01*
X138967400Y-94323353D01*
X138914083Y-94055310D01*
X138905059Y-94033524D01*
X138896683Y-92366697D01*
X138914083Y-92324690D01*
X138967400Y-92056647D01*
X138967400Y-91783353D01*
X138914083Y-91515310D01*
X138892138Y-91462331D01*
X138884072Y-89857143D01*
X138914083Y-89784690D01*
X138967400Y-89516647D01*
X138967400Y-89243353D01*
X138914083Y-88975310D01*
X138879218Y-88891138D01*
X138871461Y-87347588D01*
X138914083Y-87244690D01*
X138967400Y-86976647D01*
X138967400Y-86703353D01*
X138914083Y-86435310D01*
X138866297Y-86319945D01*
X138858850Y-84838033D01*
X138914083Y-84704690D01*
X138967400Y-84436647D01*
X138967400Y-84163353D01*
X138914083Y-83895310D01*
X138853377Y-83748752D01*
X138846239Y-82328478D01*
X138914083Y-82164690D01*
X138967400Y-81896647D01*
X138967400Y-81623353D01*
X138914083Y-81355310D01*
X138840456Y-81177559D01*
X138833629Y-79818924D01*
X138914083Y-79624690D01*
X138967400Y-79356647D01*
X138967400Y-79291568D01*
X143900301Y-79291568D01*
X143939236Y-79543751D01*
X143971847Y-79651252D01*
X144172334Y-79720164D01*
X144672498Y-79220000D01*
X144172334Y-78719836D01*
X143971847Y-78788748D01*
X143911312Y-79036634D01*
X143900301Y-79291568D01*
X138967400Y-79291568D01*
X138967400Y-79083353D01*
X138914083Y-78815310D01*
X138836082Y-78627000D01*
X141000000Y-78627000D01*
X141024776Y-78624560D01*
X141048601Y-78617333D01*
X141070557Y-78605597D01*
X141089803Y-78589803D01*
X141105597Y-78570557D01*
X141117333Y-78548601D01*
X141124560Y-78524776D01*
X141127000Y-78500000D01*
X141127000Y-74800000D01*
X141124560Y-74775224D01*
X141117333Y-74751399D01*
X141105597Y-74729443D01*
X141089803Y-74710197D01*
X141070557Y-74694403D01*
X141048601Y-74682667D01*
X141024776Y-74675440D01*
X141000000Y-74673000D01*
X138640505Y-74673000D01*
X138607668Y-74640163D01*
X138808153Y-74571252D01*
X138868688Y-74323366D01*
X138879699Y-74068432D01*
X138840764Y-73816249D01*
X138808153Y-73708748D01*
X138607666Y-73639836D01*
X138107502Y-74140000D01*
X138121644Y-74154142D01*
X137602786Y-74673000D01*
X137585498Y-74673000D01*
X137580000Y-74667502D01*
X137574502Y-74673000D01*
X137557214Y-74673000D01*
X137127000Y-74242786D01*
X137127000Y-74037214D01*
X137565858Y-73598356D01*
X137580000Y-73612498D01*
X138080164Y-73112334D01*
X138050833Y-73027000D01*
X138700000Y-73027000D01*
X138724776Y-73024560D01*
X138748601Y-73017333D01*
X138770557Y-73005597D01*
X138789803Y-72989803D01*
X138805597Y-72970557D01*
X138817333Y-72948601D01*
X138824560Y-72924776D01*
X138827000Y-72900000D01*
X138827000Y-72214927D01*
X138914083Y-72004690D01*
X138967400Y-71736647D01*
X138967400Y-71463353D01*
X138914083Y-71195310D01*
X138827000Y-70985073D01*
X138827000Y-69674927D01*
X138914083Y-69464690D01*
X138967400Y-69196647D01*
X138967400Y-68923353D01*
X138914083Y-68655310D01*
X138827000Y-68445073D01*
X138827000Y-67134927D01*
X138914083Y-66924690D01*
X138967400Y-66656647D01*
X138967400Y-66383353D01*
X138914083Y-66115310D01*
X138827000Y-65905073D01*
X138827000Y-64594927D01*
X138914083Y-64384690D01*
X138967400Y-64116647D01*
X138967400Y-63843353D01*
X138914083Y-63575310D01*
X138827000Y-63365073D01*
X138827000Y-62727000D01*
X143973000Y-62727000D01*
X143973000Y-63319081D01*
G37*
G04 #@! TD.AperFunction*
G04 #@! TD*
D24*
G04 #@! TO.N,GND*
X177875711Y-104155317D02*
X177834730Y-104205253D01*
X177744120Y-104374772D01*
X177688323Y-104558710D01*
X177669483Y-104749999D01*
X177669483Y-105650001D01*
X177688323Y-105841290D01*
X177744120Y-106025228D01*
X177834730Y-106194747D01*
X177956669Y-106343331D01*
X177973000Y-106356733D01*
X177973000Y-106793266D01*
X177956669Y-106806669D01*
X177834730Y-106955253D01*
X177744120Y-107124772D01*
X177702189Y-107263000D01*
X176049459Y-107263000D01*
X175829401Y-107182085D01*
X175696068Y-107263000D01*
X175449549Y-107263000D01*
X175324265Y-107275339D01*
X175170599Y-107182085D01*
X174929570Y-107270711D01*
X174710463Y-107404656D01*
X174521697Y-107578773D01*
X174370527Y-107786371D01*
X174262762Y-108019472D01*
X174232090Y-108120600D01*
X174355776Y-108323000D01*
X174471281Y-108323000D01*
X174487860Y-108491327D01*
X174513849Y-108577000D01*
X174355776Y-108577000D01*
X174232090Y-108779400D01*
X174262762Y-108880528D01*
X174370527Y-109113629D01*
X174521697Y-109321227D01*
X174586381Y-109380891D01*
X174410995Y-109556277D01*
X174257563Y-109785904D01*
X174151878Y-110041052D01*
X174098000Y-110311915D01*
X174098000Y-110588085D01*
X174151878Y-110858948D01*
X174257563Y-111114096D01*
X174410995Y-111343723D01*
X174586381Y-111519109D01*
X174521697Y-111578773D01*
X174370527Y-111786371D01*
X174262762Y-112019472D01*
X174232090Y-112120600D01*
X174355776Y-112323000D01*
X175373000Y-112323000D01*
X175373000Y-112303000D01*
X175627000Y-112303000D01*
X175627000Y-112323000D01*
X175647000Y-112323000D01*
X175647000Y-112343000D01*
X175449549Y-112343000D01*
X175298673Y-112357860D01*
X175105083Y-112416585D01*
X174926669Y-112511949D01*
X174847404Y-112577000D01*
X174355776Y-112577000D01*
X174232090Y-112779400D01*
X174262762Y-112880528D01*
X174370527Y-113113629D01*
X174478656Y-113262120D01*
X174468031Y-113370000D01*
X174479619Y-113487653D01*
X174410995Y-113556277D01*
X174257563Y-113785904D01*
X174151878Y-114041052D01*
X174098000Y-114311915D01*
X174098000Y-114588085D01*
X174151878Y-114858948D01*
X174257563Y-115114096D01*
X174410995Y-115343723D01*
X174517272Y-115450000D01*
X174410995Y-115556277D01*
X174257563Y-115785904D01*
X174151878Y-116041052D01*
X174098000Y-116311915D01*
X174098000Y-116588085D01*
X174151878Y-116858948D01*
X174257563Y-117114096D01*
X174337876Y-117234293D01*
X174308446Y-117258446D01*
X174217597Y-117369147D01*
X174150090Y-117495443D01*
X174108520Y-117632483D01*
X174094483Y-117775000D01*
X174094483Y-119125000D01*
X174108520Y-119267517D01*
X174150090Y-119404557D01*
X174217597Y-119530853D01*
X174308446Y-119641554D01*
X174419147Y-119732403D01*
X174545443Y-119799910D01*
X174682483Y-119841480D01*
X174825000Y-119855517D01*
X176175000Y-119855517D01*
X176317517Y-119841480D01*
X176454557Y-119799910D01*
X176580853Y-119732403D01*
X176691554Y-119641554D01*
X176782403Y-119530853D01*
X176811188Y-119477000D01*
X177672142Y-119477000D01*
X177688323Y-119641290D01*
X177744120Y-119825228D01*
X177834730Y-119994747D01*
X177956669Y-120143331D01*
X178105253Y-120265270D01*
X178274772Y-120355880D01*
X178458710Y-120411677D01*
X178649999Y-120430517D01*
X179350001Y-120430517D01*
X179541290Y-120411677D01*
X179725228Y-120355880D01*
X179894747Y-120265270D01*
X180000000Y-120178892D01*
X180105253Y-120265270D01*
X180274772Y-120355880D01*
X180458710Y-120411677D01*
X180649999Y-120430517D01*
X181350001Y-120430517D01*
X181541290Y-120411677D01*
X181725228Y-120355880D01*
X181894747Y-120265270D01*
X182043331Y-120143331D01*
X182138801Y-120027000D01*
X182549559Y-120027000D01*
X182600000Y-120031968D01*
X182650441Y-120027000D01*
X182650451Y-120027000D01*
X182801327Y-120012140D01*
X182994917Y-119953415D01*
X183173331Y-119858051D01*
X183329712Y-119729712D01*
X183361877Y-119690519D01*
X192840843Y-110211554D01*
X191396775Y-112425791D01*
X189802966Y-114442955D01*
X187209098Y-117311174D01*
X185316209Y-119104438D01*
X183472903Y-120599010D01*
X181529584Y-121994214D01*
X179161938Y-123452185D01*
X176595282Y-124810270D01*
X174551501Y-125682616D01*
X173227000Y-126212416D01*
X173227000Y-104252606D01*
X174152606Y-103327000D01*
X177047394Y-103327000D01*
X177875711Y-104155317D01*
G04 #@! TA.AperFunction,Conductor*
D25*
G36*
X177875711Y-104155317D02*
G01*
X177834730Y-104205253D01*
X177744120Y-104374772D01*
X177688323Y-104558710D01*
X177669483Y-104749999D01*
X177669483Y-105650001D01*
X177688323Y-105841290D01*
X177744120Y-106025228D01*
X177834730Y-106194747D01*
X177956669Y-106343331D01*
X177973000Y-106356733D01*
X177973000Y-106793266D01*
X177956669Y-106806669D01*
X177834730Y-106955253D01*
X177744120Y-107124772D01*
X177702189Y-107263000D01*
X176049459Y-107263000D01*
X175829401Y-107182085D01*
X175696068Y-107263000D01*
X175449549Y-107263000D01*
X175324265Y-107275339D01*
X175170599Y-107182085D01*
X174929570Y-107270711D01*
X174710463Y-107404656D01*
X174521697Y-107578773D01*
X174370527Y-107786371D01*
X174262762Y-108019472D01*
X174232090Y-108120600D01*
X174355776Y-108323000D01*
X174471281Y-108323000D01*
X174487860Y-108491327D01*
X174513849Y-108577000D01*
X174355776Y-108577000D01*
X174232090Y-108779400D01*
X174262762Y-108880528D01*
X174370527Y-109113629D01*
X174521697Y-109321227D01*
X174586381Y-109380891D01*
X174410995Y-109556277D01*
X174257563Y-109785904D01*
X174151878Y-110041052D01*
X174098000Y-110311915D01*
X174098000Y-110588085D01*
X174151878Y-110858948D01*
X174257563Y-111114096D01*
X174410995Y-111343723D01*
X174586381Y-111519109D01*
X174521697Y-111578773D01*
X174370527Y-111786371D01*
X174262762Y-112019472D01*
X174232090Y-112120600D01*
X174355776Y-112323000D01*
X175373000Y-112323000D01*
X175373000Y-112303000D01*
X175627000Y-112303000D01*
X175627000Y-112323000D01*
X175647000Y-112323000D01*
X175647000Y-112343000D01*
X175449549Y-112343000D01*
X175298673Y-112357860D01*
X175105083Y-112416585D01*
X174926669Y-112511949D01*
X174847404Y-112577000D01*
X174355776Y-112577000D01*
X174232090Y-112779400D01*
X174262762Y-112880528D01*
X174370527Y-113113629D01*
X174478656Y-113262120D01*
X174468031Y-113370000D01*
X174479619Y-113487653D01*
X174410995Y-113556277D01*
X174257563Y-113785904D01*
X174151878Y-114041052D01*
X174098000Y-114311915D01*
X174098000Y-114588085D01*
X174151878Y-114858948D01*
X174257563Y-115114096D01*
X174410995Y-115343723D01*
X174517272Y-115450000D01*
X174410995Y-115556277D01*
X174257563Y-115785904D01*
X174151878Y-116041052D01*
X174098000Y-116311915D01*
X174098000Y-116588085D01*
X174151878Y-116858948D01*
X174257563Y-117114096D01*
X174337876Y-117234293D01*
X174308446Y-117258446D01*
X174217597Y-117369147D01*
X174150090Y-117495443D01*
X174108520Y-117632483D01*
X174094483Y-117775000D01*
X174094483Y-119125000D01*
X174108520Y-119267517D01*
X174150090Y-119404557D01*
X174217597Y-119530853D01*
X174308446Y-119641554D01*
X174419147Y-119732403D01*
X174545443Y-119799910D01*
X174682483Y-119841480D01*
X174825000Y-119855517D01*
X176175000Y-119855517D01*
X176317517Y-119841480D01*
X176454557Y-119799910D01*
X176580853Y-119732403D01*
X176691554Y-119641554D01*
X176782403Y-119530853D01*
X176811188Y-119477000D01*
X177672142Y-119477000D01*
X177688323Y-119641290D01*
X177744120Y-119825228D01*
X177834730Y-119994747D01*
X177956669Y-120143331D01*
X178105253Y-120265270D01*
X178274772Y-120355880D01*
X178458710Y-120411677D01*
X178649999Y-120430517D01*
X179350001Y-120430517D01*
X179541290Y-120411677D01*
X179725228Y-120355880D01*
X179894747Y-120265270D01*
X180000000Y-120178892D01*
X180105253Y-120265270D01*
X180274772Y-120355880D01*
X180458710Y-120411677D01*
X180649999Y-120430517D01*
X181350001Y-120430517D01*
X181541290Y-120411677D01*
X181725228Y-120355880D01*
X181894747Y-120265270D01*
X182043331Y-120143331D01*
X182138801Y-120027000D01*
X182549559Y-120027000D01*
X182600000Y-120031968D01*
X182650441Y-120027000D01*
X182650451Y-120027000D01*
X182801327Y-120012140D01*
X182994917Y-119953415D01*
X183173331Y-119858051D01*
X183329712Y-119729712D01*
X183361877Y-119690519D01*
X192840843Y-110211554D01*
X191396775Y-112425791D01*
X189802966Y-114442955D01*
X187209098Y-117311174D01*
X185316209Y-119104438D01*
X183472903Y-120599010D01*
X181529584Y-121994214D01*
X179161938Y-123452185D01*
X176595282Y-124810270D01*
X174551501Y-125682616D01*
X173227000Y-126212416D01*
X173227000Y-104252606D01*
X174152606Y-103327000D01*
X177047394Y-103327000D01*
X177875711Y-104155317D01*
G37*
G04 #@! TD.AperFunction*
D24*
X179436692Y-56710122D02*
X180931299Y-57606886D01*
X182524720Y-58702363D01*
X183920720Y-59799220D01*
X185516326Y-61095650D01*
X187210058Y-62689751D01*
X188705407Y-64284790D01*
X190500599Y-66379180D01*
X192194033Y-68670296D01*
X193788436Y-71360852D01*
X194984739Y-73753458D01*
X196181186Y-76545167D01*
X196977976Y-78935538D01*
X197675790Y-81726795D01*
X198273949Y-85016669D01*
X198473294Y-87408803D01*
X198573000Y-89203517D01*
X198573000Y-91197243D01*
X198473392Y-93488227D01*
X198074613Y-96279680D01*
X197675930Y-98472437D01*
X197177921Y-100364872D01*
X196679500Y-101959820D01*
X195582920Y-105050180D01*
X194487559Y-107240901D01*
X193428137Y-109161104D01*
X193427000Y-109149559D01*
X193427000Y-73029118D01*
X193431968Y-72978675D01*
X193427000Y-72928231D01*
X193427000Y-72928224D01*
X193412140Y-72777348D01*
X193411159Y-72774112D01*
X193382551Y-72679806D01*
X193353415Y-72583758D01*
X193258051Y-72405344D01*
X193196015Y-72329753D01*
X193161873Y-72288150D01*
X193161868Y-72288145D01*
X193129712Y-72248963D01*
X193090530Y-72216807D01*
X180583202Y-59709481D01*
X180551037Y-59670288D01*
X180394656Y-59541949D01*
X180216242Y-59446585D01*
X180022652Y-59387860D01*
X179871776Y-59373000D01*
X179871766Y-59373000D01*
X179821325Y-59368032D01*
X179770884Y-59373000D01*
X168690853Y-59373000D01*
X168674910Y-59320443D01*
X168607403Y-59194147D01*
X168516554Y-59083446D01*
X168405853Y-58992597D01*
X168279557Y-58925090D01*
X168227000Y-58909147D01*
X168227000Y-58699316D01*
X168295506Y-58755537D01*
X168405820Y-58814502D01*
X168525518Y-58850812D01*
X168650000Y-58863072D01*
X168951750Y-58860000D01*
X169110500Y-58701250D01*
X169110500Y-57627000D01*
X169364500Y-57627000D01*
X169364500Y-58701250D01*
X169523250Y-58860000D01*
X169825000Y-58863072D01*
X169949482Y-58850812D01*
X170069180Y-58814502D01*
X170179494Y-58755537D01*
X170276185Y-58676185D01*
X170355537Y-58579494D01*
X170414502Y-58469180D01*
X170450812Y-58349482D01*
X170463072Y-58225000D01*
X170460000Y-57785750D01*
X170301250Y-57627000D01*
X169364500Y-57627000D01*
X169110500Y-57627000D01*
X169090500Y-57627000D01*
X169090500Y-57373000D01*
X169110500Y-57373000D01*
X169110500Y-56298750D01*
X169364500Y-56298750D01*
X169364500Y-57373000D01*
X170301250Y-57373000D01*
X170460000Y-57214250D01*
X170463072Y-56775000D01*
X170450812Y-56650518D01*
X170414502Y-56530820D01*
X170355537Y-56420506D01*
X170276185Y-56323815D01*
X170179494Y-56244463D01*
X170069180Y-56185498D01*
X169949482Y-56149188D01*
X169825000Y-56136928D01*
X169523250Y-56140000D01*
X169364500Y-56298750D01*
X169110500Y-56298750D01*
X168951750Y-56140000D01*
X168650000Y-56136928D01*
X168525518Y-56149188D01*
X168405820Y-56185498D01*
X168295506Y-56244463D01*
X168198815Y-56323815D01*
X168192756Y-56331199D01*
X168044746Y-56209730D01*
X167875228Y-56119120D01*
X167691289Y-56063323D01*
X167500000Y-56044483D01*
X166825000Y-56044483D01*
X166633711Y-56063323D01*
X166449772Y-56119120D01*
X166280254Y-56209730D01*
X166131670Y-56331670D01*
X166009730Y-56480254D01*
X165919120Y-56649772D01*
X165863323Y-56833711D01*
X165844483Y-57025000D01*
X165844483Y-57975000D01*
X165863323Y-58166289D01*
X165919120Y-58350228D01*
X166009730Y-58519746D01*
X166131670Y-58668330D01*
X166173001Y-58702249D01*
X166173001Y-58909147D01*
X166120443Y-58925090D01*
X165994147Y-58992597D01*
X165883446Y-59083446D01*
X165792597Y-59194147D01*
X165731132Y-59309140D01*
X163733677Y-59309140D01*
X163733677Y-58786740D01*
X163719640Y-58644223D01*
X163678070Y-58507183D01*
X163637424Y-58431140D01*
X163678070Y-58355097D01*
X163719640Y-58218057D01*
X163733677Y-58075540D01*
X163733677Y-57516740D01*
X163719640Y-57374223D01*
X163678070Y-57237183D01*
X163610563Y-57110887D01*
X163519714Y-57000186D01*
X163409013Y-56909337D01*
X163282717Y-56841830D01*
X163145677Y-56800260D01*
X163003160Y-56786223D01*
X161021960Y-56786223D01*
X160879443Y-56800260D01*
X160742403Y-56841830D01*
X160616107Y-56909337D01*
X160505406Y-57000186D01*
X160414557Y-57110887D01*
X160347050Y-57237183D01*
X160305480Y-57374223D01*
X160291443Y-57516740D01*
X160291443Y-58075540D01*
X160305480Y-58218057D01*
X160347050Y-58355097D01*
X160387696Y-58431140D01*
X160347050Y-58507183D01*
X160305480Y-58644223D01*
X160291443Y-58786740D01*
X160291443Y-59345540D01*
X160305480Y-59488057D01*
X160347050Y-59625097D01*
X160387696Y-59701140D01*
X160347050Y-59777183D01*
X160305480Y-59914223D01*
X160291443Y-60056740D01*
X160291443Y-60615540D01*
X160305480Y-60758057D01*
X160347050Y-60895097D01*
X160387696Y-60971140D01*
X160347050Y-61047183D01*
X160305480Y-61184223D01*
X160291443Y-61326740D01*
X160291443Y-61885540D01*
X160305480Y-62028057D01*
X160347050Y-62165097D01*
X160414557Y-62291393D01*
X160505406Y-62402094D01*
X160616107Y-62492943D01*
X160742403Y-62560450D01*
X160879443Y-62602020D01*
X160973001Y-62611235D01*
X160973000Y-63473000D01*
X156670496Y-63473000D01*
X157527440Y-62616057D01*
X158075560Y-62616057D01*
X158218077Y-62602020D01*
X158355117Y-62560450D01*
X158481413Y-62492943D01*
X158592114Y-62402094D01*
X158682963Y-62291393D01*
X158750470Y-62165097D01*
X158792040Y-62028057D01*
X158806077Y-61885540D01*
X158806077Y-61326740D01*
X158792040Y-61184223D01*
X158750470Y-61047183D01*
X158709824Y-60971140D01*
X158750470Y-60895097D01*
X158792040Y-60758057D01*
X158806077Y-60615540D01*
X158806077Y-60056740D01*
X158792040Y-59914223D01*
X158750470Y-59777183D01*
X158709824Y-59701140D01*
X158750470Y-59625097D01*
X158792040Y-59488057D01*
X158806077Y-59345540D01*
X158806077Y-58786740D01*
X158792040Y-58644223D01*
X158750470Y-58507183D01*
X158682963Y-58380887D01*
X158652383Y-58343625D01*
X158664467Y-58321150D01*
X158701068Y-58201540D01*
X158710560Y-58081890D01*
X158551810Y-57923140D01*
X157211960Y-57923140D01*
X157211960Y-57943140D01*
X156957960Y-57943140D01*
X156957960Y-57923140D01*
X155618110Y-57923140D01*
X155459360Y-58081890D01*
X155468852Y-58201540D01*
X155505453Y-58321150D01*
X155517537Y-58343625D01*
X155486957Y-58380887D01*
X155419450Y-58507183D01*
X155377880Y-58644223D01*
X155363843Y-58786740D01*
X155363843Y-59010500D01*
X154771473Y-59010500D01*
X154768801Y-59007244D01*
X154776185Y-59001185D01*
X154855537Y-58904494D01*
X154914502Y-58794180D01*
X154950812Y-58674482D01*
X154963072Y-58550000D01*
X154960000Y-58248250D01*
X154801250Y-58089500D01*
X153727000Y-58089500D01*
X153727000Y-58109500D01*
X153473000Y-58109500D01*
X153473000Y-58089500D01*
X152398750Y-58089500D01*
X152240000Y-58248250D01*
X152236928Y-58550000D01*
X152249188Y-58674482D01*
X152285498Y-58794180D01*
X152344463Y-58904494D01*
X152423815Y-59001185D01*
X152431199Y-59007244D01*
X152309730Y-59155254D01*
X152219120Y-59324772D01*
X152204490Y-59373000D01*
X150153473Y-59373000D01*
X150153371Y-59372990D01*
X150153361Y-59372990D01*
X150102920Y-59368022D01*
X150052479Y-59372990D01*
X137553381Y-59372990D01*
X137502940Y-59368022D01*
X137452499Y-59372990D01*
X137452489Y-59372990D01*
X137301613Y-59387850D01*
X137108023Y-59446575D01*
X136929609Y-59541939D01*
X136773228Y-59670278D01*
X136741068Y-59709466D01*
X135329075Y-61121459D01*
X135289888Y-61153619D01*
X135257728Y-61192806D01*
X135257727Y-61192807D01*
X135161549Y-61310000D01*
X135066185Y-61488414D01*
X135007460Y-61682004D01*
X134987631Y-61883331D01*
X134992600Y-61933782D01*
X134992599Y-64909158D01*
X134987631Y-64959599D01*
X134992599Y-65010040D01*
X134992599Y-65010049D01*
X135007459Y-65160925D01*
X135066184Y-65354515D01*
X135161548Y-65532930D01*
X135289887Y-65689311D01*
X135329080Y-65721476D01*
X135673000Y-66065396D01*
X135673000Y-75610500D01*
X134771473Y-75610500D01*
X134768801Y-75607244D01*
X134776185Y-75601185D01*
X134855537Y-75504494D01*
X134914502Y-75394180D01*
X134950812Y-75274482D01*
X134963072Y-75150000D01*
X134960000Y-74848250D01*
X134801250Y-74689500D01*
X133727000Y-74689500D01*
X133727000Y-74709500D01*
X133473000Y-74709500D01*
X133473000Y-74689500D01*
X132398750Y-74689500D01*
X132240000Y-74848250D01*
X132236928Y-75150000D01*
X132249188Y-75274482D01*
X132285498Y-75394180D01*
X132344463Y-75504494D01*
X132423815Y-75601185D01*
X132431199Y-75607244D01*
X132397751Y-75648000D01*
X131871473Y-75648000D01*
X131868801Y-75644744D01*
X131876185Y-75638685D01*
X131955537Y-75541994D01*
X132014502Y-75431680D01*
X132050812Y-75311982D01*
X132063072Y-75187500D01*
X132060000Y-74885750D01*
X131901250Y-74727000D01*
X130827000Y-74727000D01*
X130827000Y-74747000D01*
X130573000Y-74747000D01*
X130573000Y-74727000D01*
X129498750Y-74727000D01*
X129340000Y-74885750D01*
X129336928Y-75187500D01*
X129349188Y-75311982D01*
X129385498Y-75431680D01*
X129444463Y-75541994D01*
X129523815Y-75638685D01*
X129531199Y-75644744D01*
X129409730Y-75792754D01*
X129319120Y-75962272D01*
X129263323Y-76146211D01*
X129244483Y-76337500D01*
X129244483Y-77012500D01*
X129263323Y-77203789D01*
X129319120Y-77387728D01*
X129409730Y-77557246D01*
X129531670Y-77705830D01*
X129610501Y-77770525D01*
X129610500Y-78128526D01*
X129607244Y-78131199D01*
X129601185Y-78123815D01*
X129504494Y-78044463D01*
X129394180Y-77985498D01*
X129274482Y-77949188D01*
X129150000Y-77936928D01*
X128848250Y-77940000D01*
X128689500Y-78098750D01*
X128689500Y-79173000D01*
X128709500Y-79173000D01*
X128709500Y-79427000D01*
X128689500Y-79427000D01*
X128689500Y-80501250D01*
X128848250Y-80660000D01*
X129150000Y-80663072D01*
X129274482Y-80650812D01*
X129394180Y-80614502D01*
X129504494Y-80555537D01*
X129573001Y-80499315D01*
X129573000Y-81328526D01*
X129569744Y-81331199D01*
X129563685Y-81323815D01*
X129466994Y-81244463D01*
X129356680Y-81185498D01*
X129236982Y-81149188D01*
X129112500Y-81136928D01*
X128810750Y-81140000D01*
X128652000Y-81298750D01*
X128652000Y-82373000D01*
X128672000Y-82373000D01*
X128672000Y-82627000D01*
X128652000Y-82627000D01*
X128652000Y-83701250D01*
X128810750Y-83860000D01*
X129112500Y-83863072D01*
X129236982Y-83850812D01*
X129356680Y-83814502D01*
X129466994Y-83755537D01*
X129563685Y-83676185D01*
X129569744Y-83668801D01*
X129636901Y-83723915D01*
X129636900Y-84973686D01*
X129521447Y-85035397D01*
X129410746Y-85126246D01*
X129319897Y-85236947D01*
X129252390Y-85363243D01*
X129210820Y-85500283D01*
X129196783Y-85642800D01*
X129196783Y-86557200D01*
X129210820Y-86699717D01*
X129252390Y-86836757D01*
X129319897Y-86963053D01*
X129410746Y-87073754D01*
X129521447Y-87164603D01*
X129647743Y-87232110D01*
X129784783Y-87273680D01*
X129927300Y-87287717D01*
X131400500Y-87287717D01*
X131543017Y-87273680D01*
X131680057Y-87232110D01*
X131806353Y-87164603D01*
X131917054Y-87073754D01*
X132007903Y-86963053D01*
X132075410Y-86836757D01*
X132116980Y-86699717D01*
X132131017Y-86557200D01*
X132131017Y-85642800D01*
X132116980Y-85500283D01*
X132075410Y-85363243D01*
X132007903Y-85236947D01*
X131917054Y-85126246D01*
X131806353Y-85035397D01*
X131690900Y-84973686D01*
X131690900Y-83595135D01*
X131752770Y-83519746D01*
X131843380Y-83350228D01*
X131899177Y-83166289D01*
X131918017Y-82975000D01*
X131918017Y-82025000D01*
X131899177Y-81833711D01*
X131843380Y-81649772D01*
X131752770Y-81480254D01*
X131630830Y-81331670D01*
X131627000Y-81328527D01*
X131627000Y-80502249D01*
X131668330Y-80468330D01*
X131790270Y-80319746D01*
X131880880Y-80150228D01*
X131936677Y-79966289D01*
X131955517Y-79775000D01*
X131955517Y-78825000D01*
X131936677Y-78633711D01*
X131880880Y-78449772D01*
X131790270Y-78280254D01*
X131668330Y-78131670D01*
X131664500Y-78128527D01*
X131664500Y-77857300D01*
X131719746Y-77827770D01*
X131868330Y-77705830D01*
X131871473Y-77702000D01*
X132472697Y-77702000D01*
X132580254Y-77790270D01*
X132749772Y-77880880D01*
X132933711Y-77936677D01*
X133125000Y-77955517D01*
X134075000Y-77955517D01*
X134266289Y-77936677D01*
X134450228Y-77880880D01*
X134619746Y-77790270D01*
X134768330Y-77668330D01*
X134771473Y-77664500D01*
X135673000Y-77664500D01*
X135673000Y-94914604D01*
X135329075Y-95258529D01*
X135289888Y-95290689D01*
X135257728Y-95329876D01*
X135257727Y-95329877D01*
X135161549Y-95447070D01*
X135066185Y-95625484D01*
X135007460Y-95819074D01*
X134987631Y-96020401D01*
X134992600Y-96070852D01*
X134992599Y-101963298D01*
X134987631Y-102013739D01*
X134992599Y-102064180D01*
X134992599Y-102064189D01*
X135007459Y-102215065D01*
X135066184Y-102408655D01*
X135161548Y-102587070D01*
X135289887Y-102743451D01*
X135329080Y-102775616D01*
X137573001Y-105019538D01*
X137573000Y-107369647D01*
X137553415Y-107305083D01*
X137458051Y-107126669D01*
X137329712Y-106970288D01*
X137290524Y-106938128D01*
X136728349Y-106375953D01*
X136739705Y-106260660D01*
X136725668Y-106118143D01*
X136684098Y-105981103D01*
X136616591Y-105854807D01*
X136525742Y-105744106D01*
X135889346Y-105107710D01*
X135778645Y-105016861D01*
X135652349Y-104949354D01*
X135515309Y-104907784D01*
X135372792Y-104893747D01*
X135230275Y-104907784D01*
X135093235Y-104949354D01*
X134966939Y-105016861D01*
X134856238Y-105107710D01*
X134007710Y-105956238D01*
X133916861Y-106066939D01*
X133849354Y-106193235D01*
X133807784Y-106330275D01*
X133793747Y-106472792D01*
X133807784Y-106615309D01*
X133849354Y-106752349D01*
X133916861Y-106878645D01*
X134007710Y-106989346D01*
X134644106Y-107625742D01*
X134754807Y-107716591D01*
X134881103Y-107784098D01*
X135018143Y-107825668D01*
X135160660Y-107839705D01*
X135275953Y-107828349D01*
X135573001Y-108125398D01*
X135573000Y-111911154D01*
X135332833Y-111911154D01*
X135253277Y-111926979D01*
X135269102Y-111847423D01*
X135269102Y-111536781D01*
X135208498Y-111232108D01*
X135089621Y-110945113D01*
X134917038Y-110686823D01*
X134697381Y-110467166D01*
X134439091Y-110294583D01*
X134152096Y-110175706D01*
X133847423Y-110115102D01*
X133567499Y-110115102D01*
X133473051Y-110020654D01*
X133473051Y-109740730D01*
X133412447Y-109436057D01*
X133293570Y-109149062D01*
X133120987Y-108890772D01*
X132901330Y-108671115D01*
X132643040Y-108498532D01*
X132356045Y-108379655D01*
X132051372Y-108319051D01*
X131899207Y-108319051D01*
X131927893Y-108224481D01*
X131940153Y-108100000D01*
X131927893Y-107975519D01*
X131891584Y-107855820D01*
X131832620Y-107745506D01*
X131753267Y-107648815D01*
X131352109Y-107252002D01*
X131127603Y-107252002D01*
X130279605Y-108100000D01*
X130293748Y-108114143D01*
X130114143Y-108293748D01*
X130100000Y-108279605D01*
X129252002Y-109127603D01*
X129252002Y-109352109D01*
X129648815Y-109753267D01*
X129745506Y-109832620D01*
X129855820Y-109891584D01*
X129975519Y-109927893D01*
X130100000Y-109940153D01*
X130224481Y-109927893D01*
X130319051Y-109899207D01*
X130319051Y-110051372D01*
X130379655Y-110356045D01*
X130498532Y-110643040D01*
X130671115Y-110901330D01*
X130890772Y-111120987D01*
X131149062Y-111293570D01*
X131436057Y-111412447D01*
X131740730Y-111473051D01*
X132020654Y-111473051D01*
X132115102Y-111567499D01*
X132115102Y-111847423D01*
X132175706Y-112152096D01*
X132294583Y-112439091D01*
X132467166Y-112697381D01*
X132686823Y-112917038D01*
X132945113Y-113089621D01*
X133232108Y-113208498D01*
X133536781Y-113269102D01*
X133847423Y-113269102D01*
X133926979Y-113253277D01*
X133911154Y-113332833D01*
X133911154Y-113643475D01*
X133971758Y-113948148D01*
X134090635Y-114235143D01*
X134263218Y-114493433D01*
X134482875Y-114713090D01*
X134741165Y-114885673D01*
X135028160Y-115004550D01*
X135332833Y-115065154D01*
X135643475Y-115065154D01*
X135948148Y-115004550D01*
X136235143Y-114885673D01*
X136493433Y-114713090D01*
X136713090Y-114493433D01*
X136885673Y-114235143D01*
X137004550Y-113948148D01*
X137065154Y-113643475D01*
X137065154Y-113363551D01*
X137290530Y-113138176D01*
X137329712Y-113106020D01*
X137361868Y-113066838D01*
X137361873Y-113066833D01*
X137452996Y-112955798D01*
X137458051Y-112949639D01*
X137553415Y-112771225D01*
X137612140Y-112577635D01*
X137627000Y-112426759D01*
X137627000Y-112426752D01*
X137631968Y-112376308D01*
X137627000Y-112325865D01*
X137627000Y-109852434D01*
X137646585Y-109916997D01*
X137741949Y-110095412D01*
X137870288Y-110251793D01*
X137909481Y-110283958D01*
X143173000Y-115547478D01*
X143173000Y-116300000D01*
X143175440Y-116324776D01*
X143182667Y-116348601D01*
X143194403Y-116370557D01*
X143210197Y-116389803D01*
X143229443Y-116405597D01*
X143251399Y-116417333D01*
X143275224Y-116424560D01*
X143300000Y-116427000D01*
X144544036Y-116427000D01*
X144629570Y-116479289D01*
X144870599Y-116567915D01*
X145073000Y-116445085D01*
X145073000Y-116427000D01*
X145327000Y-116427000D01*
X145327000Y-116445085D01*
X145529401Y-116567915D01*
X145770430Y-116479289D01*
X145855964Y-116427000D01*
X147073000Y-116427000D01*
X147073000Y-126195996D01*
X146242805Y-125905427D01*
X145496909Y-125631932D01*
X144453458Y-125184739D01*
X141860599Y-123888309D01*
X140500452Y-123090696D01*
X139169349Y-122293499D01*
X137475889Y-121098116D01*
X136078911Y-120000490D01*
X134583232Y-118803947D01*
X132989751Y-117310058D01*
X131393884Y-115614450D01*
X129900472Y-113921916D01*
X128405276Y-111728962D01*
X127008797Y-109634244D01*
X126171937Y-108100000D01*
X128259847Y-108100000D01*
X128272107Y-108224481D01*
X128308416Y-108344180D01*
X128367380Y-108454494D01*
X128446733Y-108551185D01*
X128847891Y-108947998D01*
X129072397Y-108947998D01*
X129920395Y-108100000D01*
X129072397Y-107252002D01*
X128847891Y-107252002D01*
X128446733Y-107648815D01*
X128367380Y-107745506D01*
X128308416Y-107855820D01*
X128272107Y-107975519D01*
X128259847Y-108100000D01*
X126171937Y-108100000D01*
X125813396Y-107442676D01*
X125535830Y-106847891D01*
X129252002Y-106847891D01*
X129252002Y-107072397D01*
X130100000Y-107920395D01*
X130947998Y-107072397D01*
X130947998Y-106847891D01*
X130551185Y-106446733D01*
X130454494Y-106367380D01*
X130344180Y-106308416D01*
X130224481Y-106272107D01*
X130100000Y-106259847D01*
X129975519Y-106272107D01*
X129855820Y-106308416D01*
X129745506Y-106367380D01*
X129648815Y-106446733D01*
X129252002Y-106847891D01*
X125535830Y-106847891D01*
X125115239Y-105946624D01*
X124517047Y-104650542D01*
X124019573Y-103357108D01*
X123520483Y-101859839D01*
X123519800Y-101857846D01*
X123383511Y-101470512D01*
X126759783Y-101470512D01*
X126801213Y-101750130D01*
X126896397Y-102016292D01*
X126963329Y-102141514D01*
X127207298Y-102213097D01*
X128020395Y-101400000D01*
X127207298Y-100586903D01*
X126963329Y-100658486D01*
X126842429Y-100913996D01*
X126773700Y-101188184D01*
X126759783Y-101470512D01*
X123383511Y-101470512D01*
X123009402Y-100407298D01*
X127386903Y-100407298D01*
X128200000Y-101220395D01*
X128214143Y-101206253D01*
X128393748Y-101385858D01*
X128379605Y-101400000D01*
X128393748Y-101414143D01*
X128214143Y-101593748D01*
X128200000Y-101579605D01*
X127386903Y-102392702D01*
X127458486Y-102636671D01*
X127713996Y-102757571D01*
X127988184Y-102826300D01*
X128270512Y-102840217D01*
X128550130Y-102798787D01*
X128816292Y-102703603D01*
X128941514Y-102636671D01*
X129013097Y-102392704D01*
X129129370Y-102508977D01*
X129209659Y-102428688D01*
X129225090Y-102479557D01*
X129292597Y-102605853D01*
X129383446Y-102716554D01*
X129494147Y-102807403D01*
X129620443Y-102874910D01*
X129757483Y-102916480D01*
X129900000Y-102930517D01*
X130778121Y-102930517D01*
X131582601Y-103734998D01*
X131515902Y-103859783D01*
X131474332Y-103996823D01*
X131460295Y-104139340D01*
X131474332Y-104281857D01*
X131515902Y-104418897D01*
X131583409Y-104545193D01*
X131674258Y-104655894D01*
X132310654Y-105292290D01*
X132421355Y-105383139D01*
X132547651Y-105450646D01*
X132684691Y-105492216D01*
X132827208Y-105506253D01*
X132969725Y-105492216D01*
X133106765Y-105450646D01*
X133233061Y-105383139D01*
X133343762Y-105292290D01*
X134192290Y-104443762D01*
X134283139Y-104333061D01*
X134350646Y-104206765D01*
X134392216Y-104069725D01*
X134406253Y-103927208D01*
X134392216Y-103784691D01*
X134350646Y-103647651D01*
X134283139Y-103521355D01*
X134192290Y-103410654D01*
X133555894Y-102774258D01*
X133445193Y-102683409D01*
X133425027Y-102672630D01*
X132230517Y-101478121D01*
X132230517Y-100600000D01*
X132216480Y-100457483D01*
X132174910Y-100320443D01*
X132107403Y-100194147D01*
X132016554Y-100083446D01*
X131905853Y-99992597D01*
X131779557Y-99925090D01*
X131727000Y-99909147D01*
X131727000Y-97996841D01*
X131790270Y-97919746D01*
X131880880Y-97750228D01*
X131936677Y-97566289D01*
X131955517Y-97375000D01*
X131955517Y-96425000D01*
X131936677Y-96233711D01*
X131880880Y-96049772D01*
X131790270Y-95880254D01*
X131668330Y-95731670D01*
X131664500Y-95728527D01*
X131664500Y-95171473D01*
X131668330Y-95168330D01*
X131790270Y-95019746D01*
X131880880Y-94850228D01*
X131936677Y-94666289D01*
X131955517Y-94475000D01*
X131955517Y-93525000D01*
X131936677Y-93333711D01*
X131880880Y-93149772D01*
X131790270Y-92980254D01*
X131668330Y-92831670D01*
X131664500Y-92828527D01*
X131664500Y-91836829D01*
X131680057Y-91832110D01*
X131806353Y-91764603D01*
X131917054Y-91673754D01*
X132007903Y-91563053D01*
X132075410Y-91436757D01*
X132116980Y-91299717D01*
X132131017Y-91157200D01*
X132131017Y-90242800D01*
X132116980Y-90100283D01*
X132075410Y-89963243D01*
X132007903Y-89836947D01*
X131917054Y-89726246D01*
X131806353Y-89635397D01*
X131680057Y-89567890D01*
X131543017Y-89526320D01*
X131400500Y-89512283D01*
X129927300Y-89512283D01*
X129784783Y-89526320D01*
X129647743Y-89567890D01*
X129521447Y-89635397D01*
X129410746Y-89726246D01*
X129319897Y-89836947D01*
X129252390Y-89963243D01*
X129210820Y-90100283D01*
X129196783Y-90242800D01*
X129196783Y-91157200D01*
X129210820Y-91299717D01*
X129252390Y-91436757D01*
X129319897Y-91563053D01*
X129410746Y-91673754D01*
X129521447Y-91764603D01*
X129610501Y-91812203D01*
X129610500Y-92828526D01*
X129607244Y-92831199D01*
X129601185Y-92823815D01*
X129504494Y-92744463D01*
X129394180Y-92685498D01*
X129274482Y-92649188D01*
X129150000Y-92636928D01*
X128848250Y-92640000D01*
X128689500Y-92798750D01*
X128689500Y-93873000D01*
X128709500Y-93873000D01*
X128709500Y-94127000D01*
X128689500Y-94127000D01*
X128689500Y-95201250D01*
X128848250Y-95360000D01*
X129150000Y-95363072D01*
X129274482Y-95350812D01*
X129394180Y-95314502D01*
X129504494Y-95255537D01*
X129601185Y-95176185D01*
X129607244Y-95168801D01*
X129610501Y-95171474D01*
X129610500Y-95728526D01*
X129607244Y-95731199D01*
X129601185Y-95723815D01*
X129504494Y-95644463D01*
X129394180Y-95585498D01*
X129274482Y-95549188D01*
X129150000Y-95536928D01*
X128848250Y-95540000D01*
X128689500Y-95698750D01*
X128689500Y-96773000D01*
X128709500Y-96773000D01*
X128709500Y-97027000D01*
X128689500Y-97027000D01*
X128689500Y-98101250D01*
X128848250Y-98260000D01*
X129150000Y-98263072D01*
X129274482Y-98250812D01*
X129394180Y-98214502D01*
X129504494Y-98155537D01*
X129601185Y-98076185D01*
X129607244Y-98068801D01*
X129673001Y-98122766D01*
X129673000Y-99909147D01*
X129620443Y-99925090D01*
X129494147Y-99992597D01*
X129383446Y-100083446D01*
X129292597Y-100194147D01*
X129225090Y-100320443D01*
X129209659Y-100371312D01*
X129129370Y-100291023D01*
X129013097Y-100407296D01*
X128941514Y-100163329D01*
X128686004Y-100042429D01*
X128411816Y-99973700D01*
X128129488Y-99959783D01*
X127849870Y-100001213D01*
X127583708Y-100096397D01*
X127458486Y-100163329D01*
X127386903Y-100407298D01*
X123009402Y-100407298D01*
X122922549Y-100160465D01*
X122524734Y-98276007D01*
X122411516Y-97625000D01*
X127336928Y-97625000D01*
X127349188Y-97749482D01*
X127385498Y-97869180D01*
X127444463Y-97979494D01*
X127523815Y-98076185D01*
X127620506Y-98155537D01*
X127730820Y-98214502D01*
X127850518Y-98250812D01*
X127975000Y-98263072D01*
X128276750Y-98260000D01*
X128435500Y-98101250D01*
X128435500Y-97027000D01*
X127498750Y-97027000D01*
X127340000Y-97185750D01*
X127336928Y-97625000D01*
X122411516Y-97625000D01*
X122159342Y-96175000D01*
X127336928Y-96175000D01*
X127340000Y-96614250D01*
X127498750Y-96773000D01*
X128435500Y-96773000D01*
X128435500Y-95698750D01*
X128276750Y-95540000D01*
X127975000Y-95536928D01*
X127850518Y-95549188D01*
X127730820Y-95585498D01*
X127620506Y-95644463D01*
X127523815Y-95723815D01*
X127444463Y-95820506D01*
X127385498Y-95930820D01*
X127349188Y-96050518D01*
X127336928Y-96175000D01*
X122159342Y-96175000D01*
X122125198Y-95978677D01*
X121916252Y-94725000D01*
X127336928Y-94725000D01*
X127349188Y-94849482D01*
X127385498Y-94969180D01*
X127444463Y-95079494D01*
X127523815Y-95176185D01*
X127620506Y-95255537D01*
X127730820Y-95314502D01*
X127850518Y-95350812D01*
X127975000Y-95363072D01*
X128276750Y-95360000D01*
X128435500Y-95201250D01*
X128435500Y-94127000D01*
X127498750Y-94127000D01*
X127340000Y-94285750D01*
X127336928Y-94725000D01*
X121916252Y-94725000D01*
X121826346Y-94185564D01*
X121769436Y-93275000D01*
X127336928Y-93275000D01*
X127340000Y-93714250D01*
X127498750Y-93873000D01*
X128435500Y-93873000D01*
X128435500Y-92798750D01*
X128276750Y-92640000D01*
X127975000Y-92636928D01*
X127850518Y-92649188D01*
X127730820Y-92685498D01*
X127620506Y-92744463D01*
X127523815Y-92823815D01*
X127444463Y-92920506D01*
X127385498Y-93030820D01*
X127349188Y-93150518D01*
X127336928Y-93275000D01*
X121769436Y-93275000D01*
X121726753Y-92592078D01*
X121726561Y-92589453D01*
X121627000Y-91394721D01*
X121627000Y-90000200D01*
X122761428Y-90000200D01*
X122773688Y-90124682D01*
X122809998Y-90244380D01*
X122868963Y-90354694D01*
X122948315Y-90451385D01*
X123045006Y-90530737D01*
X123155320Y-90589702D01*
X123275018Y-90626012D01*
X123399500Y-90638272D01*
X123850350Y-90635200D01*
X124009100Y-90476450D01*
X124009100Y-88527000D01*
X124263100Y-88527000D01*
X124263100Y-90476450D01*
X124421850Y-90635200D01*
X124872700Y-90638272D01*
X124997182Y-90626012D01*
X125116880Y-90589702D01*
X125227194Y-90530737D01*
X125323885Y-90451385D01*
X125403237Y-90354694D01*
X125462202Y-90244380D01*
X125498512Y-90124682D01*
X125510772Y-90000200D01*
X125508101Y-88857200D01*
X129289228Y-88857200D01*
X129301488Y-88981682D01*
X129337798Y-89101380D01*
X129396763Y-89211694D01*
X129476115Y-89308385D01*
X129572806Y-89387737D01*
X129683120Y-89446702D01*
X129802818Y-89483012D01*
X129927300Y-89495272D01*
X130378150Y-89492200D01*
X130536900Y-89333450D01*
X130536900Y-88527000D01*
X130790900Y-88527000D01*
X130790900Y-89333450D01*
X130949650Y-89492200D01*
X131400500Y-89495272D01*
X131524982Y-89483012D01*
X131644680Y-89446702D01*
X131754994Y-89387737D01*
X131851685Y-89308385D01*
X131931037Y-89211694D01*
X131990002Y-89101380D01*
X132026312Y-88981682D01*
X132038572Y-88857200D01*
X132035500Y-88685750D01*
X131876750Y-88527000D01*
X130790900Y-88527000D01*
X130536900Y-88527000D01*
X129451050Y-88527000D01*
X129292300Y-88685750D01*
X129289228Y-88857200D01*
X125508101Y-88857200D01*
X125507700Y-88685750D01*
X125348950Y-88527000D01*
X124263100Y-88527000D01*
X124009100Y-88527000D01*
X122923250Y-88527000D01*
X122764500Y-88685750D01*
X122761428Y-90000200D01*
X121627000Y-90000200D01*
X121627000Y-88405279D01*
X121726471Y-87211627D01*
X121767653Y-86799800D01*
X122761428Y-86799800D01*
X122764500Y-88114250D01*
X122923250Y-88273000D01*
X124009100Y-88273000D01*
X124009100Y-86323550D01*
X124263100Y-86323550D01*
X124263100Y-88273000D01*
X125348950Y-88273000D01*
X125507700Y-88114250D01*
X125508100Y-87942800D01*
X129289228Y-87942800D01*
X129292300Y-88114250D01*
X129451050Y-88273000D01*
X130536900Y-88273000D01*
X130536900Y-87466550D01*
X130790900Y-87466550D01*
X130790900Y-88273000D01*
X131876750Y-88273000D01*
X132035500Y-88114250D01*
X132038572Y-87942800D01*
X132026312Y-87818318D01*
X131990002Y-87698620D01*
X131931037Y-87588306D01*
X131851685Y-87491615D01*
X131754994Y-87412263D01*
X131644680Y-87353298D01*
X131524982Y-87316988D01*
X131400500Y-87304728D01*
X130949650Y-87307800D01*
X130790900Y-87466550D01*
X130536900Y-87466550D01*
X130378150Y-87307800D01*
X129927300Y-87304728D01*
X129802818Y-87316988D01*
X129683120Y-87353298D01*
X129572806Y-87412263D01*
X129476115Y-87491615D01*
X129396763Y-87588306D01*
X129337798Y-87698620D01*
X129301488Y-87818318D01*
X129289228Y-87942800D01*
X125508100Y-87942800D01*
X125510772Y-86799800D01*
X125498512Y-86675318D01*
X125462202Y-86555620D01*
X125403237Y-86445306D01*
X125323885Y-86348615D01*
X125227194Y-86269263D01*
X125116880Y-86210298D01*
X124997182Y-86173988D01*
X124872700Y-86161728D01*
X124421850Y-86164800D01*
X124263100Y-86323550D01*
X124009100Y-86323550D01*
X123850350Y-86164800D01*
X123399500Y-86161728D01*
X123275018Y-86173988D01*
X123155320Y-86210298D01*
X123045006Y-86269263D01*
X122948315Y-86348615D01*
X122868963Y-86445306D01*
X122809998Y-86555620D01*
X122773688Y-86675318D01*
X122761428Y-86799800D01*
X121767653Y-86799800D01*
X121826217Y-86214172D01*
X121925875Y-85416904D01*
X122175226Y-83671447D01*
X122264515Y-83225000D01*
X127299428Y-83225000D01*
X127311688Y-83349482D01*
X127347998Y-83469180D01*
X127406963Y-83579494D01*
X127486315Y-83676185D01*
X127583006Y-83755537D01*
X127693320Y-83814502D01*
X127813018Y-83850812D01*
X127937500Y-83863072D01*
X128239250Y-83860000D01*
X128398000Y-83701250D01*
X128398000Y-82627000D01*
X127461250Y-82627000D01*
X127302500Y-82785750D01*
X127299428Y-83225000D01*
X122264515Y-83225000D01*
X122554515Y-81775000D01*
X127299428Y-81775000D01*
X127302500Y-82214250D01*
X127461250Y-82373000D01*
X128398000Y-82373000D01*
X128398000Y-81298750D01*
X128239250Y-81140000D01*
X127937500Y-81136928D01*
X127813018Y-81149188D01*
X127693320Y-81185498D01*
X127583006Y-81244463D01*
X127486315Y-81323815D01*
X127406963Y-81420506D01*
X127347998Y-81530820D01*
X127311688Y-81650518D01*
X127299428Y-81775000D01*
X122554515Y-81775000D01*
X122623943Y-81427862D01*
X122974658Y-80025000D01*
X127336928Y-80025000D01*
X127349188Y-80149482D01*
X127385498Y-80269180D01*
X127444463Y-80379494D01*
X127523815Y-80476185D01*
X127620506Y-80555537D01*
X127730820Y-80614502D01*
X127850518Y-80650812D01*
X127975000Y-80663072D01*
X128276750Y-80660000D01*
X128435500Y-80501250D01*
X128435500Y-79427000D01*
X127498750Y-79427000D01*
X127340000Y-79585750D01*
X127336928Y-80025000D01*
X122974658Y-80025000D01*
X123222024Y-79035538D01*
X123375536Y-78575000D01*
X127336928Y-78575000D01*
X127340000Y-79014250D01*
X127498750Y-79173000D01*
X128435500Y-79173000D01*
X128435500Y-78098750D01*
X128276750Y-77940000D01*
X127975000Y-77936928D01*
X127850518Y-77949188D01*
X127730820Y-77985498D01*
X127620506Y-78044463D01*
X127523815Y-78123815D01*
X127444463Y-78220506D01*
X127385498Y-78330820D01*
X127349188Y-78450518D01*
X127336928Y-78575000D01*
X123375536Y-78575000D01*
X123519739Y-78142393D01*
X123818914Y-77344593D01*
X123819760Y-77342268D01*
X124418508Y-75645816D01*
X125106219Y-74012500D01*
X129336928Y-74012500D01*
X129340000Y-74314250D01*
X129498750Y-74473000D01*
X130573000Y-74473000D01*
X130573000Y-73536250D01*
X130827000Y-73536250D01*
X130827000Y-74473000D01*
X131901250Y-74473000D01*
X132060000Y-74314250D01*
X132063072Y-74012500D01*
X132059379Y-73975000D01*
X132236928Y-73975000D01*
X132240000Y-74276750D01*
X132398750Y-74435500D01*
X133473000Y-74435500D01*
X133473000Y-73498750D01*
X133727000Y-73498750D01*
X133727000Y-74435500D01*
X134801250Y-74435500D01*
X134960000Y-74276750D01*
X134963072Y-73975000D01*
X134950812Y-73850518D01*
X134914502Y-73730820D01*
X134855537Y-73620506D01*
X134776185Y-73523815D01*
X134679494Y-73444463D01*
X134569180Y-73385498D01*
X134449482Y-73349188D01*
X134325000Y-73336928D01*
X133885750Y-73340000D01*
X133727000Y-73498750D01*
X133473000Y-73498750D01*
X133314250Y-73340000D01*
X132875000Y-73336928D01*
X132750518Y-73349188D01*
X132630820Y-73385498D01*
X132520506Y-73444463D01*
X132423815Y-73523815D01*
X132344463Y-73620506D01*
X132285498Y-73730820D01*
X132249188Y-73850518D01*
X132236928Y-73975000D01*
X132059379Y-73975000D01*
X132050812Y-73888018D01*
X132014502Y-73768320D01*
X131955537Y-73658006D01*
X131876185Y-73561315D01*
X131779494Y-73481963D01*
X131669180Y-73422998D01*
X131549482Y-73386688D01*
X131425000Y-73374428D01*
X130985750Y-73377500D01*
X130827000Y-73536250D01*
X130573000Y-73536250D01*
X130414250Y-73377500D01*
X129975000Y-73374428D01*
X129850518Y-73386688D01*
X129730820Y-73422998D01*
X129620506Y-73481963D01*
X129523815Y-73561315D01*
X129444463Y-73658006D01*
X129385498Y-73768320D01*
X129349188Y-73888018D01*
X129336928Y-74012500D01*
X125106219Y-74012500D01*
X125215445Y-73753089D01*
X125912723Y-72358534D01*
X126609873Y-71063826D01*
X127607186Y-69468126D01*
X128704610Y-67772107D01*
X129799554Y-66279002D01*
X130995709Y-64883487D01*
X131794477Y-63984874D01*
X132790352Y-62889411D01*
X134186081Y-61593377D01*
X135381208Y-60497844D01*
X138175028Y-58402479D01*
X139567560Y-57407814D01*
X139627718Y-57375000D01*
X152236928Y-57375000D01*
X152240000Y-57676750D01*
X152398750Y-57835500D01*
X153473000Y-57835500D01*
X153473000Y-56898750D01*
X153727000Y-56898750D01*
X153727000Y-57835500D01*
X154801250Y-57835500D01*
X154960000Y-57676750D01*
X154961693Y-57510390D01*
X155459360Y-57510390D01*
X155618110Y-57669140D01*
X156957960Y-57669140D01*
X156957960Y-57040490D01*
X157211960Y-57040490D01*
X157211960Y-57669140D01*
X158551810Y-57669140D01*
X158710560Y-57510390D01*
X158701068Y-57390740D01*
X158664467Y-57271130D01*
X158605235Y-57160960D01*
X158525649Y-57064461D01*
X158428765Y-56985344D01*
X158318308Y-56926647D01*
X158198522Y-56890628D01*
X158074011Y-56878670D01*
X157370710Y-56881740D01*
X157211960Y-57040490D01*
X156957960Y-57040490D01*
X156799210Y-56881740D01*
X156095909Y-56878670D01*
X155971398Y-56890628D01*
X155851612Y-56926647D01*
X155741155Y-56985344D01*
X155644271Y-57064461D01*
X155564685Y-57160960D01*
X155505453Y-57271130D01*
X155468852Y-57390740D01*
X155459360Y-57510390D01*
X154961693Y-57510390D01*
X154963072Y-57375000D01*
X154950812Y-57250518D01*
X154914502Y-57130820D01*
X154855537Y-57020506D01*
X154776185Y-56923815D01*
X154679494Y-56844463D01*
X154569180Y-56785498D01*
X154449482Y-56749188D01*
X154325000Y-56736928D01*
X153885750Y-56740000D01*
X153727000Y-56898750D01*
X153473000Y-56898750D01*
X153314250Y-56740000D01*
X152875000Y-56736928D01*
X152750518Y-56749188D01*
X152630820Y-56785498D01*
X152520506Y-56844463D01*
X152423815Y-56923815D01*
X152344463Y-57020506D01*
X152285498Y-57130820D01*
X152249188Y-57250518D01*
X152236928Y-57375000D01*
X139627718Y-57375000D01*
X141759861Y-56212013D01*
X142814364Y-55659654D01*
X177515845Y-55653656D01*
X179436692Y-56710122D01*
G04 #@! TA.AperFunction,Conductor*
D25*
G36*
X179436692Y-56710122D02*
G01*
X180931299Y-57606886D01*
X182524720Y-58702363D01*
X183920720Y-59799220D01*
X185516326Y-61095650D01*
X187210058Y-62689751D01*
X188705407Y-64284790D01*
X190500599Y-66379180D01*
X192194033Y-68670296D01*
X193788436Y-71360852D01*
X194984739Y-73753458D01*
X196181186Y-76545167D01*
X196977976Y-78935538D01*
X197675790Y-81726795D01*
X198273949Y-85016669D01*
X198473294Y-87408803D01*
X198573000Y-89203517D01*
X198573000Y-91197243D01*
X198473392Y-93488227D01*
X198074613Y-96279680D01*
X197675930Y-98472437D01*
X197177921Y-100364872D01*
X196679500Y-101959820D01*
X195582920Y-105050180D01*
X194487559Y-107240901D01*
X193428137Y-109161104D01*
X193427000Y-109149559D01*
X193427000Y-73029118D01*
X193431968Y-72978675D01*
X193427000Y-72928231D01*
X193427000Y-72928224D01*
X193412140Y-72777348D01*
X193411159Y-72774112D01*
X193382551Y-72679806D01*
X193353415Y-72583758D01*
X193258051Y-72405344D01*
X193196015Y-72329753D01*
X193161873Y-72288150D01*
X193161868Y-72288145D01*
X193129712Y-72248963D01*
X193090530Y-72216807D01*
X180583202Y-59709481D01*
X180551037Y-59670288D01*
X180394656Y-59541949D01*
X180216242Y-59446585D01*
X180022652Y-59387860D01*
X179871776Y-59373000D01*
X179871766Y-59373000D01*
X179821325Y-59368032D01*
X179770884Y-59373000D01*
X168690853Y-59373000D01*
X168674910Y-59320443D01*
X168607403Y-59194147D01*
X168516554Y-59083446D01*
X168405853Y-58992597D01*
X168279557Y-58925090D01*
X168227000Y-58909147D01*
X168227000Y-58699316D01*
X168295506Y-58755537D01*
X168405820Y-58814502D01*
X168525518Y-58850812D01*
X168650000Y-58863072D01*
X168951750Y-58860000D01*
X169110500Y-58701250D01*
X169110500Y-57627000D01*
X169364500Y-57627000D01*
X169364500Y-58701250D01*
X169523250Y-58860000D01*
X169825000Y-58863072D01*
X169949482Y-58850812D01*
X170069180Y-58814502D01*
X170179494Y-58755537D01*
X170276185Y-58676185D01*
X170355537Y-58579494D01*
X170414502Y-58469180D01*
X170450812Y-58349482D01*
X170463072Y-58225000D01*
X170460000Y-57785750D01*
X170301250Y-57627000D01*
X169364500Y-57627000D01*
X169110500Y-57627000D01*
X169090500Y-57627000D01*
X169090500Y-57373000D01*
X169110500Y-57373000D01*
X169110500Y-56298750D01*
X169364500Y-56298750D01*
X169364500Y-57373000D01*
X170301250Y-57373000D01*
X170460000Y-57214250D01*
X170463072Y-56775000D01*
X170450812Y-56650518D01*
X170414502Y-56530820D01*
X170355537Y-56420506D01*
X170276185Y-56323815D01*
X170179494Y-56244463D01*
X170069180Y-56185498D01*
X169949482Y-56149188D01*
X169825000Y-56136928D01*
X169523250Y-56140000D01*
X169364500Y-56298750D01*
X169110500Y-56298750D01*
X168951750Y-56140000D01*
X168650000Y-56136928D01*
X168525518Y-56149188D01*
X168405820Y-56185498D01*
X168295506Y-56244463D01*
X168198815Y-56323815D01*
X168192756Y-56331199D01*
X168044746Y-56209730D01*
X167875228Y-56119120D01*
X167691289Y-56063323D01*
X167500000Y-56044483D01*
X166825000Y-56044483D01*
X166633711Y-56063323D01*
X166449772Y-56119120D01*
X166280254Y-56209730D01*
X166131670Y-56331670D01*
X166009730Y-56480254D01*
X165919120Y-56649772D01*
X165863323Y-56833711D01*
X165844483Y-57025000D01*
X165844483Y-57975000D01*
X165863323Y-58166289D01*
X165919120Y-58350228D01*
X166009730Y-58519746D01*
X166131670Y-58668330D01*
X166173001Y-58702249D01*
X166173001Y-58909147D01*
X166120443Y-58925090D01*
X165994147Y-58992597D01*
X165883446Y-59083446D01*
X165792597Y-59194147D01*
X165731132Y-59309140D01*
X163733677Y-59309140D01*
X163733677Y-58786740D01*
X163719640Y-58644223D01*
X163678070Y-58507183D01*
X163637424Y-58431140D01*
X163678070Y-58355097D01*
X163719640Y-58218057D01*
X163733677Y-58075540D01*
X163733677Y-57516740D01*
X163719640Y-57374223D01*
X163678070Y-57237183D01*
X163610563Y-57110887D01*
X163519714Y-57000186D01*
X163409013Y-56909337D01*
X163282717Y-56841830D01*
X163145677Y-56800260D01*
X163003160Y-56786223D01*
X161021960Y-56786223D01*
X160879443Y-56800260D01*
X160742403Y-56841830D01*
X160616107Y-56909337D01*
X160505406Y-57000186D01*
X160414557Y-57110887D01*
X160347050Y-57237183D01*
X160305480Y-57374223D01*
X160291443Y-57516740D01*
X160291443Y-58075540D01*
X160305480Y-58218057D01*
X160347050Y-58355097D01*
X160387696Y-58431140D01*
X160347050Y-58507183D01*
X160305480Y-58644223D01*
X160291443Y-58786740D01*
X160291443Y-59345540D01*
X160305480Y-59488057D01*
X160347050Y-59625097D01*
X160387696Y-59701140D01*
X160347050Y-59777183D01*
X160305480Y-59914223D01*
X160291443Y-60056740D01*
X160291443Y-60615540D01*
X160305480Y-60758057D01*
X160347050Y-60895097D01*
X160387696Y-60971140D01*
X160347050Y-61047183D01*
X160305480Y-61184223D01*
X160291443Y-61326740D01*
X160291443Y-61885540D01*
X160305480Y-62028057D01*
X160347050Y-62165097D01*
X160414557Y-62291393D01*
X160505406Y-62402094D01*
X160616107Y-62492943D01*
X160742403Y-62560450D01*
X160879443Y-62602020D01*
X160973001Y-62611235D01*
X160973000Y-63473000D01*
X156670496Y-63473000D01*
X157527440Y-62616057D01*
X158075560Y-62616057D01*
X158218077Y-62602020D01*
X158355117Y-62560450D01*
X158481413Y-62492943D01*
X158592114Y-62402094D01*
X158682963Y-62291393D01*
X158750470Y-62165097D01*
X158792040Y-62028057D01*
X158806077Y-61885540D01*
X158806077Y-61326740D01*
X158792040Y-61184223D01*
X158750470Y-61047183D01*
X158709824Y-60971140D01*
X158750470Y-60895097D01*
X158792040Y-60758057D01*
X158806077Y-60615540D01*
X158806077Y-60056740D01*
X158792040Y-59914223D01*
X158750470Y-59777183D01*
X158709824Y-59701140D01*
X158750470Y-59625097D01*
X158792040Y-59488057D01*
X158806077Y-59345540D01*
X158806077Y-58786740D01*
X158792040Y-58644223D01*
X158750470Y-58507183D01*
X158682963Y-58380887D01*
X158652383Y-58343625D01*
X158664467Y-58321150D01*
X158701068Y-58201540D01*
X158710560Y-58081890D01*
X158551810Y-57923140D01*
X157211960Y-57923140D01*
X157211960Y-57943140D01*
X156957960Y-57943140D01*
X156957960Y-57923140D01*
X155618110Y-57923140D01*
X155459360Y-58081890D01*
X155468852Y-58201540D01*
X155505453Y-58321150D01*
X155517537Y-58343625D01*
X155486957Y-58380887D01*
X155419450Y-58507183D01*
X155377880Y-58644223D01*
X155363843Y-58786740D01*
X155363843Y-59010500D01*
X154771473Y-59010500D01*
X154768801Y-59007244D01*
X154776185Y-59001185D01*
X154855537Y-58904494D01*
X154914502Y-58794180D01*
X154950812Y-58674482D01*
X154963072Y-58550000D01*
X154960000Y-58248250D01*
X154801250Y-58089500D01*
X153727000Y-58089500D01*
X153727000Y-58109500D01*
X153473000Y-58109500D01*
X153473000Y-58089500D01*
X152398750Y-58089500D01*
X152240000Y-58248250D01*
X152236928Y-58550000D01*
X152249188Y-58674482D01*
X152285498Y-58794180D01*
X152344463Y-58904494D01*
X152423815Y-59001185D01*
X152431199Y-59007244D01*
X152309730Y-59155254D01*
X152219120Y-59324772D01*
X152204490Y-59373000D01*
X150153473Y-59373000D01*
X150153371Y-59372990D01*
X150153361Y-59372990D01*
X150102920Y-59368022D01*
X150052479Y-59372990D01*
X137553381Y-59372990D01*
X137502940Y-59368022D01*
X137452499Y-59372990D01*
X137452489Y-59372990D01*
X137301613Y-59387850D01*
X137108023Y-59446575D01*
X136929609Y-59541939D01*
X136773228Y-59670278D01*
X136741068Y-59709466D01*
X135329075Y-61121459D01*
X135289888Y-61153619D01*
X135257728Y-61192806D01*
X135257727Y-61192807D01*
X135161549Y-61310000D01*
X135066185Y-61488414D01*
X135007460Y-61682004D01*
X134987631Y-61883331D01*
X134992600Y-61933782D01*
X134992599Y-64909158D01*
X134987631Y-64959599D01*
X134992599Y-65010040D01*
X134992599Y-65010049D01*
X135007459Y-65160925D01*
X135066184Y-65354515D01*
X135161548Y-65532930D01*
X135289887Y-65689311D01*
X135329080Y-65721476D01*
X135673000Y-66065396D01*
X135673000Y-75610500D01*
X134771473Y-75610500D01*
X134768801Y-75607244D01*
X134776185Y-75601185D01*
X134855537Y-75504494D01*
X134914502Y-75394180D01*
X134950812Y-75274482D01*
X134963072Y-75150000D01*
X134960000Y-74848250D01*
X134801250Y-74689500D01*
X133727000Y-74689500D01*
X133727000Y-74709500D01*
X133473000Y-74709500D01*
X133473000Y-74689500D01*
X132398750Y-74689500D01*
X132240000Y-74848250D01*
X132236928Y-75150000D01*
X132249188Y-75274482D01*
X132285498Y-75394180D01*
X132344463Y-75504494D01*
X132423815Y-75601185D01*
X132431199Y-75607244D01*
X132397751Y-75648000D01*
X131871473Y-75648000D01*
X131868801Y-75644744D01*
X131876185Y-75638685D01*
X131955537Y-75541994D01*
X132014502Y-75431680D01*
X132050812Y-75311982D01*
X132063072Y-75187500D01*
X132060000Y-74885750D01*
X131901250Y-74727000D01*
X130827000Y-74727000D01*
X130827000Y-74747000D01*
X130573000Y-74747000D01*
X130573000Y-74727000D01*
X129498750Y-74727000D01*
X129340000Y-74885750D01*
X129336928Y-75187500D01*
X129349188Y-75311982D01*
X129385498Y-75431680D01*
X129444463Y-75541994D01*
X129523815Y-75638685D01*
X129531199Y-75644744D01*
X129409730Y-75792754D01*
X129319120Y-75962272D01*
X129263323Y-76146211D01*
X129244483Y-76337500D01*
X129244483Y-77012500D01*
X129263323Y-77203789D01*
X129319120Y-77387728D01*
X129409730Y-77557246D01*
X129531670Y-77705830D01*
X129610501Y-77770525D01*
X129610500Y-78128526D01*
X129607244Y-78131199D01*
X129601185Y-78123815D01*
X129504494Y-78044463D01*
X129394180Y-77985498D01*
X129274482Y-77949188D01*
X129150000Y-77936928D01*
X128848250Y-77940000D01*
X128689500Y-78098750D01*
X128689500Y-79173000D01*
X128709500Y-79173000D01*
X128709500Y-79427000D01*
X128689500Y-79427000D01*
X128689500Y-80501250D01*
X128848250Y-80660000D01*
X129150000Y-80663072D01*
X129274482Y-80650812D01*
X129394180Y-80614502D01*
X129504494Y-80555537D01*
X129573001Y-80499315D01*
X129573000Y-81328526D01*
X129569744Y-81331199D01*
X129563685Y-81323815D01*
X129466994Y-81244463D01*
X129356680Y-81185498D01*
X129236982Y-81149188D01*
X129112500Y-81136928D01*
X128810750Y-81140000D01*
X128652000Y-81298750D01*
X128652000Y-82373000D01*
X128672000Y-82373000D01*
X128672000Y-82627000D01*
X128652000Y-82627000D01*
X128652000Y-83701250D01*
X128810750Y-83860000D01*
X129112500Y-83863072D01*
X129236982Y-83850812D01*
X129356680Y-83814502D01*
X129466994Y-83755537D01*
X129563685Y-83676185D01*
X129569744Y-83668801D01*
X129636901Y-83723915D01*
X129636900Y-84973686D01*
X129521447Y-85035397D01*
X129410746Y-85126246D01*
X129319897Y-85236947D01*
X129252390Y-85363243D01*
X129210820Y-85500283D01*
X129196783Y-85642800D01*
X129196783Y-86557200D01*
X129210820Y-86699717D01*
X129252390Y-86836757D01*
X129319897Y-86963053D01*
X129410746Y-87073754D01*
X129521447Y-87164603D01*
X129647743Y-87232110D01*
X129784783Y-87273680D01*
X129927300Y-87287717D01*
X131400500Y-87287717D01*
X131543017Y-87273680D01*
X131680057Y-87232110D01*
X131806353Y-87164603D01*
X131917054Y-87073754D01*
X132007903Y-86963053D01*
X132075410Y-86836757D01*
X132116980Y-86699717D01*
X132131017Y-86557200D01*
X132131017Y-85642800D01*
X132116980Y-85500283D01*
X132075410Y-85363243D01*
X132007903Y-85236947D01*
X131917054Y-85126246D01*
X131806353Y-85035397D01*
X131690900Y-84973686D01*
X131690900Y-83595135D01*
X131752770Y-83519746D01*
X131843380Y-83350228D01*
X131899177Y-83166289D01*
X131918017Y-82975000D01*
X131918017Y-82025000D01*
X131899177Y-81833711D01*
X131843380Y-81649772D01*
X131752770Y-81480254D01*
X131630830Y-81331670D01*
X131627000Y-81328527D01*
X131627000Y-80502249D01*
X131668330Y-80468330D01*
X131790270Y-80319746D01*
X131880880Y-80150228D01*
X131936677Y-79966289D01*
X131955517Y-79775000D01*
X131955517Y-78825000D01*
X131936677Y-78633711D01*
X131880880Y-78449772D01*
X131790270Y-78280254D01*
X131668330Y-78131670D01*
X131664500Y-78128527D01*
X131664500Y-77857300D01*
X131719746Y-77827770D01*
X131868330Y-77705830D01*
X131871473Y-77702000D01*
X132472697Y-77702000D01*
X132580254Y-77790270D01*
X132749772Y-77880880D01*
X132933711Y-77936677D01*
X133125000Y-77955517D01*
X134075000Y-77955517D01*
X134266289Y-77936677D01*
X134450228Y-77880880D01*
X134619746Y-77790270D01*
X134768330Y-77668330D01*
X134771473Y-77664500D01*
X135673000Y-77664500D01*
X135673000Y-94914604D01*
X135329075Y-95258529D01*
X135289888Y-95290689D01*
X135257728Y-95329876D01*
X135257727Y-95329877D01*
X135161549Y-95447070D01*
X135066185Y-95625484D01*
X135007460Y-95819074D01*
X134987631Y-96020401D01*
X134992600Y-96070852D01*
X134992599Y-101963298D01*
X134987631Y-102013739D01*
X134992599Y-102064180D01*
X134992599Y-102064189D01*
X135007459Y-102215065D01*
X135066184Y-102408655D01*
X135161548Y-102587070D01*
X135289887Y-102743451D01*
X135329080Y-102775616D01*
X137573001Y-105019538D01*
X137573000Y-107369647D01*
X137553415Y-107305083D01*
X137458051Y-107126669D01*
X137329712Y-106970288D01*
X137290524Y-106938128D01*
X136728349Y-106375953D01*
X136739705Y-106260660D01*
X136725668Y-106118143D01*
X136684098Y-105981103D01*
X136616591Y-105854807D01*
X136525742Y-105744106D01*
X135889346Y-105107710D01*
X135778645Y-105016861D01*
X135652349Y-104949354D01*
X135515309Y-104907784D01*
X135372792Y-104893747D01*
X135230275Y-104907784D01*
X135093235Y-104949354D01*
X134966939Y-105016861D01*
X134856238Y-105107710D01*
X134007710Y-105956238D01*
X133916861Y-106066939D01*
X133849354Y-106193235D01*
X133807784Y-106330275D01*
X133793747Y-106472792D01*
X133807784Y-106615309D01*
X133849354Y-106752349D01*
X133916861Y-106878645D01*
X134007710Y-106989346D01*
X134644106Y-107625742D01*
X134754807Y-107716591D01*
X134881103Y-107784098D01*
X135018143Y-107825668D01*
X135160660Y-107839705D01*
X135275953Y-107828349D01*
X135573001Y-108125398D01*
X135573000Y-111911154D01*
X135332833Y-111911154D01*
X135253277Y-111926979D01*
X135269102Y-111847423D01*
X135269102Y-111536781D01*
X135208498Y-111232108D01*
X135089621Y-110945113D01*
X134917038Y-110686823D01*
X134697381Y-110467166D01*
X134439091Y-110294583D01*
X134152096Y-110175706D01*
X133847423Y-110115102D01*
X133567499Y-110115102D01*
X133473051Y-110020654D01*
X133473051Y-109740730D01*
X133412447Y-109436057D01*
X133293570Y-109149062D01*
X133120987Y-108890772D01*
X132901330Y-108671115D01*
X132643040Y-108498532D01*
X132356045Y-108379655D01*
X132051372Y-108319051D01*
X131899207Y-108319051D01*
X131927893Y-108224481D01*
X131940153Y-108100000D01*
X131927893Y-107975519D01*
X131891584Y-107855820D01*
X131832620Y-107745506D01*
X131753267Y-107648815D01*
X131352109Y-107252002D01*
X131127603Y-107252002D01*
X130279605Y-108100000D01*
X130293748Y-108114143D01*
X130114143Y-108293748D01*
X130100000Y-108279605D01*
X129252002Y-109127603D01*
X129252002Y-109352109D01*
X129648815Y-109753267D01*
X129745506Y-109832620D01*
X129855820Y-109891584D01*
X129975519Y-109927893D01*
X130100000Y-109940153D01*
X130224481Y-109927893D01*
X130319051Y-109899207D01*
X130319051Y-110051372D01*
X130379655Y-110356045D01*
X130498532Y-110643040D01*
X130671115Y-110901330D01*
X130890772Y-111120987D01*
X131149062Y-111293570D01*
X131436057Y-111412447D01*
X131740730Y-111473051D01*
X132020654Y-111473051D01*
X132115102Y-111567499D01*
X132115102Y-111847423D01*
X132175706Y-112152096D01*
X132294583Y-112439091D01*
X132467166Y-112697381D01*
X132686823Y-112917038D01*
X132945113Y-113089621D01*
X133232108Y-113208498D01*
X133536781Y-113269102D01*
X133847423Y-113269102D01*
X133926979Y-113253277D01*
X133911154Y-113332833D01*
X133911154Y-113643475D01*
X133971758Y-113948148D01*
X134090635Y-114235143D01*
X134263218Y-114493433D01*
X134482875Y-114713090D01*
X134741165Y-114885673D01*
X135028160Y-115004550D01*
X135332833Y-115065154D01*
X135643475Y-115065154D01*
X135948148Y-115004550D01*
X136235143Y-114885673D01*
X136493433Y-114713090D01*
X136713090Y-114493433D01*
X136885673Y-114235143D01*
X137004550Y-113948148D01*
X137065154Y-113643475D01*
X137065154Y-113363551D01*
X137290530Y-113138176D01*
X137329712Y-113106020D01*
X137361868Y-113066838D01*
X137361873Y-113066833D01*
X137452996Y-112955798D01*
X137458051Y-112949639D01*
X137553415Y-112771225D01*
X137612140Y-112577635D01*
X137627000Y-112426759D01*
X137627000Y-112426752D01*
X137631968Y-112376308D01*
X137627000Y-112325865D01*
X137627000Y-109852434D01*
X137646585Y-109916997D01*
X137741949Y-110095412D01*
X137870288Y-110251793D01*
X137909481Y-110283958D01*
X143173000Y-115547478D01*
X143173000Y-116300000D01*
X143175440Y-116324776D01*
X143182667Y-116348601D01*
X143194403Y-116370557D01*
X143210197Y-116389803D01*
X143229443Y-116405597D01*
X143251399Y-116417333D01*
X143275224Y-116424560D01*
X143300000Y-116427000D01*
X144544036Y-116427000D01*
X144629570Y-116479289D01*
X144870599Y-116567915D01*
X145073000Y-116445085D01*
X145073000Y-116427000D01*
X145327000Y-116427000D01*
X145327000Y-116445085D01*
X145529401Y-116567915D01*
X145770430Y-116479289D01*
X145855964Y-116427000D01*
X147073000Y-116427000D01*
X147073000Y-126195996D01*
X146242805Y-125905427D01*
X145496909Y-125631932D01*
X144453458Y-125184739D01*
X141860599Y-123888309D01*
X140500452Y-123090696D01*
X139169349Y-122293499D01*
X137475889Y-121098116D01*
X136078911Y-120000490D01*
X134583232Y-118803947D01*
X132989751Y-117310058D01*
X131393884Y-115614450D01*
X129900472Y-113921916D01*
X128405276Y-111728962D01*
X127008797Y-109634244D01*
X126171937Y-108100000D01*
X128259847Y-108100000D01*
X128272107Y-108224481D01*
X128308416Y-108344180D01*
X128367380Y-108454494D01*
X128446733Y-108551185D01*
X128847891Y-108947998D01*
X129072397Y-108947998D01*
X129920395Y-108100000D01*
X129072397Y-107252002D01*
X128847891Y-107252002D01*
X128446733Y-107648815D01*
X128367380Y-107745506D01*
X128308416Y-107855820D01*
X128272107Y-107975519D01*
X128259847Y-108100000D01*
X126171937Y-108100000D01*
X125813396Y-107442676D01*
X125535830Y-106847891D01*
X129252002Y-106847891D01*
X129252002Y-107072397D01*
X130100000Y-107920395D01*
X130947998Y-107072397D01*
X130947998Y-106847891D01*
X130551185Y-106446733D01*
X130454494Y-106367380D01*
X130344180Y-106308416D01*
X130224481Y-106272107D01*
X130100000Y-106259847D01*
X129975519Y-106272107D01*
X129855820Y-106308416D01*
X129745506Y-106367380D01*
X129648815Y-106446733D01*
X129252002Y-106847891D01*
X125535830Y-106847891D01*
X125115239Y-105946624D01*
X124517047Y-104650542D01*
X124019573Y-103357108D01*
X123520483Y-101859839D01*
X123519800Y-101857846D01*
X123383511Y-101470512D01*
X126759783Y-101470512D01*
X126801213Y-101750130D01*
X126896397Y-102016292D01*
X126963329Y-102141514D01*
X127207298Y-102213097D01*
X128020395Y-101400000D01*
X127207298Y-100586903D01*
X126963329Y-100658486D01*
X126842429Y-100913996D01*
X126773700Y-101188184D01*
X126759783Y-101470512D01*
X123383511Y-101470512D01*
X123009402Y-100407298D01*
X127386903Y-100407298D01*
X128200000Y-101220395D01*
X128214143Y-101206253D01*
X128393748Y-101385858D01*
X128379605Y-101400000D01*
X128393748Y-101414143D01*
X128214143Y-101593748D01*
X128200000Y-101579605D01*
X127386903Y-102392702D01*
X127458486Y-102636671D01*
X127713996Y-102757571D01*
X127988184Y-102826300D01*
X128270512Y-102840217D01*
X128550130Y-102798787D01*
X128816292Y-102703603D01*
X128941514Y-102636671D01*
X129013097Y-102392704D01*
X129129370Y-102508977D01*
X129209659Y-102428688D01*
X129225090Y-102479557D01*
X129292597Y-102605853D01*
X129383446Y-102716554D01*
X129494147Y-102807403D01*
X129620443Y-102874910D01*
X129757483Y-102916480D01*
X129900000Y-102930517D01*
X130778121Y-102930517D01*
X131582601Y-103734998D01*
X131515902Y-103859783D01*
X131474332Y-103996823D01*
X131460295Y-104139340D01*
X131474332Y-104281857D01*
X131515902Y-104418897D01*
X131583409Y-104545193D01*
X131674258Y-104655894D01*
X132310654Y-105292290D01*
X132421355Y-105383139D01*
X132547651Y-105450646D01*
X132684691Y-105492216D01*
X132827208Y-105506253D01*
X132969725Y-105492216D01*
X133106765Y-105450646D01*
X133233061Y-105383139D01*
X133343762Y-105292290D01*
X134192290Y-104443762D01*
X134283139Y-104333061D01*
X134350646Y-104206765D01*
X134392216Y-104069725D01*
X134406253Y-103927208D01*
X134392216Y-103784691D01*
X134350646Y-103647651D01*
X134283139Y-103521355D01*
X134192290Y-103410654D01*
X133555894Y-102774258D01*
X133445193Y-102683409D01*
X133425027Y-102672630D01*
X132230517Y-101478121D01*
X132230517Y-100600000D01*
X132216480Y-100457483D01*
X132174910Y-100320443D01*
X132107403Y-100194147D01*
X132016554Y-100083446D01*
X131905853Y-99992597D01*
X131779557Y-99925090D01*
X131727000Y-99909147D01*
X131727000Y-97996841D01*
X131790270Y-97919746D01*
X131880880Y-97750228D01*
X131936677Y-97566289D01*
X131955517Y-97375000D01*
X131955517Y-96425000D01*
X131936677Y-96233711D01*
X131880880Y-96049772D01*
X131790270Y-95880254D01*
X131668330Y-95731670D01*
X131664500Y-95728527D01*
X131664500Y-95171473D01*
X131668330Y-95168330D01*
X131790270Y-95019746D01*
X131880880Y-94850228D01*
X131936677Y-94666289D01*
X131955517Y-94475000D01*
X131955517Y-93525000D01*
X131936677Y-93333711D01*
X131880880Y-93149772D01*
X131790270Y-92980254D01*
X131668330Y-92831670D01*
X131664500Y-92828527D01*
X131664500Y-91836829D01*
X131680057Y-91832110D01*
X131806353Y-91764603D01*
X131917054Y-91673754D01*
X132007903Y-91563053D01*
X132075410Y-91436757D01*
X132116980Y-91299717D01*
X132131017Y-91157200D01*
X132131017Y-90242800D01*
X132116980Y-90100283D01*
X132075410Y-89963243D01*
X132007903Y-89836947D01*
X131917054Y-89726246D01*
X131806353Y-89635397D01*
X131680057Y-89567890D01*
X131543017Y-89526320D01*
X131400500Y-89512283D01*
X129927300Y-89512283D01*
X129784783Y-89526320D01*
X129647743Y-89567890D01*
X129521447Y-89635397D01*
X129410746Y-89726246D01*
X129319897Y-89836947D01*
X129252390Y-89963243D01*
X129210820Y-90100283D01*
X129196783Y-90242800D01*
X129196783Y-91157200D01*
X129210820Y-91299717D01*
X129252390Y-91436757D01*
X129319897Y-91563053D01*
X129410746Y-91673754D01*
X129521447Y-91764603D01*
X129610501Y-91812203D01*
X129610500Y-92828526D01*
X129607244Y-92831199D01*
X129601185Y-92823815D01*
X129504494Y-92744463D01*
X129394180Y-92685498D01*
X129274482Y-92649188D01*
X129150000Y-92636928D01*
X128848250Y-92640000D01*
X128689500Y-92798750D01*
X128689500Y-93873000D01*
X128709500Y-93873000D01*
X128709500Y-94127000D01*
X128689500Y-94127000D01*
X128689500Y-95201250D01*
X128848250Y-95360000D01*
X129150000Y-95363072D01*
X129274482Y-95350812D01*
X129394180Y-95314502D01*
X129504494Y-95255537D01*
X129601185Y-95176185D01*
X129607244Y-95168801D01*
X129610501Y-95171474D01*
X129610500Y-95728526D01*
X129607244Y-95731199D01*
X129601185Y-95723815D01*
X129504494Y-95644463D01*
X129394180Y-95585498D01*
X129274482Y-95549188D01*
X129150000Y-95536928D01*
X128848250Y-95540000D01*
X128689500Y-95698750D01*
X128689500Y-96773000D01*
X128709500Y-96773000D01*
X128709500Y-97027000D01*
X128689500Y-97027000D01*
X128689500Y-98101250D01*
X128848250Y-98260000D01*
X129150000Y-98263072D01*
X129274482Y-98250812D01*
X129394180Y-98214502D01*
X129504494Y-98155537D01*
X129601185Y-98076185D01*
X129607244Y-98068801D01*
X129673001Y-98122766D01*
X129673000Y-99909147D01*
X129620443Y-99925090D01*
X129494147Y-99992597D01*
X129383446Y-100083446D01*
X129292597Y-100194147D01*
X129225090Y-100320443D01*
X129209659Y-100371312D01*
X129129370Y-100291023D01*
X129013097Y-100407296D01*
X128941514Y-100163329D01*
X128686004Y-100042429D01*
X128411816Y-99973700D01*
X128129488Y-99959783D01*
X127849870Y-100001213D01*
X127583708Y-100096397D01*
X127458486Y-100163329D01*
X127386903Y-100407298D01*
X123009402Y-100407298D01*
X122922549Y-100160465D01*
X122524734Y-98276007D01*
X122411516Y-97625000D01*
X127336928Y-97625000D01*
X127349188Y-97749482D01*
X127385498Y-97869180D01*
X127444463Y-97979494D01*
X127523815Y-98076185D01*
X127620506Y-98155537D01*
X127730820Y-98214502D01*
X127850518Y-98250812D01*
X127975000Y-98263072D01*
X128276750Y-98260000D01*
X128435500Y-98101250D01*
X128435500Y-97027000D01*
X127498750Y-97027000D01*
X127340000Y-97185750D01*
X127336928Y-97625000D01*
X122411516Y-97625000D01*
X122159342Y-96175000D01*
X127336928Y-96175000D01*
X127340000Y-96614250D01*
X127498750Y-96773000D01*
X128435500Y-96773000D01*
X128435500Y-95698750D01*
X128276750Y-95540000D01*
X127975000Y-95536928D01*
X127850518Y-95549188D01*
X127730820Y-95585498D01*
X127620506Y-95644463D01*
X127523815Y-95723815D01*
X127444463Y-95820506D01*
X127385498Y-95930820D01*
X127349188Y-96050518D01*
X127336928Y-96175000D01*
X122159342Y-96175000D01*
X122125198Y-95978677D01*
X121916252Y-94725000D01*
X127336928Y-94725000D01*
X127349188Y-94849482D01*
X127385498Y-94969180D01*
X127444463Y-95079494D01*
X127523815Y-95176185D01*
X127620506Y-95255537D01*
X127730820Y-95314502D01*
X127850518Y-95350812D01*
X127975000Y-95363072D01*
X128276750Y-95360000D01*
X128435500Y-95201250D01*
X128435500Y-94127000D01*
X127498750Y-94127000D01*
X127340000Y-94285750D01*
X127336928Y-94725000D01*
X121916252Y-94725000D01*
X121826346Y-94185564D01*
X121769436Y-93275000D01*
X127336928Y-93275000D01*
X127340000Y-93714250D01*
X127498750Y-93873000D01*
X128435500Y-93873000D01*
X128435500Y-92798750D01*
X128276750Y-92640000D01*
X127975000Y-92636928D01*
X127850518Y-92649188D01*
X127730820Y-92685498D01*
X127620506Y-92744463D01*
X127523815Y-92823815D01*
X127444463Y-92920506D01*
X127385498Y-93030820D01*
X127349188Y-93150518D01*
X127336928Y-93275000D01*
X121769436Y-93275000D01*
X121726753Y-92592078D01*
X121726561Y-92589453D01*
X121627000Y-91394721D01*
X121627000Y-90000200D01*
X122761428Y-90000200D01*
X122773688Y-90124682D01*
X122809998Y-90244380D01*
X122868963Y-90354694D01*
X122948315Y-90451385D01*
X123045006Y-90530737D01*
X123155320Y-90589702D01*
X123275018Y-90626012D01*
X123399500Y-90638272D01*
X123850350Y-90635200D01*
X124009100Y-90476450D01*
X124009100Y-88527000D01*
X124263100Y-88527000D01*
X124263100Y-90476450D01*
X124421850Y-90635200D01*
X124872700Y-90638272D01*
X124997182Y-90626012D01*
X125116880Y-90589702D01*
X125227194Y-90530737D01*
X125323885Y-90451385D01*
X125403237Y-90354694D01*
X125462202Y-90244380D01*
X125498512Y-90124682D01*
X125510772Y-90000200D01*
X125508101Y-88857200D01*
X129289228Y-88857200D01*
X129301488Y-88981682D01*
X129337798Y-89101380D01*
X129396763Y-89211694D01*
X129476115Y-89308385D01*
X129572806Y-89387737D01*
X129683120Y-89446702D01*
X129802818Y-89483012D01*
X129927300Y-89495272D01*
X130378150Y-89492200D01*
X130536900Y-89333450D01*
X130536900Y-88527000D01*
X130790900Y-88527000D01*
X130790900Y-89333450D01*
X130949650Y-89492200D01*
X131400500Y-89495272D01*
X131524982Y-89483012D01*
X131644680Y-89446702D01*
X131754994Y-89387737D01*
X131851685Y-89308385D01*
X131931037Y-89211694D01*
X131990002Y-89101380D01*
X132026312Y-88981682D01*
X132038572Y-88857200D01*
X132035500Y-88685750D01*
X131876750Y-88527000D01*
X130790900Y-88527000D01*
X130536900Y-88527000D01*
X129451050Y-88527000D01*
X129292300Y-88685750D01*
X129289228Y-88857200D01*
X125508101Y-88857200D01*
X125507700Y-88685750D01*
X125348950Y-88527000D01*
X124263100Y-88527000D01*
X124009100Y-88527000D01*
X122923250Y-88527000D01*
X122764500Y-88685750D01*
X122761428Y-90000200D01*
X121627000Y-90000200D01*
X121627000Y-88405279D01*
X121726471Y-87211627D01*
X121767653Y-86799800D01*
X122761428Y-86799800D01*
X122764500Y-88114250D01*
X122923250Y-88273000D01*
X124009100Y-88273000D01*
X124009100Y-86323550D01*
X124263100Y-86323550D01*
X124263100Y-88273000D01*
X125348950Y-88273000D01*
X125507700Y-88114250D01*
X125508100Y-87942800D01*
X129289228Y-87942800D01*
X129292300Y-88114250D01*
X129451050Y-88273000D01*
X130536900Y-88273000D01*
X130536900Y-87466550D01*
X130790900Y-87466550D01*
X130790900Y-88273000D01*
X131876750Y-88273000D01*
X132035500Y-88114250D01*
X132038572Y-87942800D01*
X132026312Y-87818318D01*
X131990002Y-87698620D01*
X131931037Y-87588306D01*
X131851685Y-87491615D01*
X131754994Y-87412263D01*
X131644680Y-87353298D01*
X131524982Y-87316988D01*
X131400500Y-87304728D01*
X130949650Y-87307800D01*
X130790900Y-87466550D01*
X130536900Y-87466550D01*
X130378150Y-87307800D01*
X129927300Y-87304728D01*
X129802818Y-87316988D01*
X129683120Y-87353298D01*
X129572806Y-87412263D01*
X129476115Y-87491615D01*
X129396763Y-87588306D01*
X129337798Y-87698620D01*
X129301488Y-87818318D01*
X129289228Y-87942800D01*
X125508100Y-87942800D01*
X125510772Y-86799800D01*
X125498512Y-86675318D01*
X125462202Y-86555620D01*
X125403237Y-86445306D01*
X125323885Y-86348615D01*
X125227194Y-86269263D01*
X125116880Y-86210298D01*
X124997182Y-86173988D01*
X124872700Y-86161728D01*
X124421850Y-86164800D01*
X124263100Y-86323550D01*
X124009100Y-86323550D01*
X123850350Y-86164800D01*
X123399500Y-86161728D01*
X123275018Y-86173988D01*
X123155320Y-86210298D01*
X123045006Y-86269263D01*
X122948315Y-86348615D01*
X122868963Y-86445306D01*
X122809998Y-86555620D01*
X122773688Y-86675318D01*
X122761428Y-86799800D01*
X121767653Y-86799800D01*
X121826217Y-86214172D01*
X121925875Y-85416904D01*
X122175226Y-83671447D01*
X122264515Y-83225000D01*
X127299428Y-83225000D01*
X127311688Y-83349482D01*
X127347998Y-83469180D01*
X127406963Y-83579494D01*
X127486315Y-83676185D01*
X127583006Y-83755537D01*
X127693320Y-83814502D01*
X127813018Y-83850812D01*
X127937500Y-83863072D01*
X128239250Y-83860000D01*
X128398000Y-83701250D01*
X128398000Y-82627000D01*
X127461250Y-82627000D01*
X127302500Y-82785750D01*
X127299428Y-83225000D01*
X122264515Y-83225000D01*
X122554515Y-81775000D01*
X127299428Y-81775000D01*
X127302500Y-82214250D01*
X127461250Y-82373000D01*
X128398000Y-82373000D01*
X128398000Y-81298750D01*
X128239250Y-81140000D01*
X127937500Y-81136928D01*
X127813018Y-81149188D01*
X127693320Y-81185498D01*
X127583006Y-81244463D01*
X127486315Y-81323815D01*
X127406963Y-81420506D01*
X127347998Y-81530820D01*
X127311688Y-81650518D01*
X127299428Y-81775000D01*
X122554515Y-81775000D01*
X122623943Y-81427862D01*
X122974658Y-80025000D01*
X127336928Y-80025000D01*
X127349188Y-80149482D01*
X127385498Y-80269180D01*
X127444463Y-80379494D01*
X127523815Y-80476185D01*
X127620506Y-80555537D01*
X127730820Y-80614502D01*
X127850518Y-80650812D01*
X127975000Y-80663072D01*
X128276750Y-80660000D01*
X128435500Y-80501250D01*
X128435500Y-79427000D01*
X127498750Y-79427000D01*
X127340000Y-79585750D01*
X127336928Y-80025000D01*
X122974658Y-80025000D01*
X123222024Y-79035538D01*
X123375536Y-78575000D01*
X127336928Y-78575000D01*
X127340000Y-79014250D01*
X127498750Y-79173000D01*
X128435500Y-79173000D01*
X128435500Y-78098750D01*
X128276750Y-77940000D01*
X127975000Y-77936928D01*
X127850518Y-77949188D01*
X127730820Y-77985498D01*
X127620506Y-78044463D01*
X127523815Y-78123815D01*
X127444463Y-78220506D01*
X127385498Y-78330820D01*
X127349188Y-78450518D01*
X127336928Y-78575000D01*
X123375536Y-78575000D01*
X123519739Y-78142393D01*
X123818914Y-77344593D01*
X123819760Y-77342268D01*
X124418508Y-75645816D01*
X125106219Y-74012500D01*
X129336928Y-74012500D01*
X129340000Y-74314250D01*
X129498750Y-74473000D01*
X130573000Y-74473000D01*
X130573000Y-73536250D01*
X130827000Y-73536250D01*
X130827000Y-74473000D01*
X131901250Y-74473000D01*
X132060000Y-74314250D01*
X132063072Y-74012500D01*
X132059379Y-73975000D01*
X132236928Y-73975000D01*
X132240000Y-74276750D01*
X132398750Y-74435500D01*
X133473000Y-74435500D01*
X133473000Y-73498750D01*
X133727000Y-73498750D01*
X133727000Y-74435500D01*
X134801250Y-74435500D01*
X134960000Y-74276750D01*
X134963072Y-73975000D01*
X134950812Y-73850518D01*
X134914502Y-73730820D01*
X134855537Y-73620506D01*
X134776185Y-73523815D01*
X134679494Y-73444463D01*
X134569180Y-73385498D01*
X134449482Y-73349188D01*
X134325000Y-73336928D01*
X133885750Y-73340000D01*
X133727000Y-73498750D01*
X133473000Y-73498750D01*
X133314250Y-73340000D01*
X132875000Y-73336928D01*
X132750518Y-73349188D01*
X132630820Y-73385498D01*
X132520506Y-73444463D01*
X132423815Y-73523815D01*
X132344463Y-73620506D01*
X132285498Y-73730820D01*
X132249188Y-73850518D01*
X132236928Y-73975000D01*
X132059379Y-73975000D01*
X132050812Y-73888018D01*
X132014502Y-73768320D01*
X131955537Y-73658006D01*
X131876185Y-73561315D01*
X131779494Y-73481963D01*
X131669180Y-73422998D01*
X131549482Y-73386688D01*
X131425000Y-73374428D01*
X130985750Y-73377500D01*
X130827000Y-73536250D01*
X130573000Y-73536250D01*
X130414250Y-73377500D01*
X129975000Y-73374428D01*
X129850518Y-73386688D01*
X129730820Y-73422998D01*
X129620506Y-73481963D01*
X129523815Y-73561315D01*
X129444463Y-73658006D01*
X129385498Y-73768320D01*
X129349188Y-73888018D01*
X129336928Y-74012500D01*
X125106219Y-74012500D01*
X125215445Y-73753089D01*
X125912723Y-72358534D01*
X126609873Y-71063826D01*
X127607186Y-69468126D01*
X128704610Y-67772107D01*
X129799554Y-66279002D01*
X130995709Y-64883487D01*
X131794477Y-63984874D01*
X132790352Y-62889411D01*
X134186081Y-61593377D01*
X135381208Y-60497844D01*
X138175028Y-58402479D01*
X139567560Y-57407814D01*
X139627718Y-57375000D01*
X152236928Y-57375000D01*
X152240000Y-57676750D01*
X152398750Y-57835500D01*
X153473000Y-57835500D01*
X153473000Y-56898750D01*
X153727000Y-56898750D01*
X153727000Y-57835500D01*
X154801250Y-57835500D01*
X154960000Y-57676750D01*
X154961693Y-57510390D01*
X155459360Y-57510390D01*
X155618110Y-57669140D01*
X156957960Y-57669140D01*
X156957960Y-57040490D01*
X157211960Y-57040490D01*
X157211960Y-57669140D01*
X158551810Y-57669140D01*
X158710560Y-57510390D01*
X158701068Y-57390740D01*
X158664467Y-57271130D01*
X158605235Y-57160960D01*
X158525649Y-57064461D01*
X158428765Y-56985344D01*
X158318308Y-56926647D01*
X158198522Y-56890628D01*
X158074011Y-56878670D01*
X157370710Y-56881740D01*
X157211960Y-57040490D01*
X156957960Y-57040490D01*
X156799210Y-56881740D01*
X156095909Y-56878670D01*
X155971398Y-56890628D01*
X155851612Y-56926647D01*
X155741155Y-56985344D01*
X155644271Y-57064461D01*
X155564685Y-57160960D01*
X155505453Y-57271130D01*
X155468852Y-57390740D01*
X155459360Y-57510390D01*
X154961693Y-57510390D01*
X154963072Y-57375000D01*
X154950812Y-57250518D01*
X154914502Y-57130820D01*
X154855537Y-57020506D01*
X154776185Y-56923815D01*
X154679494Y-56844463D01*
X154569180Y-56785498D01*
X154449482Y-56749188D01*
X154325000Y-56736928D01*
X153885750Y-56740000D01*
X153727000Y-56898750D01*
X153473000Y-56898750D01*
X153314250Y-56740000D01*
X152875000Y-56736928D01*
X152750518Y-56749188D01*
X152630820Y-56785498D01*
X152520506Y-56844463D01*
X152423815Y-56923815D01*
X152344463Y-57020506D01*
X152285498Y-57130820D01*
X152249188Y-57250518D01*
X152236928Y-57375000D01*
X139627718Y-57375000D01*
X141759861Y-56212013D01*
X142814364Y-55659654D01*
X177515845Y-55653656D01*
X179436692Y-56710122D01*
G37*
G04 #@! TD.AperFunction*
D24*
X186373000Y-110174602D02*
X184124604Y-112423000D01*
X182138801Y-112423000D01*
X182043331Y-112306669D01*
X181894747Y-112184730D01*
X181725228Y-112094120D01*
X181621501Y-112062655D01*
X181662500Y-112063072D01*
X181786982Y-112050812D01*
X181906680Y-112014502D01*
X182016994Y-111955537D01*
X182113685Y-111876185D01*
X182193037Y-111779494D01*
X182252002Y-111669180D01*
X182288312Y-111549482D01*
X182300572Y-111425000D01*
X182297500Y-110985750D01*
X182138750Y-110827000D01*
X181202000Y-110827000D01*
X181202000Y-110847000D01*
X180948000Y-110847000D01*
X180948000Y-110827000D01*
X180928000Y-110827000D01*
X180928000Y-110573000D01*
X180948000Y-110573000D01*
X180948000Y-110553000D01*
X181202000Y-110553000D01*
X181202000Y-110573000D01*
X182138750Y-110573000D01*
X182297500Y-110414250D01*
X182300572Y-109975000D01*
X182288312Y-109850518D01*
X182252002Y-109730820D01*
X182193037Y-109620506D01*
X182113685Y-109523815D01*
X182016994Y-109444463D01*
X181906680Y-109385498D01*
X181786982Y-109349188D01*
X181662500Y-109336928D01*
X181621501Y-109337345D01*
X181655604Y-109327000D01*
X184800000Y-109327000D01*
X184824776Y-109324560D01*
X184848601Y-109317333D01*
X184870557Y-109305597D01*
X184889803Y-109289803D01*
X186373000Y-107806606D01*
X186373000Y-110174602D01*
G04 #@! TA.AperFunction,Conductor*
D25*
G36*
X186373000Y-110174602D02*
G01*
X184124604Y-112423000D01*
X182138801Y-112423000D01*
X182043331Y-112306669D01*
X181894747Y-112184730D01*
X181725228Y-112094120D01*
X181621501Y-112062655D01*
X181662500Y-112063072D01*
X181786982Y-112050812D01*
X181906680Y-112014502D01*
X182016994Y-111955537D01*
X182113685Y-111876185D01*
X182193037Y-111779494D01*
X182252002Y-111669180D01*
X182288312Y-111549482D01*
X182300572Y-111425000D01*
X182297500Y-110985750D01*
X182138750Y-110827000D01*
X181202000Y-110827000D01*
X181202000Y-110847000D01*
X180948000Y-110847000D01*
X180948000Y-110827000D01*
X180928000Y-110827000D01*
X180928000Y-110573000D01*
X180948000Y-110573000D01*
X180948000Y-110553000D01*
X181202000Y-110553000D01*
X181202000Y-110573000D01*
X182138750Y-110573000D01*
X182297500Y-110414250D01*
X182300572Y-109975000D01*
X182288312Y-109850518D01*
X182252002Y-109730820D01*
X182193037Y-109620506D01*
X182113685Y-109523815D01*
X182016994Y-109444463D01*
X181906680Y-109385498D01*
X181786982Y-109349188D01*
X181662500Y-109336928D01*
X181621501Y-109337345D01*
X181655604Y-109327000D01*
X184800000Y-109327000D01*
X184824776Y-109324560D01*
X184848601Y-109317333D01*
X184870557Y-109305597D01*
X184889803Y-109289803D01*
X186373000Y-107806606D01*
X186373000Y-110174602D01*
G37*
G04 #@! TD.AperFunction*
D24*
X182912604Y-74737121D02*
X182886714Y-74785558D01*
X182845144Y-74922598D01*
X182831107Y-75065115D01*
X182845144Y-75207632D01*
X182886714Y-75344672D01*
X182954221Y-75470968D01*
X183045070Y-75581669D01*
X183052228Y-75588827D01*
X183052228Y-76526274D01*
X182939369Y-76639133D01*
X183118977Y-76818741D01*
X183231836Y-76705882D01*
X184169283Y-76705882D01*
X184176441Y-76713040D01*
X184287142Y-76803889D01*
X184413438Y-76871396D01*
X184550478Y-76912966D01*
X184692995Y-76927003D01*
X184835512Y-76912966D01*
X184972552Y-76871396D01*
X185020989Y-76845506D01*
X189935511Y-81760028D01*
X189935510Y-96038221D01*
X189760750Y-96040000D01*
X189602000Y-96198750D01*
X189602000Y-97273000D01*
X189622000Y-97273000D01*
X189622000Y-97527000D01*
X189602000Y-97527000D01*
X189602000Y-98601250D01*
X189760750Y-98760000D01*
X189935510Y-98761779D01*
X189935510Y-108309163D01*
X188427000Y-109817673D01*
X188427000Y-98571473D01*
X188430256Y-98568801D01*
X188436315Y-98576185D01*
X188533006Y-98655537D01*
X188643320Y-98714502D01*
X188763018Y-98750812D01*
X188887500Y-98763072D01*
X189189250Y-98760000D01*
X189348000Y-98601250D01*
X189348000Y-97527000D01*
X189328000Y-97527000D01*
X189328000Y-97273000D01*
X189348000Y-97273000D01*
X189348000Y-96198750D01*
X189189250Y-96040000D01*
X188887500Y-96036928D01*
X188763018Y-96049188D01*
X188643320Y-96085498D01*
X188533006Y-96144463D01*
X188436315Y-96223815D01*
X188430256Y-96231199D01*
X188282246Y-96109730D01*
X188112728Y-96019120D01*
X187928789Y-95963323D01*
X187737500Y-95944483D01*
X187062500Y-95944483D01*
X186871211Y-95963323D01*
X186687272Y-96019120D01*
X186517754Y-96109730D01*
X186369170Y-96231670D01*
X186253183Y-96373000D01*
X185690853Y-96373000D01*
X185674910Y-96320443D01*
X185607403Y-96194147D01*
X185516554Y-96083446D01*
X185405853Y-95992597D01*
X185279557Y-95925090D01*
X185192000Y-95898530D01*
X185192000Y-94384917D01*
X185714400Y-94384917D01*
X185856917Y-94370880D01*
X185993957Y-94329310D01*
X186070000Y-94288664D01*
X186146043Y-94329310D01*
X186283083Y-94370880D01*
X186425600Y-94384917D01*
X186984400Y-94384917D01*
X187126917Y-94370880D01*
X187263957Y-94329310D01*
X187390253Y-94261803D01*
X187500954Y-94170954D01*
X187591803Y-94060253D01*
X187659310Y-93933957D01*
X187700880Y-93796917D01*
X187714917Y-93654400D01*
X187714917Y-91673200D01*
X187700880Y-91530683D01*
X187659310Y-91393643D01*
X187591803Y-91267347D01*
X187500954Y-91156646D01*
X187390253Y-91065797D01*
X187263957Y-90998290D01*
X187126917Y-90956720D01*
X186984400Y-90942683D01*
X186425600Y-90942683D01*
X186283083Y-90956720D01*
X186146043Y-90998290D01*
X186070000Y-91038936D01*
X185993957Y-90998290D01*
X185856917Y-90956720D01*
X185714400Y-90942683D01*
X185155600Y-90942683D01*
X185013083Y-90956720D01*
X184876043Y-90998290D01*
X184800000Y-91038936D01*
X184723957Y-90998290D01*
X184586917Y-90956720D01*
X184444400Y-90942683D01*
X183885600Y-90942683D01*
X183743083Y-90956720D01*
X183606043Y-90998290D01*
X183530000Y-91038936D01*
X183453957Y-90998290D01*
X183316917Y-90956720D01*
X183174400Y-90942683D01*
X182615600Y-90942683D01*
X182473083Y-90956720D01*
X182336043Y-90998290D01*
X182209747Y-91065797D01*
X182099046Y-91156646D01*
X182008197Y-91267347D01*
X181940690Y-91393643D01*
X181899120Y-91530683D01*
X181885083Y-91673200D01*
X181885083Y-91773000D01*
X181827000Y-91773000D01*
X181827000Y-86452606D01*
X181868001Y-86411605D01*
X181868000Y-87786650D01*
X181882860Y-87937526D01*
X181885083Y-87944854D01*
X181885083Y-88726800D01*
X181899120Y-88869317D01*
X181940690Y-89006357D01*
X182008197Y-89132653D01*
X182099046Y-89243354D01*
X182209747Y-89334203D01*
X182336043Y-89401710D01*
X182473083Y-89443280D01*
X182615600Y-89457317D01*
X183174400Y-89457317D01*
X183316917Y-89443280D01*
X183453957Y-89401710D01*
X183530000Y-89361064D01*
X183606043Y-89401710D01*
X183743083Y-89443280D01*
X183885600Y-89457317D01*
X184444400Y-89457317D01*
X184586917Y-89443280D01*
X184723957Y-89401710D01*
X184800000Y-89361064D01*
X184876043Y-89401710D01*
X185013083Y-89443280D01*
X185155600Y-89457317D01*
X185714400Y-89457317D01*
X185856917Y-89443280D01*
X185993957Y-89401710D01*
X186120253Y-89334203D01*
X186157515Y-89303623D01*
X186179990Y-89315707D01*
X186299600Y-89352308D01*
X186419250Y-89361800D01*
X186578000Y-89203050D01*
X186578000Y-87863200D01*
X186832000Y-87863200D01*
X186832000Y-89203050D01*
X186990750Y-89361800D01*
X187110400Y-89352308D01*
X187230010Y-89315707D01*
X187340180Y-89256475D01*
X187436679Y-89176889D01*
X187515796Y-89080005D01*
X187574493Y-88969548D01*
X187610512Y-88849762D01*
X187622470Y-88725251D01*
X187619400Y-88021950D01*
X187460650Y-87863200D01*
X186832000Y-87863200D01*
X186578000Y-87863200D01*
X186558000Y-87863200D01*
X186558000Y-87609200D01*
X186578000Y-87609200D01*
X186578000Y-86269350D01*
X186832000Y-86269350D01*
X186832000Y-87609200D01*
X187460650Y-87609200D01*
X187619400Y-87450450D01*
X187622470Y-86747149D01*
X187610512Y-86622638D01*
X187574493Y-86502852D01*
X187515796Y-86392395D01*
X187436679Y-86295511D01*
X187340180Y-86215925D01*
X187230010Y-86156693D01*
X187110400Y-86120092D01*
X186990750Y-86110600D01*
X186832000Y-86269350D01*
X186578000Y-86269350D01*
X186419250Y-86110600D01*
X186299600Y-86120092D01*
X186179990Y-86156693D01*
X186157515Y-86168777D01*
X186120253Y-86138197D01*
X185993957Y-86070690D01*
X185856917Y-86029120D01*
X185714400Y-86015083D01*
X185192000Y-86015083D01*
X185192000Y-85727000D01*
X186500000Y-85727000D01*
X186524776Y-85724560D01*
X186548601Y-85717333D01*
X186570557Y-85705597D01*
X186589803Y-85689803D01*
X186605597Y-85670557D01*
X186617333Y-85648601D01*
X186624560Y-85624776D01*
X186627000Y-85600000D01*
X186627000Y-85247250D01*
X186673000Y-85201250D01*
X186673000Y-84127000D01*
X186927000Y-84127000D01*
X186927000Y-85201250D01*
X187085750Y-85360000D01*
X187387500Y-85363072D01*
X187511982Y-85350812D01*
X187631680Y-85314502D01*
X187741994Y-85255537D01*
X187838685Y-85176185D01*
X187918037Y-85079494D01*
X187977002Y-84969180D01*
X188013312Y-84849482D01*
X188025572Y-84725000D01*
X188022500Y-84285750D01*
X187863750Y-84127000D01*
X186927000Y-84127000D01*
X186673000Y-84127000D01*
X186653000Y-84127000D01*
X186653000Y-83873000D01*
X186673000Y-83873000D01*
X186673000Y-82798750D01*
X186927000Y-82798750D01*
X186927000Y-83873000D01*
X187863750Y-83873000D01*
X188022500Y-83714250D01*
X188025572Y-83275000D01*
X188013312Y-83150518D01*
X187977002Y-83030820D01*
X187918037Y-82920506D01*
X187838685Y-82823815D01*
X187741994Y-82744463D01*
X187631680Y-82685498D01*
X187511982Y-82649188D01*
X187387500Y-82636928D01*
X187085750Y-82640000D01*
X186927000Y-82798750D01*
X186673000Y-82798750D01*
X186627000Y-82752750D01*
X186627000Y-82000000D01*
X186624560Y-81975224D01*
X186617333Y-81951399D01*
X186605597Y-81929443D01*
X186585817Y-81906381D01*
X185385817Y-80806381D01*
X185365904Y-80791438D01*
X185343458Y-80780667D01*
X185319343Y-80774482D01*
X185300000Y-80773000D01*
X182953915Y-80773000D01*
X180227000Y-77948695D01*
X180227000Y-77183011D01*
X181526440Y-77183011D01*
X181621624Y-77449173D01*
X181766905Y-77691652D01*
X181956700Y-77901129D01*
X182183715Y-78069553D01*
X182439226Y-78190453D01*
X182575099Y-78231670D01*
X182798228Y-78109775D01*
X182798228Y-76959882D01*
X183052228Y-76959882D01*
X183052228Y-78109775D01*
X183275357Y-78231670D01*
X183541519Y-78136486D01*
X183783998Y-77991205D01*
X183993475Y-77801410D01*
X184161899Y-77574395D01*
X184282799Y-77318884D01*
X184324016Y-77183011D01*
X184202121Y-76959882D01*
X183052228Y-76959882D01*
X182798228Y-76959882D01*
X181648335Y-76959882D01*
X181526440Y-77183011D01*
X180227000Y-77183011D01*
X180227000Y-76482753D01*
X181526440Y-76482753D01*
X181648335Y-76705882D01*
X182798228Y-76705882D01*
X182798228Y-75555989D01*
X182575099Y-75434094D01*
X182308937Y-75529278D01*
X182066458Y-75674559D01*
X181856981Y-75864354D01*
X181688557Y-76091369D01*
X181567657Y-76346880D01*
X181526440Y-76482753D01*
X180227000Y-76482753D01*
X180227000Y-73931956D01*
X180294414Y-73864542D01*
X180376841Y-73932188D01*
X180503137Y-73999695D01*
X180640177Y-74041265D01*
X180782694Y-74055302D01*
X180925211Y-74041265D01*
X181062251Y-73999695D01*
X181188547Y-73932188D01*
X181299248Y-73841339D01*
X181658035Y-73482552D01*
X182912604Y-74737121D01*
G04 #@! TA.AperFunction,Conductor*
D25*
G36*
X182912604Y-74737121D02*
G01*
X182886714Y-74785558D01*
X182845144Y-74922598D01*
X182831107Y-75065115D01*
X182845144Y-75207632D01*
X182886714Y-75344672D01*
X182954221Y-75470968D01*
X183045070Y-75581669D01*
X183052228Y-75588827D01*
X183052228Y-76526274D01*
X182939369Y-76639133D01*
X183118977Y-76818741D01*
X183231836Y-76705882D01*
X184169283Y-76705882D01*
X184176441Y-76713040D01*
X184287142Y-76803889D01*
X184413438Y-76871396D01*
X184550478Y-76912966D01*
X184692995Y-76927003D01*
X184835512Y-76912966D01*
X184972552Y-76871396D01*
X185020989Y-76845506D01*
X189935511Y-81760028D01*
X189935510Y-96038221D01*
X189760750Y-96040000D01*
X189602000Y-96198750D01*
X189602000Y-97273000D01*
X189622000Y-97273000D01*
X189622000Y-97527000D01*
X189602000Y-97527000D01*
X189602000Y-98601250D01*
X189760750Y-98760000D01*
X189935510Y-98761779D01*
X189935510Y-108309163D01*
X188427000Y-109817673D01*
X188427000Y-98571473D01*
X188430256Y-98568801D01*
X188436315Y-98576185D01*
X188533006Y-98655537D01*
X188643320Y-98714502D01*
X188763018Y-98750812D01*
X188887500Y-98763072D01*
X189189250Y-98760000D01*
X189348000Y-98601250D01*
X189348000Y-97527000D01*
X189328000Y-97527000D01*
X189328000Y-97273000D01*
X189348000Y-97273000D01*
X189348000Y-96198750D01*
X189189250Y-96040000D01*
X188887500Y-96036928D01*
X188763018Y-96049188D01*
X188643320Y-96085498D01*
X188533006Y-96144463D01*
X188436315Y-96223815D01*
X188430256Y-96231199D01*
X188282246Y-96109730D01*
X188112728Y-96019120D01*
X187928789Y-95963323D01*
X187737500Y-95944483D01*
X187062500Y-95944483D01*
X186871211Y-95963323D01*
X186687272Y-96019120D01*
X186517754Y-96109730D01*
X186369170Y-96231670D01*
X186253183Y-96373000D01*
X185690853Y-96373000D01*
X185674910Y-96320443D01*
X185607403Y-96194147D01*
X185516554Y-96083446D01*
X185405853Y-95992597D01*
X185279557Y-95925090D01*
X185192000Y-95898530D01*
X185192000Y-94384917D01*
X185714400Y-94384917D01*
X185856917Y-94370880D01*
X185993957Y-94329310D01*
X186070000Y-94288664D01*
X186146043Y-94329310D01*
X186283083Y-94370880D01*
X186425600Y-94384917D01*
X186984400Y-94384917D01*
X187126917Y-94370880D01*
X187263957Y-94329310D01*
X187390253Y-94261803D01*
X187500954Y-94170954D01*
X187591803Y-94060253D01*
X187659310Y-93933957D01*
X187700880Y-93796917D01*
X187714917Y-93654400D01*
X187714917Y-91673200D01*
X187700880Y-91530683D01*
X187659310Y-91393643D01*
X187591803Y-91267347D01*
X187500954Y-91156646D01*
X187390253Y-91065797D01*
X187263957Y-90998290D01*
X187126917Y-90956720D01*
X186984400Y-90942683D01*
X186425600Y-90942683D01*
X186283083Y-90956720D01*
X186146043Y-90998290D01*
X186070000Y-91038936D01*
X185993957Y-90998290D01*
X185856917Y-90956720D01*
X185714400Y-90942683D01*
X185155600Y-90942683D01*
X185013083Y-90956720D01*
X184876043Y-90998290D01*
X184800000Y-91038936D01*
X184723957Y-90998290D01*
X184586917Y-90956720D01*
X184444400Y-90942683D01*
X183885600Y-90942683D01*
X183743083Y-90956720D01*
X183606043Y-90998290D01*
X183530000Y-91038936D01*
X183453957Y-90998290D01*
X183316917Y-90956720D01*
X183174400Y-90942683D01*
X182615600Y-90942683D01*
X182473083Y-90956720D01*
X182336043Y-90998290D01*
X182209747Y-91065797D01*
X182099046Y-91156646D01*
X182008197Y-91267347D01*
X181940690Y-91393643D01*
X181899120Y-91530683D01*
X181885083Y-91673200D01*
X181885083Y-91773000D01*
X181827000Y-91773000D01*
X181827000Y-86452606D01*
X181868001Y-86411605D01*
X181868000Y-87786650D01*
X181882860Y-87937526D01*
X181885083Y-87944854D01*
X181885083Y-88726800D01*
X181899120Y-88869317D01*
X181940690Y-89006357D01*
X182008197Y-89132653D01*
X182099046Y-89243354D01*
X182209747Y-89334203D01*
X182336043Y-89401710D01*
X182473083Y-89443280D01*
X182615600Y-89457317D01*
X183174400Y-89457317D01*
X183316917Y-89443280D01*
X183453957Y-89401710D01*
X183530000Y-89361064D01*
X183606043Y-89401710D01*
X183743083Y-89443280D01*
X183885600Y-89457317D01*
X184444400Y-89457317D01*
X184586917Y-89443280D01*
X184723957Y-89401710D01*
X184800000Y-89361064D01*
X184876043Y-89401710D01*
X185013083Y-89443280D01*
X185155600Y-89457317D01*
X185714400Y-89457317D01*
X185856917Y-89443280D01*
X185993957Y-89401710D01*
X186120253Y-89334203D01*
X186157515Y-89303623D01*
X186179990Y-89315707D01*
X186299600Y-89352308D01*
X186419250Y-89361800D01*
X186578000Y-89203050D01*
X186578000Y-87863200D01*
X186832000Y-87863200D01*
X186832000Y-89203050D01*
X186990750Y-89361800D01*
X187110400Y-89352308D01*
X187230010Y-89315707D01*
X187340180Y-89256475D01*
X187436679Y-89176889D01*
X187515796Y-89080005D01*
X187574493Y-88969548D01*
X187610512Y-88849762D01*
X187622470Y-88725251D01*
X187619400Y-88021950D01*
X187460650Y-87863200D01*
X186832000Y-87863200D01*
X186578000Y-87863200D01*
X186558000Y-87863200D01*
X186558000Y-87609200D01*
X186578000Y-87609200D01*
X186578000Y-86269350D01*
X186832000Y-86269350D01*
X186832000Y-87609200D01*
X187460650Y-87609200D01*
X187619400Y-87450450D01*
X187622470Y-86747149D01*
X187610512Y-86622638D01*
X187574493Y-86502852D01*
X187515796Y-86392395D01*
X187436679Y-86295511D01*
X187340180Y-86215925D01*
X187230010Y-86156693D01*
X187110400Y-86120092D01*
X186990750Y-86110600D01*
X186832000Y-86269350D01*
X186578000Y-86269350D01*
X186419250Y-86110600D01*
X186299600Y-86120092D01*
X186179990Y-86156693D01*
X186157515Y-86168777D01*
X186120253Y-86138197D01*
X185993957Y-86070690D01*
X185856917Y-86029120D01*
X185714400Y-86015083D01*
X185192000Y-86015083D01*
X185192000Y-85727000D01*
X186500000Y-85727000D01*
X186524776Y-85724560D01*
X186548601Y-85717333D01*
X186570557Y-85705597D01*
X186589803Y-85689803D01*
X186605597Y-85670557D01*
X186617333Y-85648601D01*
X186624560Y-85624776D01*
X186627000Y-85600000D01*
X186627000Y-85247250D01*
X186673000Y-85201250D01*
X186673000Y-84127000D01*
X186927000Y-84127000D01*
X186927000Y-85201250D01*
X187085750Y-85360000D01*
X187387500Y-85363072D01*
X187511982Y-85350812D01*
X187631680Y-85314502D01*
X187741994Y-85255537D01*
X187838685Y-85176185D01*
X187918037Y-85079494D01*
X187977002Y-84969180D01*
X188013312Y-84849482D01*
X188025572Y-84725000D01*
X188022500Y-84285750D01*
X187863750Y-84127000D01*
X186927000Y-84127000D01*
X186673000Y-84127000D01*
X186653000Y-84127000D01*
X186653000Y-83873000D01*
X186673000Y-83873000D01*
X186673000Y-82798750D01*
X186927000Y-82798750D01*
X186927000Y-83873000D01*
X187863750Y-83873000D01*
X188022500Y-83714250D01*
X188025572Y-83275000D01*
X188013312Y-83150518D01*
X187977002Y-83030820D01*
X187918037Y-82920506D01*
X187838685Y-82823815D01*
X187741994Y-82744463D01*
X187631680Y-82685498D01*
X187511982Y-82649188D01*
X187387500Y-82636928D01*
X187085750Y-82640000D01*
X186927000Y-82798750D01*
X186673000Y-82798750D01*
X186627000Y-82752750D01*
X186627000Y-82000000D01*
X186624560Y-81975224D01*
X186617333Y-81951399D01*
X186605597Y-81929443D01*
X186585817Y-81906381D01*
X185385817Y-80806381D01*
X185365904Y-80791438D01*
X185343458Y-80780667D01*
X185319343Y-80774482D01*
X185300000Y-80773000D01*
X182953915Y-80773000D01*
X180227000Y-77948695D01*
X180227000Y-77183011D01*
X181526440Y-77183011D01*
X181621624Y-77449173D01*
X181766905Y-77691652D01*
X181956700Y-77901129D01*
X182183715Y-78069553D01*
X182439226Y-78190453D01*
X182575099Y-78231670D01*
X182798228Y-78109775D01*
X182798228Y-76959882D01*
X183052228Y-76959882D01*
X183052228Y-78109775D01*
X183275357Y-78231670D01*
X183541519Y-78136486D01*
X183783998Y-77991205D01*
X183993475Y-77801410D01*
X184161899Y-77574395D01*
X184282799Y-77318884D01*
X184324016Y-77183011D01*
X184202121Y-76959882D01*
X183052228Y-76959882D01*
X182798228Y-76959882D01*
X181648335Y-76959882D01*
X181526440Y-77183011D01*
X180227000Y-77183011D01*
X180227000Y-76482753D01*
X181526440Y-76482753D01*
X181648335Y-76705882D01*
X182798228Y-76705882D01*
X182798228Y-75555989D01*
X182575099Y-75434094D01*
X182308937Y-75529278D01*
X182066458Y-75674559D01*
X181856981Y-75864354D01*
X181688557Y-76091369D01*
X181567657Y-76346880D01*
X181526440Y-76482753D01*
X180227000Y-76482753D01*
X180227000Y-73931956D01*
X180294414Y-73864542D01*
X180376841Y-73932188D01*
X180503137Y-73999695D01*
X180640177Y-74041265D01*
X180782694Y-74055302D01*
X180925211Y-74041265D01*
X181062251Y-73999695D01*
X181188547Y-73932188D01*
X181299248Y-73841339D01*
X181658035Y-73482552D01*
X182912604Y-74737121D01*
G37*
G04 #@! TD.AperFunction*
D24*
X181940690Y-93933957D02*
X182008197Y-94060253D01*
X182099046Y-94170954D01*
X182209747Y-94261803D01*
X182336043Y-94329310D01*
X182473083Y-94370880D01*
X182615600Y-94384917D01*
X183138000Y-94384917D01*
X183138001Y-95919764D01*
X183120443Y-95925090D01*
X182994147Y-95992597D01*
X182883446Y-96083446D01*
X182792597Y-96194147D01*
X182725090Y-96320443D01*
X182709659Y-96371312D01*
X182629370Y-96291023D01*
X182513097Y-96407296D01*
X182441514Y-96163329D01*
X182186004Y-96042429D01*
X181911816Y-95973700D01*
X181629488Y-95959783D01*
X181349870Y-96001213D01*
X181083708Y-96096397D01*
X180958486Y-96163329D01*
X180886903Y-96407298D01*
X181700000Y-97220395D01*
X181714143Y-97206253D01*
X181893748Y-97385858D01*
X181879605Y-97400000D01*
X181893748Y-97414143D01*
X181714143Y-97593748D01*
X181700000Y-97579605D01*
X180886903Y-98392702D01*
X180958486Y-98636671D01*
X181213996Y-98757571D01*
X181488184Y-98826300D01*
X181770512Y-98840217D01*
X182050130Y-98798787D01*
X182316292Y-98703603D01*
X182441514Y-98636671D01*
X182513097Y-98392704D01*
X182629370Y-98508977D01*
X182709659Y-98428688D01*
X182725090Y-98479557D01*
X182792597Y-98605853D01*
X182883446Y-98716554D01*
X182994147Y-98807403D01*
X183120443Y-98874910D01*
X183257483Y-98916480D01*
X183400000Y-98930517D01*
X185000000Y-98930517D01*
X185142517Y-98916480D01*
X185279557Y-98874910D01*
X185405853Y-98807403D01*
X185516554Y-98716554D01*
X185607403Y-98605853D01*
X185674910Y-98479557D01*
X185690853Y-98427000D01*
X186253183Y-98427000D01*
X186369170Y-98568330D01*
X186373001Y-98571474D01*
X186373001Y-99873000D01*
X185444336Y-99873000D01*
X185394917Y-99846585D01*
X185201327Y-99787860D01*
X185050451Y-99773000D01*
X185050441Y-99773000D01*
X185000000Y-99768032D01*
X184949559Y-99773000D01*
X180825397Y-99773000D01*
X178827000Y-97774604D01*
X178827000Y-97470512D01*
X180259783Y-97470512D01*
X180301213Y-97750130D01*
X180396397Y-98016292D01*
X180463329Y-98141514D01*
X180707298Y-98213097D01*
X181520395Y-97400000D01*
X180707298Y-96586903D01*
X180463329Y-96658486D01*
X180342429Y-96913996D01*
X180273700Y-97188184D01*
X180259783Y-97470512D01*
X178827000Y-97470512D01*
X178827000Y-96252606D01*
X181023072Y-94056534D01*
X181025228Y-94055880D01*
X181194747Y-93965270D01*
X181343331Y-93843331D01*
X181356733Y-93827000D01*
X181908245Y-93827000D01*
X181940690Y-93933957D01*
G04 #@! TA.AperFunction,Conductor*
D25*
G36*
X181940690Y-93933957D02*
G01*
X182008197Y-94060253D01*
X182099046Y-94170954D01*
X182209747Y-94261803D01*
X182336043Y-94329310D01*
X182473083Y-94370880D01*
X182615600Y-94384917D01*
X183138000Y-94384917D01*
X183138001Y-95919764D01*
X183120443Y-95925090D01*
X182994147Y-95992597D01*
X182883446Y-96083446D01*
X182792597Y-96194147D01*
X182725090Y-96320443D01*
X182709659Y-96371312D01*
X182629370Y-96291023D01*
X182513097Y-96407296D01*
X182441514Y-96163329D01*
X182186004Y-96042429D01*
X181911816Y-95973700D01*
X181629488Y-95959783D01*
X181349870Y-96001213D01*
X181083708Y-96096397D01*
X180958486Y-96163329D01*
X180886903Y-96407298D01*
X181700000Y-97220395D01*
X181714143Y-97206253D01*
X181893748Y-97385858D01*
X181879605Y-97400000D01*
X181893748Y-97414143D01*
X181714143Y-97593748D01*
X181700000Y-97579605D01*
X180886903Y-98392702D01*
X180958486Y-98636671D01*
X181213996Y-98757571D01*
X181488184Y-98826300D01*
X181770512Y-98840217D01*
X182050130Y-98798787D01*
X182316292Y-98703603D01*
X182441514Y-98636671D01*
X182513097Y-98392704D01*
X182629370Y-98508977D01*
X182709659Y-98428688D01*
X182725090Y-98479557D01*
X182792597Y-98605853D01*
X182883446Y-98716554D01*
X182994147Y-98807403D01*
X183120443Y-98874910D01*
X183257483Y-98916480D01*
X183400000Y-98930517D01*
X185000000Y-98930517D01*
X185142517Y-98916480D01*
X185279557Y-98874910D01*
X185405853Y-98807403D01*
X185516554Y-98716554D01*
X185607403Y-98605853D01*
X185674910Y-98479557D01*
X185690853Y-98427000D01*
X186253183Y-98427000D01*
X186369170Y-98568330D01*
X186373001Y-98571474D01*
X186373001Y-99873000D01*
X185444336Y-99873000D01*
X185394917Y-99846585D01*
X185201327Y-99787860D01*
X185050451Y-99773000D01*
X185050441Y-99773000D01*
X185000000Y-99768032D01*
X184949559Y-99773000D01*
X180825397Y-99773000D01*
X178827000Y-97774604D01*
X178827000Y-97470512D01*
X180259783Y-97470512D01*
X180301213Y-97750130D01*
X180396397Y-98016292D01*
X180463329Y-98141514D01*
X180707298Y-98213097D01*
X181520395Y-97400000D01*
X180707298Y-96586903D01*
X180463329Y-96658486D01*
X180342429Y-96913996D01*
X180273700Y-97188184D01*
X180259783Y-97470512D01*
X178827000Y-97470512D01*
X178827000Y-96252606D01*
X181023072Y-94056534D01*
X181025228Y-94055880D01*
X181194747Y-93965270D01*
X181343331Y-93843331D01*
X181356733Y-93827000D01*
X181908245Y-93827000D01*
X181940690Y-93933957D01*
G37*
G04 #@! TD.AperFunction*
D24*
X187900596Y-69931668D02*
X187778279Y-70056502D01*
X187778279Y-70281008D01*
X188537888Y-71040618D01*
X188552031Y-71026476D01*
X188731636Y-71206081D01*
X188717493Y-71220223D01*
X189477103Y-71979832D01*
X189701609Y-71979832D01*
X189826442Y-71857515D01*
X191373001Y-73404074D01*
X191373001Y-80292724D01*
X186473386Y-75393109D01*
X186499276Y-75344672D01*
X186540846Y-75207632D01*
X186554883Y-75065115D01*
X186540846Y-74922598D01*
X186499276Y-74785558D01*
X186473386Y-74737121D01*
X186985918Y-74224590D01*
X187167869Y-74242510D01*
X187359158Y-74223670D01*
X187543097Y-74167873D01*
X187712615Y-74077263D01*
X187861199Y-73955323D01*
X188338496Y-73478026D01*
X188460436Y-73329442D01*
X188551046Y-73159924D01*
X188606843Y-72975985D01*
X188625610Y-72785437D01*
X188635115Y-72786373D01*
X188759596Y-72774112D01*
X188879295Y-72737803D01*
X188989609Y-72678839D01*
X189086300Y-72599486D01*
X189297497Y-72383944D01*
X189297497Y-72159438D01*
X188537888Y-71399828D01*
X188523746Y-71413971D01*
X188344141Y-71234366D01*
X188358283Y-71220223D01*
X187598673Y-70460614D01*
X187374167Y-70460614D01*
X187158625Y-70671811D01*
X187079272Y-70768502D01*
X187020308Y-70878816D01*
X186983999Y-70998515D01*
X186971738Y-71122996D01*
X186972674Y-71132501D01*
X186782126Y-71151268D01*
X186598187Y-71207065D01*
X186428669Y-71297675D01*
X186280085Y-71419615D01*
X185802788Y-71896912D01*
X185680848Y-72045496D01*
X185590238Y-72215014D01*
X185534441Y-72398953D01*
X185515601Y-72590242D01*
X185533521Y-72772193D01*
X185020990Y-73284725D01*
X184972552Y-73258834D01*
X184835512Y-73217264D01*
X184692995Y-73203227D01*
X184550478Y-73217264D01*
X184413438Y-73258834D01*
X184365001Y-73284724D01*
X183110432Y-72030155D01*
X183490431Y-71650156D01*
X183581280Y-71539455D01*
X183648787Y-71413159D01*
X183673816Y-71330647D01*
X183756328Y-71305618D01*
X183882624Y-71238111D01*
X183993325Y-71147262D01*
X184388457Y-70752130D01*
X184479306Y-70641429D01*
X184546813Y-70515133D01*
X184588383Y-70378093D01*
X184602420Y-70235576D01*
X184588383Y-70093059D01*
X184546813Y-69956019D01*
X184479306Y-69829723D01*
X184388457Y-69719022D01*
X182987537Y-68318102D01*
X182876836Y-68227253D01*
X182750540Y-68159746D01*
X182613500Y-68118176D01*
X182470983Y-68104139D01*
X182328466Y-68118176D01*
X182191426Y-68159746D01*
X182065130Y-68227253D01*
X181954429Y-68318102D01*
X181559297Y-68713234D01*
X181468448Y-68823935D01*
X181400941Y-68950231D01*
X181375912Y-69032743D01*
X181293400Y-69057772D01*
X181167104Y-69125279D01*
X181056403Y-69216128D01*
X180661271Y-69611260D01*
X180570422Y-69721961D01*
X180502915Y-69848257D01*
X180477886Y-69930768D01*
X180395375Y-69955797D01*
X180269079Y-70023304D01*
X180158378Y-70114153D01*
X179763246Y-70509285D01*
X179672397Y-70619986D01*
X179604890Y-70746282D01*
X179579861Y-70828794D01*
X179497349Y-70853823D01*
X179371053Y-70921330D01*
X179260352Y-71012179D01*
X178865220Y-71407311D01*
X178774371Y-71518012D01*
X178706864Y-71644308D01*
X178665294Y-71781348D01*
X178651257Y-71923865D01*
X178665294Y-72066382D01*
X178706864Y-72203422D01*
X178734235Y-72254629D01*
X176967591Y-70487985D01*
X177018798Y-70515356D01*
X177155838Y-70556926D01*
X177298355Y-70570963D01*
X177440872Y-70556926D01*
X177577912Y-70515356D01*
X177704208Y-70447849D01*
X177814909Y-70357000D01*
X178210041Y-69961868D01*
X178300890Y-69851167D01*
X178368397Y-69724871D01*
X178393426Y-69642359D01*
X178475938Y-69617330D01*
X178602234Y-69549823D01*
X178712935Y-69458974D01*
X179108067Y-69063842D01*
X179198916Y-68953141D01*
X179266423Y-68826845D01*
X179291452Y-68744334D01*
X179373963Y-68719305D01*
X179500259Y-68651798D01*
X179610960Y-68560949D01*
X180006092Y-68165817D01*
X180096941Y-68055116D01*
X180164448Y-67928820D01*
X180206018Y-67791780D01*
X180210743Y-67743809D01*
X180235180Y-67736461D01*
X180345638Y-67677765D01*
X180436955Y-67599872D01*
X180436955Y-67375365D01*
X179489538Y-66427948D01*
X179475396Y-66442091D01*
X179295791Y-66262486D01*
X179309933Y-66248343D01*
X179669143Y-66248343D01*
X180616560Y-67195760D01*
X180841067Y-67195760D01*
X180918960Y-67104443D01*
X180977656Y-66993985D01*
X181013675Y-66874200D01*
X181025634Y-66749689D01*
X181013071Y-66625237D01*
X180976471Y-66505627D01*
X180917239Y-66395457D01*
X180837652Y-66298958D01*
X180338172Y-65803820D01*
X180113666Y-65803820D01*
X179669143Y-66248343D01*
X179309933Y-66248343D01*
X178362516Y-65300926D01*
X178138009Y-65300926D01*
X178060116Y-65392243D01*
X178001420Y-65502701D01*
X177994072Y-65527138D01*
X177946101Y-65531863D01*
X177809061Y-65573433D01*
X177682765Y-65640940D01*
X177572064Y-65731789D01*
X177202671Y-66101182D01*
X176867966Y-65766477D01*
X176868871Y-65763495D01*
X176887638Y-65572947D01*
X176897143Y-65573883D01*
X177021624Y-65561622D01*
X177141323Y-65525313D01*
X177251637Y-65466349D01*
X177348328Y-65386996D01*
X177559525Y-65171454D01*
X177559525Y-64946948D01*
X177509392Y-64896814D01*
X178542121Y-64896814D01*
X178542121Y-65121321D01*
X179489538Y-66068738D01*
X179934061Y-65624215D01*
X179934061Y-65399709D01*
X179438923Y-64900229D01*
X179342424Y-64820642D01*
X179232254Y-64761410D01*
X179112644Y-64724810D01*
X178988192Y-64712247D01*
X178863681Y-64724206D01*
X178743896Y-64760225D01*
X178633438Y-64818921D01*
X178542121Y-64896814D01*
X177509392Y-64896814D01*
X176799916Y-64187338D01*
X176785774Y-64201481D01*
X176606169Y-64021876D01*
X176620311Y-64007733D01*
X176979521Y-64007733D01*
X177739131Y-64767342D01*
X177963637Y-64767342D01*
X178179179Y-64556145D01*
X178258532Y-64459454D01*
X178317496Y-64349140D01*
X178353805Y-64229441D01*
X178366066Y-64104960D01*
X178353805Y-63980479D01*
X178317496Y-63860781D01*
X178258532Y-63750466D01*
X178179179Y-63653775D01*
X177866410Y-63345351D01*
X177641903Y-63345351D01*
X176979521Y-64007733D01*
X176620311Y-64007733D01*
X175860701Y-63248124D01*
X175768379Y-63248124D01*
X175336398Y-62844012D01*
X176040307Y-62844012D01*
X176040307Y-63068518D01*
X176799916Y-63828128D01*
X177462298Y-63165746D01*
X177462298Y-62941239D01*
X177153874Y-62628470D01*
X177057183Y-62549117D01*
X176946868Y-62490153D01*
X176827170Y-62453844D01*
X176702689Y-62441583D01*
X176578208Y-62453844D01*
X176458509Y-62490153D01*
X176348195Y-62549117D01*
X176251504Y-62628470D01*
X176040307Y-62844012D01*
X175336398Y-62844012D01*
X173821660Y-61427000D01*
X179395929Y-61427000D01*
X187900596Y-69931668D01*
G04 #@! TA.AperFunction,Conductor*
D25*
G36*
X187900596Y-69931668D02*
G01*
X187778279Y-70056502D01*
X187778279Y-70281008D01*
X188537888Y-71040618D01*
X188552031Y-71026476D01*
X188731636Y-71206081D01*
X188717493Y-71220223D01*
X189477103Y-71979832D01*
X189701609Y-71979832D01*
X189826442Y-71857515D01*
X191373001Y-73404074D01*
X191373001Y-80292724D01*
X186473386Y-75393109D01*
X186499276Y-75344672D01*
X186540846Y-75207632D01*
X186554883Y-75065115D01*
X186540846Y-74922598D01*
X186499276Y-74785558D01*
X186473386Y-74737121D01*
X186985918Y-74224590D01*
X187167869Y-74242510D01*
X187359158Y-74223670D01*
X187543097Y-74167873D01*
X187712615Y-74077263D01*
X187861199Y-73955323D01*
X188338496Y-73478026D01*
X188460436Y-73329442D01*
X188551046Y-73159924D01*
X188606843Y-72975985D01*
X188625610Y-72785437D01*
X188635115Y-72786373D01*
X188759596Y-72774112D01*
X188879295Y-72737803D01*
X188989609Y-72678839D01*
X189086300Y-72599486D01*
X189297497Y-72383944D01*
X189297497Y-72159438D01*
X188537888Y-71399828D01*
X188523746Y-71413971D01*
X188344141Y-71234366D01*
X188358283Y-71220223D01*
X187598673Y-70460614D01*
X187374167Y-70460614D01*
X187158625Y-70671811D01*
X187079272Y-70768502D01*
X187020308Y-70878816D01*
X186983999Y-70998515D01*
X186971738Y-71122996D01*
X186972674Y-71132501D01*
X186782126Y-71151268D01*
X186598187Y-71207065D01*
X186428669Y-71297675D01*
X186280085Y-71419615D01*
X185802788Y-71896912D01*
X185680848Y-72045496D01*
X185590238Y-72215014D01*
X185534441Y-72398953D01*
X185515601Y-72590242D01*
X185533521Y-72772193D01*
X185020990Y-73284725D01*
X184972552Y-73258834D01*
X184835512Y-73217264D01*
X184692995Y-73203227D01*
X184550478Y-73217264D01*
X184413438Y-73258834D01*
X184365001Y-73284724D01*
X183110432Y-72030155D01*
X183490431Y-71650156D01*
X183581280Y-71539455D01*
X183648787Y-71413159D01*
X183673816Y-71330647D01*
X183756328Y-71305618D01*
X183882624Y-71238111D01*
X183993325Y-71147262D01*
X184388457Y-70752130D01*
X184479306Y-70641429D01*
X184546813Y-70515133D01*
X184588383Y-70378093D01*
X184602420Y-70235576D01*
X184588383Y-70093059D01*
X184546813Y-69956019D01*
X184479306Y-69829723D01*
X184388457Y-69719022D01*
X182987537Y-68318102D01*
X182876836Y-68227253D01*
X182750540Y-68159746D01*
X182613500Y-68118176D01*
X182470983Y-68104139D01*
X182328466Y-68118176D01*
X182191426Y-68159746D01*
X182065130Y-68227253D01*
X181954429Y-68318102D01*
X181559297Y-68713234D01*
X181468448Y-68823935D01*
X181400941Y-68950231D01*
X181375912Y-69032743D01*
X181293400Y-69057772D01*
X181167104Y-69125279D01*
X181056403Y-69216128D01*
X180661271Y-69611260D01*
X180570422Y-69721961D01*
X180502915Y-69848257D01*
X180477886Y-69930768D01*
X180395375Y-69955797D01*
X180269079Y-70023304D01*
X180158378Y-70114153D01*
X179763246Y-70509285D01*
X179672397Y-70619986D01*
X179604890Y-70746282D01*
X179579861Y-70828794D01*
X179497349Y-70853823D01*
X179371053Y-70921330D01*
X179260352Y-71012179D01*
X178865220Y-71407311D01*
X178774371Y-71518012D01*
X178706864Y-71644308D01*
X178665294Y-71781348D01*
X178651257Y-71923865D01*
X178665294Y-72066382D01*
X178706864Y-72203422D01*
X178734235Y-72254629D01*
X176967591Y-70487985D01*
X177018798Y-70515356D01*
X177155838Y-70556926D01*
X177298355Y-70570963D01*
X177440872Y-70556926D01*
X177577912Y-70515356D01*
X177704208Y-70447849D01*
X177814909Y-70357000D01*
X178210041Y-69961868D01*
X178300890Y-69851167D01*
X178368397Y-69724871D01*
X178393426Y-69642359D01*
X178475938Y-69617330D01*
X178602234Y-69549823D01*
X178712935Y-69458974D01*
X179108067Y-69063842D01*
X179198916Y-68953141D01*
X179266423Y-68826845D01*
X179291452Y-68744334D01*
X179373963Y-68719305D01*
X179500259Y-68651798D01*
X179610960Y-68560949D01*
X180006092Y-68165817D01*
X180096941Y-68055116D01*
X180164448Y-67928820D01*
X180206018Y-67791780D01*
X180210743Y-67743809D01*
X180235180Y-67736461D01*
X180345638Y-67677765D01*
X180436955Y-67599872D01*
X180436955Y-67375365D01*
X179489538Y-66427948D01*
X179475396Y-66442091D01*
X179295791Y-66262486D01*
X179309933Y-66248343D01*
X179669143Y-66248343D01*
X180616560Y-67195760D01*
X180841067Y-67195760D01*
X180918960Y-67104443D01*
X180977656Y-66993985D01*
X181013675Y-66874200D01*
X181025634Y-66749689D01*
X181013071Y-66625237D01*
X180976471Y-66505627D01*
X180917239Y-66395457D01*
X180837652Y-66298958D01*
X180338172Y-65803820D01*
X180113666Y-65803820D01*
X179669143Y-66248343D01*
X179309933Y-66248343D01*
X178362516Y-65300926D01*
X178138009Y-65300926D01*
X178060116Y-65392243D01*
X178001420Y-65502701D01*
X177994072Y-65527138D01*
X177946101Y-65531863D01*
X177809061Y-65573433D01*
X177682765Y-65640940D01*
X177572064Y-65731789D01*
X177202671Y-66101182D01*
X176867966Y-65766477D01*
X176868871Y-65763495D01*
X176887638Y-65572947D01*
X176897143Y-65573883D01*
X177021624Y-65561622D01*
X177141323Y-65525313D01*
X177251637Y-65466349D01*
X177348328Y-65386996D01*
X177559525Y-65171454D01*
X177559525Y-64946948D01*
X177509392Y-64896814D01*
X178542121Y-64896814D01*
X178542121Y-65121321D01*
X179489538Y-66068738D01*
X179934061Y-65624215D01*
X179934061Y-65399709D01*
X179438923Y-64900229D01*
X179342424Y-64820642D01*
X179232254Y-64761410D01*
X179112644Y-64724810D01*
X178988192Y-64712247D01*
X178863681Y-64724206D01*
X178743896Y-64760225D01*
X178633438Y-64818921D01*
X178542121Y-64896814D01*
X177509392Y-64896814D01*
X176799916Y-64187338D01*
X176785774Y-64201481D01*
X176606169Y-64021876D01*
X176620311Y-64007733D01*
X176979521Y-64007733D01*
X177739131Y-64767342D01*
X177963637Y-64767342D01*
X178179179Y-64556145D01*
X178258532Y-64459454D01*
X178317496Y-64349140D01*
X178353805Y-64229441D01*
X178366066Y-64104960D01*
X178353805Y-63980479D01*
X178317496Y-63860781D01*
X178258532Y-63750466D01*
X178179179Y-63653775D01*
X177866410Y-63345351D01*
X177641903Y-63345351D01*
X176979521Y-64007733D01*
X176620311Y-64007733D01*
X175860701Y-63248124D01*
X175768379Y-63248124D01*
X175336398Y-62844012D01*
X176040307Y-62844012D01*
X176040307Y-63068518D01*
X176799916Y-63828128D01*
X177462298Y-63165746D01*
X177462298Y-62941239D01*
X177153874Y-62628470D01*
X177057183Y-62549117D01*
X176946868Y-62490153D01*
X176827170Y-62453844D01*
X176702689Y-62441583D01*
X176578208Y-62453844D01*
X176458509Y-62490153D01*
X176348195Y-62549117D01*
X176251504Y-62628470D01*
X176040307Y-62844012D01*
X175336398Y-62844012D01*
X173821660Y-61427000D01*
X179395929Y-61427000D01*
X187900596Y-69931668D01*
G37*
G04 #@! TD.AperFunction*
D24*
X165725090Y-61479557D02*
X165792597Y-61605853D01*
X165883446Y-61716554D01*
X165994147Y-61807403D01*
X166120443Y-61874910D01*
X166171312Y-61890341D01*
X166091023Y-61970630D01*
X166207296Y-62086903D01*
X165963329Y-62158486D01*
X165842429Y-62413996D01*
X165773700Y-62688184D01*
X165759783Y-62970512D01*
X165801213Y-63250130D01*
X165896397Y-63516292D01*
X165963329Y-63641514D01*
X166207298Y-63713097D01*
X167020395Y-62900000D01*
X167006253Y-62885858D01*
X167185858Y-62706253D01*
X167200000Y-62720395D01*
X167214143Y-62706253D01*
X167393748Y-62885858D01*
X167379605Y-62900000D01*
X168192702Y-63713097D01*
X168436671Y-63641514D01*
X168557571Y-63386004D01*
X168626300Y-63111816D01*
X168640217Y-62829488D01*
X168598787Y-62549870D01*
X168503603Y-62283708D01*
X168436671Y-62158486D01*
X168192704Y-62086903D01*
X168308977Y-61970630D01*
X168228688Y-61890341D01*
X168279557Y-61874910D01*
X168405853Y-61807403D01*
X168516554Y-61716554D01*
X168607403Y-61605853D01*
X168674910Y-61479557D01*
X168690853Y-61427000D01*
X173201699Y-61427000D01*
X168445930Y-66373000D01*
X166251349Y-66373000D01*
X163685524Y-63892702D01*
X166386903Y-63892702D01*
X166458486Y-64136671D01*
X166713996Y-64257571D01*
X166988184Y-64326300D01*
X167270512Y-64340217D01*
X167550130Y-64298787D01*
X167816292Y-64203603D01*
X167941514Y-64136671D01*
X168013097Y-63892702D01*
X167200000Y-63079605D01*
X166386903Y-63892702D01*
X163685524Y-63892702D01*
X163288268Y-63508688D01*
X163268758Y-63493223D01*
X163246605Y-63481861D01*
X163222662Y-63475038D01*
X163200000Y-63473000D01*
X163027000Y-63473000D01*
X163027000Y-62613709D01*
X163145677Y-62602020D01*
X163282717Y-62560450D01*
X163409013Y-62492943D01*
X163519714Y-62402094D01*
X163610563Y-62291393D01*
X163678070Y-62165097D01*
X163719640Y-62028057D01*
X163733677Y-61885540D01*
X163733677Y-61363140D01*
X165689776Y-61363140D01*
X165725090Y-61479557D01*
G04 #@! TA.AperFunction,Conductor*
D25*
G36*
X165725090Y-61479557D02*
G01*
X165792597Y-61605853D01*
X165883446Y-61716554D01*
X165994147Y-61807403D01*
X166120443Y-61874910D01*
X166171312Y-61890341D01*
X166091023Y-61970630D01*
X166207296Y-62086903D01*
X165963329Y-62158486D01*
X165842429Y-62413996D01*
X165773700Y-62688184D01*
X165759783Y-62970512D01*
X165801213Y-63250130D01*
X165896397Y-63516292D01*
X165963329Y-63641514D01*
X166207298Y-63713097D01*
X167020395Y-62900000D01*
X167006253Y-62885858D01*
X167185858Y-62706253D01*
X167200000Y-62720395D01*
X167214143Y-62706253D01*
X167393748Y-62885858D01*
X167379605Y-62900000D01*
X168192702Y-63713097D01*
X168436671Y-63641514D01*
X168557571Y-63386004D01*
X168626300Y-63111816D01*
X168640217Y-62829488D01*
X168598787Y-62549870D01*
X168503603Y-62283708D01*
X168436671Y-62158486D01*
X168192704Y-62086903D01*
X168308977Y-61970630D01*
X168228688Y-61890341D01*
X168279557Y-61874910D01*
X168405853Y-61807403D01*
X168516554Y-61716554D01*
X168607403Y-61605853D01*
X168674910Y-61479557D01*
X168690853Y-61427000D01*
X173201699Y-61427000D01*
X168445930Y-66373000D01*
X166251349Y-66373000D01*
X163685524Y-63892702D01*
X166386903Y-63892702D01*
X166458486Y-64136671D01*
X166713996Y-64257571D01*
X166988184Y-64326300D01*
X167270512Y-64340217D01*
X167550130Y-64298787D01*
X167816292Y-64203603D01*
X167941514Y-64136671D01*
X168013097Y-63892702D01*
X167200000Y-63079605D01*
X166386903Y-63892702D01*
X163685524Y-63892702D01*
X163288268Y-63508688D01*
X163268758Y-63493223D01*
X163246605Y-63481861D01*
X163222662Y-63475038D01*
X163200000Y-63473000D01*
X163027000Y-63473000D01*
X163027000Y-62613709D01*
X163145677Y-62602020D01*
X163282717Y-62560450D01*
X163409013Y-62492943D01*
X163519714Y-62402094D01*
X163610563Y-62291393D01*
X163678070Y-62165097D01*
X163719640Y-62028057D01*
X163733677Y-61885540D01*
X163733677Y-61363140D01*
X165689776Y-61363140D01*
X165725090Y-61479557D01*
G37*
G04 #@! TD.AperFunction*
G04 #@! TD*
M02*
